<svg xmlns="http://www.w3.org/2000/svg" viewBox="0 0 123.62 139.95"><defs><style>.cls-1,.cls-3{fill:#7f3913;}.cls-1,.cls-2{opacity:0.78;}.cls-2,.cls-4{fill:#27aae1;}.cls-3,.cls-4{opacity:0.24;}.cls-5{fill:#231f20;}</style></defs><g id="Layer_2" data-name="Layer 2"><g id="Layer_20" data-name="Layer 20"><path class="cls-1" d="M88.38,71.6l-9.19.4a19.65,19.65,0,0,0,3.8.6A20,20,0,0,0,88.38,71.6Z"/><path class="cls-1" d="M101,76.5a6.1,6.1,0,0,0-1.16-3.31,9.2,9.2,0,0,1-2.54,1.09,52.7,52.7,0,0,1-7.4,1,33,33,0,0,1-8.6.18l-.3,0a15.2,15.2,0,0,1-8.36-.81,2.41,2.41,0,0,1-.38,0V75a1,1,0,0,1-.28.68.83.83,0,0,1-.22.14,107.29,107.29,0,0,1-.36,20.51A90.38,90.38,0,0,1,69.6,106.4c-.37,1.55-.72,3.11-1.08,4.66.18,3-1.13,5.92-1.18,8.88a3.93,3.93,0,0,0,.27,1.86,1.24,1.24,0,0,0,.27.36.94.94,0,0,1,.86-.61,16.67,16.67,0,0,1,1.73,0,5.08,5.08,0,0,1,1,0,5,5,0,0,1,1.55.08,16.18,16.18,0,0,1,3.78.16,1,1,0,0,1,.26.1c.38,0,.77-.1,1.15-.12a.89.89,0,0,1,.88-.69c2.19-.09,4.38,0,6.55-.08a7,7,0,0,0,4-1.88.76.76,0,0,1-.22-.91c1.89-4.86,3.25-9.89,4.94-14.81a1.05,1.05,0,0,1,.25-.4c.21-1.25.4-2.51.57-3.77a1,1,0,0,1,.58-.81l.12-.72A14.74,14.74,0,0,1,96,96.17a.8.8,0,0,1-.14-.81l.17-.51a1,1,0,0,1,0-.17,24.23,24.23,0,0,1,1.37-4.17c.5-1.63,1-3.26,1.53-4.88.64-1.94,1.69-3.69,2.38-5.57.17-.73.33-1.47.48-2.21A4.94,4.94,0,0,0,101,76.5Z"/><path class="cls-2" d="M102.14,19.93C91,21.44,79.73,20,68.51,20a9.37,9.37,0,0,1,0,1.06c0,.07,0,.14,0,.21a8.22,8.22,0,0,1,1.12,3.44A48.66,48.66,0,0,1,70,31.41c0,2.48.16,4.93,0,7.42-.25,3.58-.41,7.13-.49,10.72s-.22,7,0,10.43a64,64,0,0,0,1,7.11,7.89,7.89,0,0,0,2.54,3,13.07,13.07,0,0,0,3.42,1.72,8.45,8.45,0,0,1,1.81,0,36.21,36.21,0,0,0,4.7.76c3.15,0,6.1-1.48,9.2-1.89,3.25-.43,6.59-.21,9.76-1.15l.15-.37c2.44-6.67,2.83-13.24,3.19-20.25a107.31,107.31,0,0,1,3.62-22.24C110.1,22.24,106.16,19.39,102.14,19.93Z"/></g><g id="Layer_23" data-name="Layer 23"><path class="cls-3" d="M63.4,120.06a11.68,11.68,0,0,1,.2-4.25.85.85,0,0,1-.46-1.06c.48-1.7.9-3.41,1.3-5.13l0-.23a.94.94,0,0,1,.14-.49c.34-1.46.67-2.93,1-4.39a88.53,88.53,0,0,0,1.77-10,107.55,107.55,0,0,0,.3-20.22.79.79,0,0,1,.51-.84V72.3A4.17,4.17,0,0,1,67.54,71s0,0,0,0l0-.06a371.81,371.81,0,0,1-38.35-.67c-4.46-.34-6.08,3.92-4.91,7.24a5.71,5.71,0,0,0-.7,3.85A49.57,49.57,0,0,0,26,91.27a38.38,38.38,0,0,0,.65,7c.63,2.65.59,5,1,7.67.36,2.18,1.72,4.34,2.56,6.42,1.78,4.4,5.86,7.09,10.69,8.69a17,17,0,0,0,3.72,1,61.45,61.45,0,0,0,16.05,1l4.68-.29A3.35,3.35,0,0,1,63.4,120.06Z"/><path class="cls-4" d="M68.21,72.3A4.17,4.17,0,0,1,67.54,71s0,0,0,0c-1.43-2.36-1.7-6.14-1.87-8.25a.8.8,0,0,1,.22-.67c0-.18-.06-.36-.08-.54a65.31,65.31,0,0,1-.42-10.65c.08-3.59.07-7.18.35-10.75A86.79,86.79,0,0,0,66,31c0-2,0-3.91-.18-5.87-.06-.68-.14-1.36-.26-2a1.35,1.35,0,0,1-.36.08,1,1,0,0,1-1-1c.08-.56.14-1.12.19-1.69a1,1,0,0,1,.07-1.81.49.49,0,0,1,0-.12c-1,0-2,0-3,.08C48,19.27,34.38,19,20.83,19c-4,0-5.73,3.49-5.22,6.54a6.91,6.91,0,0,0-2.41,2.78c-2.31,4.66.68,7.31,1.86,11.55.65,2.36,0,5.19.44,7.63a16.32,16.32,0,0,0,2.56,6.43,36.75,36.75,0,0,1,5.66,14.36c.37,2.33,3.09,4,5.3,4,11-.09,22.18.38,33.15-.42.46,0,.92-.08,1.37-.12a23.6,23.6,0,0,0,4.67,1.53ZM28.53,50.13c-.31-.45-.6-.9-.86-1.36q1,.23,2.07.42C29.33,49.48,28.93,49.79,28.53,50.13Z"/></g><g id="Layer_21" data-name="Layer 21"><path class="cls-5" d="M106.38,19.49c-5.83.86-11.7,1.72-17.61,1.43-2.9-.14-5.79-.49-8.68-.79l-8.82-.92L70,19.08c-.31,0-1,0-1.23-.2s-.26-.76-.33-1.07l-.27-1.2c-.37-1.64-.73-3.29-1.1-4.93-.14-.62-1.1-.36-1,.27l1,4.56c.16.72.31,1.44.48,2.16a1.86,1.86,0,0,0,.47,1,.38.38,0,0,0-.15.37c1.24,11.37.39,22.81.15,34.21-.06,2.87-.09,5.75,0,8.62a22.2,22.2,0,0,0,1.06,7.34,6,6,0,0,0,1.57,2.52.92.92,0,0,1,1.26.06,1,1,0,0,1,.28.65,14.37,14.37,0,0,0,2,.23,40,40,0,0,0,8.32-.53l19.24-2.65c.64-.09.37-1.05-.26-1L85,71.82a77.83,77.83,0,0,1-8.18.92,21.08,21.08,0,0,1-4-.21,2.87,2.87,0,0,1-1.6-.64,4.49,4.49,0,0,1-.9-1.44,18.89,18.89,0,0,1-1.22-7.34c-.06-2.7,0-5.4,0-8.1.11-5.51.37-11,.48-16.52A141.73,141.73,0,0,0,69,20.06a.25.25,0,0,0,0-.07c.48.08,1,.08,1.46.13l2.49.25,4.72.5c3.11.32,6.22.69,9.34.93a58.93,58.93,0,0,0,9.3,0c3.48-.28,6.94-.8,10.39-1.31C107.28,20.35,107,19.39,106.38,19.49Z"/><path class="cls-5" d="M107.16,18.54c-10.25-1.49-20.59-2.75-30.67-5.18-2.82-.68-5.62-1.46-8.38-2.37-.62-.2-.88.76-.27,1,9.83,3.24,20.08,4.8,30.29,6.28l8.76,1.27C107.52,19.59,107.79,18.63,107.16,18.54Z"/><path class="cls-5" d="M108.06,22.28a.5.5,0,0,0-1,.26,14.59,14.59,0,0,1,.12,5.23c-.15,1.84-.3,3.69-.46,5.54-.05.64.95.63,1,0l.48-5.76A14.59,14.59,0,0,0,108.06,22.28Z"/><path class="cls-5" d="M105.76,38.27c-.66,4.87-1.11,9.76-1.48,14.66-.19,2.44-.39,4.89-.72,7.32-.17,1.2-.37,2.39-.61,3.57a10,10,0,0,1-1.06,3.33.5.5,0,0,0,.87.51,10,10,0,0,0,1.06-3.1c.25-1.18.46-2.37.63-3.56.36-2.44.58-4.89.77-7.35.4-5,.82-10.09,1.51-15.11C106.81,37.91,105.85,37.63,105.76,38.27Z"/><path class="cls-5" d="M101,72.88a20.52,20.52,0,0,0-7,.62,34.89,34.89,0,0,1-7.14.74c-4.89,0-9.78-.08-14.68-.12V75a.3.3,0,0,1,0,.1c4.82,0,9.64.11,14.46.12a35.34,35.34,0,0,0,7-.63c2.34-.47,4.72-1.09,7.12-.76C101.4,73.93,101.67,73,101,72.88Z"/><path class="cls-5" d="M102,74.85c-.06-.63-1.06-.64-1,0a21.14,21.14,0,0,1-1.59,9.49c-1.14,3-2.87,5.78-3.85,8.84a24.33,24.33,0,0,0-.84,4.72,16.4,16.4,0,0,1-1.24,4.81c-.59,1.36-1.26,2.69-1.74,4.11a41.5,41.5,0,0,0-1.1,4.15c-.71,3.11-1.35,6.3-3.15,9-.36.54.51,1,.86.51a23.34,23.34,0,0,0,3-8c.32-1.4.62-2.81,1-4.19a30.77,30.77,0,0,1,1.68-4.33,17.88,17.88,0,0,0,1.49-4.48c.27-1.63.32-3.29.69-4.9.75-3.19,2.6-6.06,3.82-9.07A22.6,22.6,0,0,0,102,74.85Z"/><path class="cls-5" d="M71,76.56q-.23,9.12-.43,18.23c-.07,3-.09,6-.42,8.94a42.46,42.46,0,0,1-1.79,8.34c-.47,1.47-1,2.89-1.64,4.31a9.53,9.53,0,0,0-1,4.5c.06.63,1.06.64,1,0a9,9,0,0,1,1-4.18c.53-1.26,1-2.52,1.48-3.82A43.51,43.51,0,0,0,71,104.76a81.57,81.57,0,0,0,.51-8.84q.11-4.56.22-9.12L72,76.56A.5.5,0,0,0,71,76.56Z"/><path class="cls-5" d="M84.29,120.07c-1.08-.55-2.41-.16-3.55,0-1.44.16-2.88.31-4.32.44-2.83.27-5.68.48-8.52.65-.64,0-.64,1,0,1q4-.24,8-.6c1.32-.12,2.63-.25,3.95-.4l2-.22a3.55,3.55,0,0,1,1.94,0C84.36,121.22,84.87,120.36,84.29,120.07Z"/></g><g id="Layer_19" data-name="Layer 19"><path class="cls-5" d="M34.69,135.36a10.86,10.86,0,0,1-11.47-8,24.5,24.5,0,0,1-.48-5.2c0-.31,0-.62,0-.94v0a.65.65,0,0,0,.39.05l.17,0a.47.47,0,0,0,.47.58.49.49,0,0,0,.41-.75l.23,0a.48.48,0,0,0,.29-.23.54.54,0,0,0,.06-.39.51.51,0,0,0-.23-.29.59.59,0,0,0-.39-.06l-1.28.26a.56.56,0,0,0-.17.09c0-.74-.05-1.48-.1-2.21a2.85,2.85,0,0,0,3.18-.06.52.52,0,0,0,.17-.69.49.49,0,0,0-.68-.17,2.65,2.65,0,0,1-.4.24h0l-.1,0-.21.06-.12,0h-.46s-.16,0,0,0h-.11a3.52,3.52,0,0,1-.43-.13h0l-.09,0-.2-.12-.09-.06h0l-.15-.14-.12-.14s0,0,0-.06a.41.41,0,0,1-.07-.11l-.05,0-.12-1.44a3.59,3.59,0,0,0,.47.12,3.3,3.3,0,0,0,1,0,.51.51,0,0,0,.3-.22.51.51,0,0,0-.18-.69.61.61,0,0,0-.38-.05h.05a2.25,2.25,0,0,1-.58,0,2.07,2.07,0,0,1-.54-.15l-.08,0a.6.6,0,0,0-.19-.06c-.05-.57-.08-1.15-.14-1.72l1,.17a.56.56,0,0,0,.38,0,.5.5,0,0,0,.23-.3.5.5,0,0,0-.35-.62L22,111.46c-.11-1-.21-2-.33-3l.12.07,1.52.54a.5.5,0,0,0,.27-1l-1.53-.53a.43.43,0,0,0-.38.05s-.06,0-.09.07a1,1,0,0,0,0-.16A146.85,146.85,0,0,0,11.44,70.08a39.86,39.86,0,0,1-1.89-5.2,22.4,22.4,0,0,1-.62-5.59,39.3,39.3,0,0,1,1.69-11.24.43.43,0,0,0-.15-.49.48.48,0,0,0,.11-.43Q8.92,39.55,6.87,32.08c-.68-2.47-1.4-4.93-2.14-7.38C4.45,23.79,4.17,22.87,4,22a7.39,7.39,0,0,0,3.7,1.4.51.51,0,0,0,.5-.5.5.5,0,0,0-.5-.5A6.66,6.66,0,0,1,4.36,21a.47.47,0,0,0-.6.09,12.33,12.33,0,0,1-.22-3.93c.08-.64-.92-.64-1,0a14.79,14.79,0,0,0,.62,5.72c.53,1.94,1.15,3.86,1.71,5.8C6,32.65,7.07,36.62,8.05,40.62Q8.88,44,9.61,47.39a.43.43,0,0,0,.13.24.48.48,0,0,0-.08.16c-1.93,6.41-2.61,13.62-.22,20C10.63,71,12,74.07,13.19,77.27s2.16,6.3,3.08,9.5a145.2,145.2,0,0,1,4.18,19.78c.47,3.4.82,6.83,1,10.27.11,1.62.19,3.25.24,4.87a36.5,36.5,0,0,0,.35,5.12,11.85,11.85,0,0,0,12.61,9.55C35.32,136.3,35.33,135.29,34.69,135.36Z"/><path class="cls-5" d="M33.65,113.17l-6.4-27c-2.09-8.8-4.42-17.63-5.18-26.68-.19-2.31,0-4.79-.63-7.05a5,5,0,0,0-3.66-3.8c-.63-.12-.89.84-.26,1,1.87.35,2.82,2.15,3.13,3.87.38,2.09.27,4.28.45,6.38a112.44,112.44,0,0,0,2,12.78c1.82,8.69,4,17.31,6.07,26l3.51,14.82C32.83,114.07,33.8,113.8,33.65,113.17Z"/><path class="cls-5" d="M48.74,105.75a46.25,46.25,0,0,1-2.57-13.59c-.29-4.78-.29-9.57-.39-14.35q-.14-7.43-.29-14.85c-.08-3.8-.16-8.09-3-11s-7.41-3.35-11.31-3.52c-.65,0-.64,1,0,1,3.41.15,7.36.44,10.09,2.75,3.12,2.63,3.16,7,3.24,10.73q.13,7.23.29,14.48c.09,4.63.11,9.28.35,13.91A48.1,48.1,0,0,0,47.78,106C48,106.61,49,106.35,48.74,105.75Z"/><path class="cls-5" d="M56.29,99.55a17.39,17.39,0,0,1-.66-5c-.09-1.76-.19-3.53-.29-5.29-.2-3.53-.43-7-.69-10.58,0-.64-1-.64-1,0q.39,5.42.71,10.83c.1,1.8.2,3.61.29,5.41a17,17,0,0,0,.68,4.87C55.54,100.42,56.5,100.16,56.29,99.55Z"/><path class="cls-5" d="M70.78,128.2a67.93,67.93,0,0,1-13.6.08,134.89,134.89,0,0,1-14.76-2.73l-10.05-2.17-2.12-.72a.49.49,0,0,0-.5.15l-4-.87a.46.46,0,0,0-.46-.34.5.5,0,0,0-.32.87.42.42,0,0,0,.35.4l6.81,1.47.93.32a.48.48,0,0,0,.35,0l7.43,1.61c5,1.08,10,2.28,15.16,2.91A69.17,69.17,0,0,0,72.81,129,8.2,8.2,0,0,1,70.78,128.2Z"/><path class="cls-5" d="M98.48,120.94a4.12,4.12,0,0,1-2.66,2.3,8.6,8.6,0,0,1-7.18,1.81l-1.58.35c-2.29.51-4.58,1-6.87,1.42a6.31,6.31,0,0,1-1.46,1.28c2.72-.48,5.43-1,8.11-1.62s5.48-1.15,8.16-1.91c1.85-.53,3.76-1.42,4.45-3.36C99.66,120.6,98.7,120.34,98.48,120.94Z"/><path class="cls-5" d="M28.59,127.47a.5.5,0,0,0,0,1A.5.5,0,0,0,28.59,127.47Z"/><path class="cls-5" d="M38.51,128.48c0-.64-1-.64-1,0a45.05,45.05,0,0,1-.17,7.16c-.06.64.94.63,1,0A45.05,45.05,0,0,0,38.51,128.48Z"/><path class="cls-5" d="M52.18,133.75a.49.49,0,0,0-.36-.15.47.47,0,0,0-.35.15.49.49,0,0,0-.15.35v.76a.53.53,0,0,0,.15.36.46.46,0,0,0,.35.14.48.48,0,0,0,.36-.14.52.52,0,0,0,.14-.36v-.76A.5.5,0,0,0,52.18,133.75Z"/><path class="cls-5" d="M24.5,34.57a15.54,15.54,0,0,0-7.93,1.27c-.59.25-.08,1.12.51.86a14.51,14.51,0,0,1,7.42-1.13C25.14,35.64,25.13,34.64,24.5,34.57Z"/><path class="cls-5" d="M49.69,28.59a.41.41,0,0,0-.58.32.49.49,0,0,0,.41.75l.09,0a9.55,9.55,0,0,1,5.6,9c0,.64,1,.64,1,0A10.56,10.56,0,0,0,49.69,28.59Z"/><path class="cls-5" d="M7.14,19.27l-2-1a.5.5,0,0,0-.5.87l2,1a.5.5,0,0,0,.5-.87Z"/><path class="cls-5" d="M7.57,25.85a.5.5,0,0,0-.3-.23l-.76-.26a.46.46,0,0,0-.2,0,.6.6,0,0,0-.19.06.51.51,0,0,0-.18.69.62.62,0,0,0,.3.23l.77.25a.44.44,0,0,0,.2,0,.3.3,0,0,0,.18-.06.5.5,0,0,0,.18-.68Z"/><path class="cls-5" d="M11.2,29a.52.52,0,0,0-.62-.34,6,6,0,0,1-3.7-.7c-.56-.31-1.07.55-.51.87a7.11,7.11,0,0,0,4.48.79A.52.52,0,0,0,11.2,29Z"/><path class="cls-5" d="M10.71,33.8l-2.55-.29a.5.5,0,0,0,0,1l2.55.29a.5.5,0,0,0,.5-.5A.51.51,0,0,0,10.71,33.8Z"/><path class="cls-5" d="M13,38.14a.5.5,0,0,0-.61-.35,2.59,2.59,0,0,1-.45.14,1.58,1.58,0,0,1-.38,0A2.48,2.48,0,0,1,11,38h-.15l-.23-.05a2.43,2.43,0,0,1-.76-.31A2.58,2.58,0,0,1,9.22,37a.5.5,0,0,0-.7.71,3.76,3.76,0,0,0,4.08,1A.52.52,0,0,0,13,38.14Z"/><path class="cls-5" d="M12.17,40.9a.5.5,0,0,0-.3-.23l-1.79-.25a.55.55,0,0,0-.38,0,.5.5,0,0,0-.23.3.5.5,0,0,0,0,.38.41.41,0,0,0,.3.23l1.78.26a.59.59,0,0,0,.39,0,.51.51,0,0,0,.18-.69Z"/><path class="cls-5" d="M11,44a.5.5,0,0,0,0,1A.5.5,0,0,0,11,44Z"/><path class="cls-5" d="M118.37,23a.5.5,0,0,0-.68-.18l-.19.09,0,0h0a2.3,2.3,0,0,1-.34.12c-.12,0-.24.06-.36.09l-.19,0h-.12a3.56,3.56,0,0,1-.73,0h-.12l-.17,0-.38-.09a.5.5,0,0,0-.61.35.51.51,0,0,0,.35.61,4.72,4.72,0,0,0,3.44-.35A.49.49,0,0,0,118.37,23Z"/><path class="cls-5" d="M116.39,25.71a.5.5,0,0,0-.62-.35l-.76.26a.5.5,0,0,0-.3.23.5.5,0,0,0,0,.38.5.5,0,0,0,.23.3.51.51,0,0,0,.38,0l.77-.25a.62.62,0,0,0,.3-.23A.53.53,0,0,0,116.39,25.71Z"/><path class="cls-5" d="M115.24,27.53a.52.52,0,0,0-.35-.14h-.77a.5.5,0,0,0-.35.14.49.49,0,0,0-.15.36.51.51,0,0,0,.15.35.49.49,0,0,0,.35.15h.77a.5.5,0,0,0,.35-.86Z"/><path class="cls-5" d="M112.57,45.4a.49.49,0,0,0-.61-.34,5.32,5.32,0,0,1-.57.16l-.24.05H111a4.87,4.87,0,0,1-.54,0l-.3,0-.11,0h-.08a.51.51,0,0,0-.62.35.5.5,0,0,0,.35.61,5,5,0,0,0,2.57-.2A.51.51,0,0,0,112.57,45.4Z"/><path class="cls-5" d="M110.94,47.88a3.19,3.19,0,0,1-1.41.16,3.3,3.3,0,0,1-1.14-.37c0,.35-.07.69-.1,1a4.2,4.2,0,0,0,2.92.13.51.51,0,0,0,.35-.61A.51.51,0,0,0,110.94,47.88Z"/><path class="cls-5" d="M105.36,96.57l-.08-.1a.45.45,0,0,0-.22-.13l-1.28-.51a.46.46,0,0,0-.38,0,.53.53,0,0,0-.23.3.5.5,0,0,0,0,.38l.08.11a.43.43,0,0,0,.22.12l1.28.51a.46.46,0,0,0,.38,0,.55.55,0,0,0,.23-.29A.53.53,0,0,0,105.36,96.57Z"/><path class="cls-5" d="M104.34,98.36a.5.5,0,0,0-.3-.23l-.77-.26a.44.44,0,0,0-.2,0,.64.64,0,0,0-.18.06.5.5,0,0,0-.23.3.53.53,0,0,0,0,.39.58.58,0,0,0,.3.23l.76.25a.35.35,0,0,0,.2,0,.33.33,0,0,0,.19-.06.53.53,0,0,0,.23-.3A.5.5,0,0,0,104.34,98.36Z"/><path class="cls-5" d="M104.57,100.37a.5.5,0,0,0-.68-.18l-.24.12-.06,0-.14,0-.12,0H103l-.14,0-.14,0-.07,0,0,0,0,0-.13-.07-.06,0-.1-.09a.5.5,0,1,0-.71.71,2.4,2.4,0,0,0,2.89.29A.5.5,0,0,0,104.57,100.37Z"/><path class="cls-5" d="M104.16,101.43h-1.79a.51.51,0,0,0-.5.5.51.51,0,0,0,.5.5h1.79a.5.5,0,0,0,0-1Z"/><path class="cls-5" d="M104.08,103.49a.5.5,0,0,0-.3-.23l-1.53-.25a.49.49,0,0,0-.39,0,.53.53,0,0,0-.23.3.51.51,0,0,0,.05.38.52.52,0,0,0,.3.23l1.53.26a.58.58,0,0,0,.39,0,.51.51,0,0,0,.18-.69Z"/><path class="cls-5" d="M101.61,108.07a.5.5,0,0,0,0,1A.5.5,0,0,0,101.61,108.07Z"/><path class="cls-5" d="M100.59,109.85a.5.5,0,0,0,0,1A.5.5,0,0,0,100.59,109.85Z"/><path class="cls-5" d="M33.05,121.94l-3.31-.55a.52.52,0,0,0-.62.35.52.52,0,0,0,.35.62l3.31.55a.52.52,0,0,0,.62-.35A.52.52,0,0,0,33.05,121.94Z"/><path class="cls-5" d="M33.44,126.72a11.16,11.16,0,0,1-3.44-.51.5.5,0,0,0-.62.34.52.52,0,0,0,.35.62,12,12,0,0,0,3.71.55.51.51,0,0,0,.5-.5A.5.5,0,0,0,33.44,126.72Z"/><path class="cls-5" d="M32.84,128.71a.53.53,0,0,0-.3-.23.59.59,0,0,0-.39.06c.13-.06,0,0,0,0l-.1,0-.24.07-.14,0h0l-.25,0H31a2.9,2.9,0,0,1-.48-.14.5.5,0,0,0-.61.35.52.52,0,0,0,.35.62,3.1,3.1,0,0,0,1.17.2,3.36,3.36,0,0,0,1.25-.29.5.5,0,0,0,.23-.3A.53.53,0,0,0,32.84,128.71Z"/><path class="cls-5" d="M32.3,131.83l-2-.77a.5.5,0,0,0-.26,1l2,.76a.49.49,0,0,0,.61-.35A.5.5,0,0,0,32.3,131.83Z"/><path class="cls-5" d="M35.66,134.36a.52.52,0,0,0-.69-.18s-.06,0,0,0l-.09,0-.22.07-.19.05-.09,0H34.1a.44.44,0,0,0,.09-.27.5.5,0,0,0-.5-.5,6,6,0,0,1-3.31-1,.5.5,0,1,0-.51.86,6.93,6.93,0,0,0,1.56.73.4.4,0,0,0,.12.23,3.63,3.63,0,0,0,3.93.58A.51.51,0,0,0,35.66,134.36Z"/><path class="cls-5" d="M40.59,134.88h-1a.48.48,0,0,0-.5.5.51.51,0,0,0,.5.5h1a.51.51,0,0,0,.35-.15.53.53,0,0,0,.15-.35A.5.5,0,0,0,40.59,134.88Z"/><path class="cls-5" d="M47.15,135.89a.52.52,0,0,0-.3-.23l-1-.17a.51.51,0,0,0,0-.48.49.49,0,0,0-.68-.18,3.09,3.09,0,0,1-.76.24l-.11,0c.05,0,0,0,0,0H44a2.36,2.36,0,0,1-.46,0,2.22,2.22,0,0,1-.36-.06,2.77,2.77,0,0,1-.41-.12,3.2,3.2,0,0,1-.33-.16,2.59,2.59,0,0,1-.39-.25.51.51,0,0,0-.69.18.52.52,0,0,0,.18.68,3.87,3.87,0,0,0,3.16.64.65.65,0,0,0,0,.13.5.5,0,0,0,.3.23l1.53.25a.49.49,0,0,0,.39-.05.53.53,0,0,0,.23-.3A.51.51,0,0,0,47.15,135.89Z"/><path class="cls-5" d="M56.64,136.51a.51.51,0,0,0-.61-.35l-.12,0h-.82l-.14,0a3.78,3.78,0,0,1-.6-.17l-.06,0h0l-.12-.06a2.28,2.28,0,0,1-.3-.17.5.5,0,0,0-.5.87,4.15,4.15,0,0,0,2.94.53A.49.49,0,0,0,56.64,136.51Z"/><path class="cls-5" d="M59,136.05a.52.52,0,0,0-.62-.35h-.57l-.24-.05-.23-.08h0l-.12-.06-.22-.13a.44.44,0,0,1-.11-.08l0,0-.05,0a.5.5,0,0,0-.71.71,3.07,3.07,0,0,0,2.52.69A.5.5,0,0,0,59,136.05Z"/><path class="cls-5" d="M62.68,137.19l-2-.76a.5.5,0,0,0-.62.34.52.52,0,0,0,.35.62l2,.77a.52.52,0,0,0,.62-.35A.52.52,0,0,0,62.68,137.19Z"/><path class="cls-5" d="M84.5,133.6a.5.5,0,0,0,0,1A.5.5,0,0,0,84.5,133.6Z"/><path class="cls-5" d="M87.83,135.85a.51.51,0,0,0-.62-.35l-.27.08-.12,0h-.54a2.3,2.3,0,0,1-.28-.06l-.14,0s-.18-.06,0,0a.91.91,0,0,1-.26-.13l-.12-.07,0,0a.53.53,0,0,0-.36-.15.51.51,0,0,0-.35.86,3,3,0,0,0,2.79.51A.52.52,0,0,0,87.83,135.85Z"/><path class="cls-5" d="M93.92,135.25a.5.5,0,0,0-.25-.31.66.66,0,0,0,0-.14.51.51,0,0,0-.23-1,.48.48,0,0,0-.48.55l-1.42.2a.45.45,0,0,0-.4-.24.51.51,0,0,0-.24.94l-.66.11a.5.5,0,0,0-.35.61.52.52,0,0,0,.62.35l3.06-.51A.5.5,0,0,0,93.92,135.25Z"/><path class="cls-5" d="M98,123.64a.5.5,0,0,0,0,1A.5.5,0,0,0,98,123.64Z"/><path class="cls-5" d="M99.25,125.45a.5.5,0,0,0-.68-.18l-1.83,1.22a.5.5,0,1,0,.51.87l.46-.32-.75.63a.49.49,0,0,0-.15.35.53.53,0,0,0,.15.36.5.5,0,0,0,.35.14.54.54,0,0,0,.36-.14l1.25-1a.45.45,0,0,0,.15-.35.51.51,0,0,0-.15-.35.47.47,0,0,0-.35-.15h0l.52-.35A.5.5,0,0,0,99.25,125.45Z"/><path class="cls-5" d="M99.33,128.12a.5.5,0,0,0-.23-.3.5.5,0,0,0-.68.18l-.13.21-.21.21a1.35,1.35,0,0,1-.26.15,1.71,1.71,0,0,1-.3.09h-.25a.5.5,0,0,0-.5.5.52.52,0,0,0,.5.5,2.16,2.16,0,0,0,2-1.17A.51.51,0,0,0,99.33,128.12Z"/><path class="cls-5" d="M96.25,129.77a.5.5,0,0,0,0,1A.5.5,0,0,0,96.25,129.77Z"/><path class="cls-5" d="M16.77,53.4a.53.53,0,0,0-.3-.23l-1.28-.5a.51.51,0,0,0-.38,0,.5.5,0,0,0-.23.3.5.5,0,0,0,.05.38.53.53,0,0,0,.3.23l.2.08H15a.32.32,0,0,0-.18.06.5.5,0,0,0-.23.3.51.51,0,0,0,0,.38l.08.1a.45.45,0,0,0,.22.13l.76.26a.46.46,0,0,0,.2,0,.33.33,0,0,0,.19-.06.53.53,0,0,0,.23-.3.5.5,0,0,0-.05-.38l-.07-.09h0a.5.5,0,0,0,.56-.73Z"/><path class="cls-5" d="M14.8,55.22a.5.5,0,0,0,0,1A.5.5,0,0,0,14.8,55.22Z"/><path class="cls-5" d="M16.17,57.93A.61.61,0,0,0,16,57.8l-.11,0a.5.5,0,0,0,0-1h-.13a2.36,2.36,0,0,1-.38-.1,3.37,3.37,0,0,1-.32-.19l-.09-.08a.5.5,0,0,0-.7,0,.5.5,0,0,0,0,.71,1.69,1.69,0,0,0,.25.2l-.16.05a.51.51,0,0,0-.18.69l.07.1a.65.65,0,0,0,.23.13l1.27.51a.58.58,0,0,0,.39-.05.57.57,0,0,0,.23-.3.53.53,0,0,0-.05-.39Z"/><path class="cls-5" d="M14.8,58.54a.5.5,0,0,0,0,1A.5.5,0,0,0,14.8,58.54Z"/><path class="cls-5" d="M14.8,60.07a.5.5,0,0,0,0,1A.5.5,0,0,0,14.8,60.07Z"/><path class="cls-5" d="M16.81,62a.5.5,0,0,0-.23-.3.59.59,0,0,0-.37,0h.07a2.27,2.27,0,0,1-.52,0l-.22,0-.14,0-.06,0a1.74,1.74,0,0,1-.27-.14l-.1-.07-.06-.05a.5.5,0,0,0-.71.7,2.88,2.88,0,0,0,1.05.59,2.91,2.91,0,0,0,1.21.06.5.5,0,0,0,.3-.23A.49.49,0,0,0,16.81,62Z"/><path class="cls-5" d="M15.74,63.14a.5.5,0,0,0-.3-.23l-1-.26a.59.59,0,0,0-.39.05.51.51,0,0,0-.18.69.57.57,0,0,0,.3.23l1,.25a.48.48,0,0,0,.39,0,.53.53,0,0,0,.23-.3A.51.51,0,0,0,15.74,63.14Z"/><path class="cls-5" d="M16,64.91a.77.77,0,0,0-.18-.18l-.51-.25a.33.33,0,0,0-.19-.06.28.28,0,0,0-.2,0,.38.38,0,0,0-.17.08.64.64,0,0,0-.13.15l0,.11a.61.61,0,0,0,0,.27l0,0a.47.47,0,0,0,.47.59.49.49,0,0,0,.25-.07h0a.33.33,0,0,0,.19.06.28.28,0,0,0,.2,0,.38.38,0,0,0,.17-.08.57.57,0,0,0,.13-.14l.05-.12a.62.62,0,0,0,0-.27Z"/><path class="cls-5" d="M14,67a.5.5,0,0,0,0,1A.5.5,0,0,0,14,67Z"/><path class="cls-5" d="M11.23,54.19a.5.5,0,0,0,0,1A.5.5,0,0,0,11.23,54.19Z"/><path class="cls-5" d="M11,55.73a.5.5,0,0,0,0,1A.5.5,0,0,0,11,55.73Z"/><path class="cls-5" d="M12.74,58.12a.53.53,0,0,0-.23-.3l-1-.51a.56.56,0,0,0-.38-.05.58.58,0,0,0-.3.23.53.53,0,0,0-.05.39.5.5,0,0,0,.23.3l1,.51a.51.51,0,0,0,.69-.18A.53.53,0,0,0,12.74,58.12Z"/><path class="cls-5" d="M12,60.18a.38.38,0,0,0-.13-.22l-.25-.26a.39.39,0,0,0-.16-.1.33.33,0,0,0-.19,0,.34.34,0,0,0-.2,0,.39.39,0,0,0-.16.1l-.08.1a.58.58,0,0,0-.06.26v.13a.61.61,0,0,0,.13.22l.26.26a.44.44,0,0,0,.16.1.47.47,0,0,0,.38,0,.37.37,0,0,0,.16-.1l.08-.11a.43.43,0,0,0,.07-.25Z"/><path class="cls-5" d="M5.86,10.79H4.08a.5.5,0,0,0-.5.5.51.51,0,0,0,.5.5H5.86a.5.5,0,0,0,.5-.5A.51.51,0,0,0,5.86,10.79Z"/><path class="cls-5" d="M14.52,8.6a.51.51,0,0,0-.23-.29.53.53,0,0,0-.39-.05l-1.79.25a.48.48,0,0,0-.29.23.49.49,0,0,0-.05.39.46.46,0,0,0,.22.29.59.59,0,0,0,.39.05l1.79-.25a.57.57,0,0,0,.3-.23A.53.53,0,0,0,14.52,8.6Z"/><path class="cls-5" d="M17.45,7.36a.52.52,0,0,0-.35-.14h-.77a.5.5,0,0,0-.35.14.53.53,0,0,0-.15.36.51.51,0,0,0,.15.35.53.53,0,0,0,.35.15h.77a.51.51,0,0,0,.35-.15.5.5,0,0,0,0-.71Z"/><path class="cls-5" d="M63.74,18.23a8.44,8.44,0,0,1,.44-.91v0C56.61,17.19,49,17,41.46,16.69c-12.07-.43-24.17-1.22-36.06-3.46-1.3-.25-2.6-.52-3.9-.8C1.58,11.07,3,10.2,4.14,9.69c.49-.22,1-.41,1.51-.58a.65.65,0,0,0,0,.19.53.53,0,0,0,.15.36.61.61,0,0,0,.35.14l.68.09a.49.49,0,0,0,.35.14c.2,0,.39,0,.59,0l.43.06A.48.48,0,0,0,8.45,10a13.64,13.64,0,0,0,2.63-.54.52.52,0,0,0,.35-.62.51.51,0,0,0-.61-.35A12.63,12.63,0,0,1,7.72,9L6.49,8.85C7.63,8.5,8.8,8.22,9.94,8c2.64-.63,5.32-1.08,8-1.47a.39.39,0,0,0-.06.11.53.53,0,0,0,.35.62L20.52,8a.5.5,0,0,0,.62-.35A.52.52,0,0,0,20.79,7l-2-.68L21.16,6a.48.48,0,0,0,.15.86,27.28,27.28,0,0,0,4,.51l.06,0a17.85,17.85,0,0,0,5.5.51c.63,0,.64-1,0-1a17,17,0,0,1-3.11-.09.45.45,0,0,0-.47-.4A26.19,26.19,0,0,1,21.72,6l.68-.09c2.46-.31,4.93-.58,7.41-.83a.53.53,0,0,0,.17.88c.32.11.64.19,1,.28a.57.57,0,0,0,0,.34.51.51,0,0,0,.61.35,11.08,11.08,0,0,1,1.8-.23,15,15,0,0,0,2.92,0,.51.51,0,0,0,.5-.5.41.41,0,0,0,0-.19,15.93,15.93,0,0,0,3.63.48.5.5,0,0,0,0-1,14.87,14.87,0,0,1-3.69-.52.51.51,0,0,0-.56.74l-.82,0h0a12.53,12.53,0,0,0-1.84,0,13.72,13.72,0,0,1-3-.67q8.91-.9,17.87-1.28,7.27-.31,14.56-.27a.5.5,0,0,0,0-1q-13.51-.07-27,1Q29,4,22.28,4.89A118.39,118.39,0,0,0,9.56,7a28.58,28.58,0,0,0-6.4,2A4.4,4.4,0,0,0,.51,12.22a.52.52,0,0,0-.47.71.45.45,0,0,0,.29.36c5,5.26,13,5.59,19.72,6.18q13.62,1.19,27.3,1.65c5.14.18,10.29.25,15.43.28q.12-.51.24-1-6.48,0-13-.2-13.18-.39-26.32-1.43c-3.93-.31-7.9-.55-11.79-1.21A21.13,21.13,0,0,1,2.71,14.1c-.23-.17-.44-.35-.65-.54a219.06,219.06,0,0,0,35.76,4c6.23.26,12.47.41,18.7.56,2.38.06,4.75.09,7.13.13a.46.46,0,0,0-.33.45v11a.5.5,0,0,0,1,0v-11A.47.47,0,0,0,63.74,18.23Z"/><path class="cls-5" d="M123.61,13.56a3.38,3.38,0,0,0-.58-2.18h0a1.1,1.1,0,0,0,0-.18,4.46,4.46,0,0,0-1.61-2.94,12.37,12.37,0,0,0-6.18-2.86c-2.81-.6-5.69-.92-8.53-1.34C94.23,2.21,81.69.52,69.06.1,67.5,0,65.93,0,64.37,0a.5.5,0,0,0,0,1,277.17,277.17,0,0,1,36.71,3.24c3,.43,6,.88,9,1.33a38.37,38.37,0,0,1,7.37,1.49,9,9,0,0,1,3,1.66,5.42,5.42,0,0,1,1.45,1.84.5.5,0,0,0,.08,1,1.29,1.29,0,0,1-.3.47,5.63,5.63,0,0,1-1.64.92,17.65,17.65,0,0,1-2.08.72,34,34,0,0,1-3.33.73,6.52,6.52,0,0,1,.25,1,24.08,24.08,0,0,0,6-1.71,5.26,5.26,0,0,0,1.64-1.08A3.42,3.42,0,0,1,121,16.18,13.72,13.72,0,0,1,115.6,18l-.78.13a8.47,8.47,0,0,1-.28,1c.32-.05.65-.09,1-.15a17.61,17.61,0,0,0,5.41-1.64c-.06.16-.11.32-.16.47a.61.61,0,0,0-.46,0,17.46,17.46,0,0,1-5.78,1.34,4.6,4.6,0,0,1-.25.61c-.06.14-.11.28-.17.43h0a19.1,19.1,0,0,0,6.28-1.36c-.12.33-.23.66-.34,1a.45.45,0,0,0-.45-.11A17.92,17.92,0,0,1,114.88,21a.53.53,0,0,0-.5.5c0,.25.23.54.5.5a18.51,18.51,0,0,0,4.87-1.22,132.69,132.69,0,0,0-5,19.72q-1,5.9-1.49,11.87c-.33,4-.42,8.09-.72,12.13a58.78,58.78,0,0,1-2.1,12.14c-1.14,3.89-2.56,7.69-3.46,11.65-1.21,5.31-1.79,10.75-2.76,16.1a.48.48,0,0,0-.34-.14h-1.54a.51.51,0,0,0-.5.5.51.51,0,0,0,.5.5h1.54a.65.65,0,0,0,.19,0c-.07.38-.15.76-.23,1.14a.4.4,0,0,0-.22-.06h-.53l.15,0a.5.5,0,0,0,.3-.23.46.46,0,0,0,.05-.38.5.5,0,0,0-.61-.35l-1,.25a.5.5,0,0,0-.35.62.49.49,0,0,0,.34.33.55.55,0,0,0-.11.3.51.51,0,0,0,.5.5h1.31c-.34,1.54-.71,3.07-1.17,4.59a48.66,48.66,0,0,0-1.55,5.68,43.59,43.59,0,0,0-.43,6c-.11,3.35-.51,7.08-3.06,9.53a5.79,5.79,0,0,1-1.89,1.24.56.56,0,0,0-.27.76,21,21,0,0,1-7.65,3.07l0,0a.5.5,0,0,0,.06-.24,5.41,5.41,0,0,0,1.48-.3.53.53,0,0,0,.35-.62.52.52,0,0,0-.62-.35,4.36,4.36,0,0,1-3,.05.51.51,0,0,0-.62.35.48.48,0,0,0,.07.36v0a.36.36,0,0,0,0,.11.35.35,0,0,0-.17.06.49.49,0,0,0-.17.68,1.42,1.42,0,0,0,.29.31c-1.09.14-2.19.23-3.29.29a39.3,39.3,0,0,1,.35-9c.1-.63-.87-.9-1-.26a40.77,40.77,0,0,0-.38,9.3c-1.66.06-3.33.05-5,0-8.42-.12-16.84-.29-25.26-.43-4.77-.09-9.56-.08-14.32-.53-.64-.05-.64.95,0,1,4.3.41,8.63.43,13,.5l13,.23,12.87.22a70,70,0,0,0,10.54-.39,22.88,22.88,0,0,0,10.69-4,.52.52,0,0,0,.17-.61,9.7,9.7,0,0,0,4.41-6.5c.92-4,.24-8.12,1.22-12.09.47-2,1.16-3.85,1.69-5.78s.94-3.89,1.3-5.86c.73-4,1.22-8.09,1.93-12.12a89,89,0,0,1,3.06-11.81,67.66,67.66,0,0,0,2.92-12c.53-4.11.66-8.25.88-12.38s.6-8.2,1.19-12.28a132.24,132.24,0,0,1,5.72-23.78c.28-.82.57-1.63.86-2.44a.5.5,0,0,0,0-1h0l-.06,0A4.4,4.4,0,0,0,123.61,13.56Z"/><path class="cls-5" d="M44.93,6.67a6.18,6.18,0,0,1-1.55-.43A5.82,5.82,0,0,1,42,5.32a.51.51,0,0,0-.71,0,.5.5,0,0,0,0,.7,6.57,6.57,0,0,0,3.67,1.65.5.5,0,0,0,.5-.5A.51.51,0,0,0,44.93,6.67Z"/><path class="cls-5" d="M61,5.77a.52.52,0,0,0-.62-.35,5.25,5.25,0,0,1-4.12-1.1.52.52,0,0,0-.71,0,.73.73,0,0,0-.05.09l-3.92-.23a.5.5,0,0,0-.5.5.41.41,0,0,0,.08.24,7.76,7.76,0,0,1-3.92-.7.5.5,0,0,0-.68.18.49.49,0,0,0,.18.68l.2.08a4.52,4.52,0,0,1-1.75-.67.5.5,0,0,0-.68.18.5.5,0,0,0,.18.68,5.36,5.36,0,0,0,4,.78A.43.43,0,0,0,49,5.81a8.4,8.4,0,0,0,2.35.1.51.51,0,0,0,.5-.5.6.6,0,0,0-.06-.22l4.36.25a6.3,6.3,0,0,0,4.52.94A.49.49,0,0,0,61,5.77Z"/><path class="cls-5" d="M67.9,4.7l-4.59-.54a.44.44,0,0,0-.44.28c-.32-.07-.64-.16-1-.26a.51.51,0,0,0-.62.35.51.51,0,0,0,.35.61,10.31,10.31,0,0,0,4,.52A.55.55,0,0,0,66,5.48l1.92.22c.27,0,.5-.25.5-.5A.52.52,0,0,0,67.9,4.7Z"/><path class="cls-5" d="M71.22,5.46h-.09l-.1,0-.3-.08-.11,0-.06,0-.27-.15-.11-.08h0l0,0-.22-.21-.1-.11,0,0,0,0,0,0c-.06-.08-.11-.17-.16-.25a.49.49,0,0,0-.68-.18.5.5,0,0,0-.18.68,3,3,0,0,0,2.46,1.56.5.5,0,0,0,.5-.5A.51.51,0,0,0,71.22,5.46Z"/><path class="cls-5" d="M71.15,5.45Z"/><path class="cls-5" d="M69.8,4.67Z"/><path class="cls-5" d="M74.55,5.71h-.4l-.15,0-.08,0h0l0,0-.08,0-.14-.09-.07,0h0c-.07-.07-.15-.13-.22-.21l0,0a1.25,1.25,0,0,0-.08-.12,1.09,1.09,0,0,1-.08-.15l0-.08,0,0v0A2,2,0,0,1,73,4.51a.52.52,0,0,0-.23-.3.51.51,0,0,0-.38,0,.53.53,0,0,0-.3.23.59.59,0,0,0,0,.39,2.38,2.38,0,0,0,2.47,1.93.5.5,0,0,0,0-1Z"/><path class="cls-5" d="M73.13,4.87s0,0,0,0Z"/><path class="cls-5" d="M73.59,5.44c0-.06,0,0,0,0Z"/><path class="cls-5" d="M80.13,6.29a.52.52,0,0,0-.62-.35l-.1,0h-.63l-.19,0a2,2,0,0,1-.35-.1s-.17-.07-.07,0L78,5.72a2.07,2.07,0,0,1-.32-.19l-.06,0,0,0-.14-.12a3.58,3.58,0,0,1-.26-.29.5.5,0,0,0-.71,0,.52.52,0,0,0,0,.71A3.35,3.35,0,0,0,79.78,6.9.49.49,0,0,0,80.13,6.29Z"/><path class="cls-5" d="M86.29,5.72a21.1,21.1,0,0,1-3.55-.41c-.2,0-2.58-.53-2.37-.89a.5.5,0,0,0-.86-.51,1.14,1.14,0,0,0,.37,1.48,4.59,4.59,0,0,0,1.88.73,23,23,0,0,0,4.53.6C86.93,6.74,86.93,5.74,86.29,5.72Z"/><path class="cls-5" d="M92.65,7.06a2.44,2.44,0,0,1-.54,0H92L91.72,7l-.26-.08-.08,0-.09,0a4,4,0,0,1-.44-.27l0,0-.09-.07-.19-.19a1.12,1.12,0,0,1-.18-.2h0A1,1,0,0,0,90.25,6a1.55,1.55,0,0,1-.12-.22.41.41,0,0,1-.07-.11l0-.07a2.64,2.64,0,0,1-.15-.5.49.49,0,0,0-.61-.34.5.5,0,0,0-.35.61,3.5,3.5,0,0,0,3.72,2.73.52.52,0,0,0,.5-.5C93.14,7.31,92.93,7,92.65,7.06Z"/><path class="cls-5" d="M102.5,7.79a7,7,0,0,1-1.43-.39l-.16-.07-.08,0-.36-.17-.64-.37a.5.5,0,0,0-.68.17h0L99,6.86c-.06,0-.06,0,0,0l-.1,0-.35-.17a7,7,0,0,1-.68-.43.5.5,0,0,0-.68.18.51.51,0,0,0,.18.69,6.76,6.76,0,0,0,3.27,1.19h0a7.93,7.93,0,0,0,1.64.49.5.5,0,1,0,.27-1Z"/><path class="cls-5" d="M106.46,7.5h-.2l-.1,0-.36-.1-.1,0h0l-.17-.08a1.85,1.85,0,0,1-.33-.21l-.07,0s0,0,0,0a1,1,0,0,1-.15-.14,1.73,1.73,0,0,1-.26-.28h0l-.07-.09-.09-.16-.09-.16a.2.2,0,0,0,0-.08V6a.52.52,0,0,0-.61-.35.51.51,0,0,0-.35.62,3.37,3.37,0,0,0,3,2.19.5.5,0,0,0,0-1Z"/><path class="cls-5" d="M114.86,8.08a.5.5,0,0,0-.23-.3L112.84,7a.56.56,0,0,0-.38,0,.5.5,0,0,0-.3.23.53.53,0,0,0,0,.39.5.5,0,0,0,.23.3l1.79.76a.56.56,0,0,0,.38,0,.5.5,0,0,0,.3-.23A.53.53,0,0,0,114.86,8.08Z"/><path class="cls-5" d="M118.48,9.54l-2.59-1.72a.5.5,0,1,0-.51.86l2.6,1.73a.5.5,0,0,0,.68-.18A.52.52,0,0,0,118.48,9.54Z"/><path class="cls-5" d="M40,119.29a.53.53,0,0,0-.3-.23h-.13a.58.58,0,0,0-.26.06l-.51.26a.43.43,0,0,0-.14.13.46.46,0,0,0-.09.17.44.44,0,0,0,0,.2.55.55,0,0,0,.06.18.52.52,0,0,0,.3.23l.14,0a.45.45,0,0,0,.25-.07l.51-.25a.44.44,0,0,0,.14-.13.56.56,0,0,0,.09-.17.45.45,0,0,0,0-.2A.6.6,0,0,0,40,119.29Z"/><path class="cls-5" d="M50,118.39a.52.52,0,0,0-.62-.35l-1,.26a.5.5,0,0,0-.3.23.5.5,0,0,0,0,.38.51.51,0,0,0,.62.35l1-.25a.57.57,0,0,0,.3-.23A.59.59,0,0,0,50,118.39Z"/></g></g></svg>