<svg xmlns="http://www.w3.org/2000/svg" viewBox="0 0 83.96 73.51"><defs><style>.cls-1{fill:#231f20;}</style></defs><g id="Layer_2" data-name="Layer 2"><g id="Layer_4" data-name="Layer 4"><path class="cls-1" d="M23.42,67.11h0v0l0,0Z"/><path class="cls-1" d="M22.66,66.63h0Z"/><path class="cls-1" d="M23.38,67.67h0Z"/><path class="cls-1" d="M25.38,62a.49.49,0,0,0-.7,0A37.17,37.17,0,0,0,22,65.62l-.23,0a1.33,1.33,0,0,0-1.28.16,1.55,1.55,0,0,0-.6,1.68A2.09,2.09,0,0,0,21,68.75a3.74,3.74,0,0,0,2.34.09.47.47,0,0,0,.25-.19h.06a1.21,1.21,0,0,0,.82-.94,1.75,1.75,0,0,0-.23-1.22,1.83,1.83,0,0,0-1.11-.77,37.51,37.51,0,0,1,2.27-3A.49.49,0,0,0,25.38,62Zm-2,5.12h0s0,0,0,0v0a.84.84,0,0,1,0,.17v0h0v.13h0s0,0,0,.07v0s0,0,0,.05h0l0,0h-.22l-.09,0s-.14-.06-.16-.05l-.09,0a2,2,0,0,1-.32-.18.5.5,0,0,0-.73.56l-.16,0-.18-.06c.12,0,0,0-.07,0l-.14-.09-.05,0a2.28,2.28,0,0,1-.22-.22l-.05-.06a.75.75,0,0,0-.07-.12h0v0a.61.61,0,0,1,0-.11V67.1a.35.35,0,0,0,.11,0,.42.42,0,0,0,.39-.22.67.67,0,0,0,.31.07.6.6,0,0,0,.4-.18.47.47,0,0,0,.44-.18h.21l.13,0,.13,0,.08,0h0l.22.12h0a.6.6,0,0,1,.08.08v0l.05.06,0,0Z"/><path class="cls-1" d="M51.69,64.89a2.44,2.44,0,0,0-1.46-.06l-.1-.1v0l-.06-.08-.1-.14c-.06-.11-.12-.21-.17-.32s0-.1-.08-.16h0a.49.49,0,0,0,0-.11,4,4,0,0,1-.17-.68h0s0-.06,0-.09a1.27,1.27,0,0,1,0-.2c0-.12,0-.25,0-.38A.51.51,0,0,0,49,62a.51.51,0,0,0-.5.5,4,4,0,0,0,.79,2.68,10.35,10.35,0,0,0-1.19.81.57.57,0,0,0-.23.34l-.07,0h-.07a.61.61,0,0,0-.36.15.52.52,0,0,0-.14.35.52.52,0,0,0,.14.36l.06,0a1.44,1.44,0,0,0,0,1c.45,1.08,1.79,1.26,2.8,1.07a4,4,0,0,0,2.74-1.93A1.91,1.91,0,0,0,51.69,64.89Zm0,2.63a3.26,3.26,0,0,1-1,.69,2.34,2.34,0,0,1-2,.07.7.7,0,0,1-.3-.29.35.35,0,0,1,0-.3.69.69,0,0,1,.21-.31s0,0,0,0l.07,0h0c-.09,0,.06,0,.07,0a.51.51,0,0,0,.62-.35.44.44,0,0,0,0-.3l0,0a.49.49,0,0,0,.12-.46,2.75,2.75,0,0,1,1.41-.51,1.36,1.36,0,0,1,.86.28.93.93,0,0,1,.4.62A1.22,1.22,0,0,1,51.67,67.52Z"/><path class="cls-1" d="M63.73,24.76a5,5,0,0,0-1.21-1.39A15.79,15.79,0,0,0,61,22L60.87,22c2.59-1.47,2.76-5.19,1.37-7.58-2-3.42-6.52-4.26-10.09-4.84a78.44,78.44,0,0,0-14.52-1q-3.71.09-7.38.54c-2.06.25-4.29.48-6,1.73-3.28,2.37-3.53,6.9-3.55,10.6a.5.5,0,0,0,1,0c0-3,.09-6.7,2.28-9a8.14,8.14,0,0,1,5-2.12c2.18-.32,4.37-.52,6.57-.63a76,76,0,0,1,13.32.45,54.63,54.63,0,0,1,6.1,1,12.34,12.34,0,0,1,4.93,2.16,5.55,5.55,0,0,1,2.19,4.26,3.83,3.83,0,0,1-2,3.72.54.54,0,0,0-.18.14,5.89,5.89,0,0,0-2.22-.7,4.21,4.21,0,0,0-3.46,1.18c-.45.46.26,1.17.7.7a3.41,3.41,0,0,1,3.25-.8,7.32,7.32,0,0,1,3.3,2q.36.35.72.72c.12.11.59.48.57.67s-.6.55-.74.66-.56.45-.85.66a19.51,19.51,0,0,1-2.14,1.32c-1.47-2-3.79-3.13-5.61-4.78s-3.74-3.55-6.19-4.59c-4.43-1.86-9.57-1.36-14,.35A25.74,25.74,0,0,0,30,20.33a.5.5,0,0,0,.5.87,21.93,21.93,0,0,1,10-2.95.6.6,0,0,0,0,.2c0,.41.06.82.08,1.23a.44.44,0,0,0-.3.06.51.51,0,0,0-.18.68,1,1,0,0,1,.07.15l0,0c0,.09.07.19.1.28a2.77,2.77,0,0,1,.12.41l-.09.27a.49.49,0,0,0,.13.47,14.73,14.73,0,0,1-.56,2.62.47.47,0,0,0,.54.61.53.53,0,0,0,.9-.16,13.37,13.37,0,0,0,.5-3.82c.06-.24.13-.49.2-.74a.5.5,0,0,0-.15-.48l.17-.53a.51.51,0,0,0-.35-.62.41.41,0,0,0-.11,0c0-.2-.06-.4-.1-.6l0,0a17.69,17.69,0,0,1,2.41.22,13.33,13.33,0,0,1,6.26,2.88c1,.82,1.88,1.73,2.84,2.59a36.11,36.11,0,0,0,3,2.31,9.73,9.73,0,0,1,2.09,2c-.24.12-.47.25-.71.35-.59.25-.08,1.12.5.87.27-.12.52-.26.78-.38a9.41,9.41,0,0,1,1.07,2.71A24.47,24.47,0,0,1,60,38.7c-.28,4.72-.63,9.77-3,14a15.82,15.82,0,0,1-4.35,4.79l-.19-.29a.58.58,0,0,0-.3-.23.34.34,0,0,0-.2,0,.35.35,0,0,0-.18,0,.51.51,0,0,0-.18.69l.25.39a37.19,37.19,0,0,1-6.6,3.48A21.89,21.89,0,0,1,38,63.41a19,19,0,0,1-6.28-.73,19.26,19.26,0,0,1-10.44-7.26,21.25,21.25,0,0,1-3.66-13l1.08-.12a4.79,4.79,0,0,0,1.36-.08l.14,0a.52.52,0,0,0,.69-.17.6.6,0,0,0,.06-.22l0-.07H21a.5.5,0,0,0-.27-1,5.36,5.36,0,0,1-.9.21,4.69,4.69,0,0,0-2.14-.18A22.8,22.8,0,0,1,23.3,28.1a23.24,23.24,0,0,1,11.73-7,22,22,0,0,1,3.42-.56c.64-.05.64-1.05,0-1a24.13,24.13,0,0,0-10.86,3.69h0a1.85,1.85,0,0,1-1.13-.77,5.31,5.31,0,0,0-1.17-1.05,1.93,1.93,0,0,0-1.75-.08,19.38,19.38,0,0,0-2.26,1.29L18.83,24c-.62.37-1.24.74-1.16,1.57a4.58,4.58,0,0,0,2.45,3.21c.57.31,1.07-.56.51-.86a3.92,3.92,0,0,1-1.39-1.2c-.24-.33-.81-1.16-.45-1.52a4.49,4.49,0,0,1,.87-.53l1-.61,2-1.19c.47-.28,1.13-.85,1.71-.77a1.92,1.92,0,0,1,1,.71,6.32,6.32,0,0,0,1.15,1.05c-.5.34-1,.71-1.44,1.09A23.53,23.53,0,0,0,17.3,37.51a24.16,24.16,0,0,0-.63,4.22.45.45,0,0,0-.1.28.43.43,0,0,0,.08.24,23,23,0,0,0,2,10.45,19.73,19.73,0,0,0,9.7,9.76,20.1,20.1,0,0,0,13.41,1.38,36.16,36.16,0,0,0,7.76-3.17,23.53,23.53,0,0,0,6.25-4.53c3.53-3.77,4.59-8.93,5.06-13.9a56.6,56.6,0,0,0,.34-7.47,13.74,13.74,0,0,0-1.51-6.13,17.75,17.75,0,0,0,1.91-1.17c.54-.38,1.07-.79,1.58-1.23S64,25.4,63.73,24.76Z"/><path class="cls-1" d="M38.32,59.39c0-.12,0-.23,0-.34a.51.51,0,0,0-1-.13l-1,3.41a.52.52,0,0,0,0,.25l0,.1a.49.49,0,0,0,.91.37.5.5,0,0,0,.54-.36,9.35,9.35,0,0,0,.52-2.51l.14-.34A.42.42,0,0,0,38.32,59.39Z"/><path class="cls-1" d="M58.62,43.37l-3-.16a.42.42,0,0,0-.46.32l-2.53.12a.5.5,0,0,0,0,1h5.29a.44.44,0,0,0,.43-.28h.26A.5.5,0,0,0,58.62,43.37Z"/><path class="cls-1" d="M30.33,25.64a.71.71,0,0,0-.13-.22l-.51-.51a.39.39,0,0,0-.16-.1.34.34,0,0,0-.2,0,.33.33,0,0,0-.19,0,.39.39,0,0,0-.16.1.53.53,0,0,0-.15.36l0,.13a.61.61,0,0,0,.13.22l.51.51a.39.39,0,0,0,.16.1.34.34,0,0,0,.19.05.35.35,0,0,0,.2-.05.39.39,0,0,0,.16-.1.46.46,0,0,0,.14-.35Z"/><path class="cls-1" d="M24.13,31.15l-.76-1a.44.44,0,0,0-.13-.14.56.56,0,0,0-.17-.09.5.5,0,0,0-.57.74l.77,1a.35.35,0,0,0,.13.14.46.46,0,0,0,.17.09.5.5,0,0,0,.38-.05.46.46,0,0,0,.23-.3A.49.49,0,0,0,24.13,31.15Z"/><path class="cls-1" d="M54.53,27.06a.5.5,0,0,0-.68-.18,14.26,14.26,0,0,1-1.33.85c-.23.12-.46.24-.7.35l-.18.08-.12.06-.36.14a.51.51,0,0,0-.35.61.5.5,0,0,0,.61.35,12.37,12.37,0,0,0,2.93-1.58A.5.5,0,0,0,54.53,27.06Z"/><path class="cls-1" d="M57.93,31.66a.5.5,0,0,0,0,1A.5.5,0,0,0,57.93,31.66Z"/><path class="cls-1" d="M23.91,51.59a.51.51,0,0,0-.68-.18L21.4,52.64a.5.5,0,1,0,.51.86l1.82-1.22A.52.52,0,0,0,23.91,51.59Z"/><path class="cls-1" d="M27.47,55.91a.5.5,0,0,0-.3-.23l-.13,0a.48.48,0,0,0-.26.07l-.51.25a.44.44,0,0,0-.14.13.56.56,0,0,0-.09.17.46.46,0,0,0,0,.2.6.6,0,0,0,.06.19.57.57,0,0,0,.3.23l.14,0a.72.72,0,0,0,.25-.07l.51-.26a.35.35,0,0,0,.14-.13.46.46,0,0,0,.09-.17.44.44,0,0,0,0-.2A.55.55,0,0,0,27.47,55.91Z"/><path class="cls-1" d="M49.48,58.58a.61.61,0,0,0-.13-.22l-.26-.26a.44.44,0,0,0-.16-.1.47.47,0,0,0-.38,0,.48.48,0,0,0-.17.1l-.07.11a.43.43,0,0,0-.07.25l0,.13a.43.43,0,0,0,.12.22l.26.26a.39.39,0,0,0,.16.1.31.31,0,0,0,.19,0,.34.34,0,0,0,.2,0,.39.39,0,0,0,.16-.1l.08-.1a.58.58,0,0,0,.06-.26Z"/><path class="cls-1" d="M41.08,34.67h-.15s0,0,0,0a.8.8,0,0,1-.18-.25,2.07,2.07,0,0,1-.13-.85,3.36,3.36,0,0,0-.31-1.93,1.23,1.23,0,0,0-.81-.58A1.25,1.25,0,0,0,39,31a.49.49,0,0,0-.83-.45l-2.94,2.31a.5.5,0,0,0,.6.79l2.69-1.4a2,2,0,0,1,.25-.14,66.57,66.57,0,0,0-1.4,9.2c0,.64,1,.64,1,0a66.7,66.7,0,0,1,1.21-8.2,5,5,0,0,0,.08,1.34,1.4,1.4,0,0,0,1.38,1.19.5.5,0,0,0,0-1Z"/><path class="cls-1" d="M32.66,53.21c2.13-3.3,2.5-7.63,5.35-10.47A.5.5,0,0,0,37.3,42c-2.91,2.91-3.32,7.25-5.47,10.62l-.48-.85a.5.5,0,0,0-.86.51l.8,1.42c.26.47.56,1.19,1.23,1a2.61,2.61,0,0,0,.68-.36l.63-.41a14.91,14.91,0,0,0,1.24-1,.51.51,0,0,0,0-.7.5.5,0,0,0-.71,0,10.44,10.44,0,0,1-1.94,1.43l0,0-.12-.22A.5.5,0,0,0,32.66,53.21Z"/><path class="cls-1" d="M14.14,30.83a1.3,1.3,0,0,0-1.5-.38.54.54,0,0,0-.31.65,21.26,21.26,0,0,0-2.69,1c-.47.22-1.22.45-1.45,1a1,1,0,0,0,.42,1.18,6.23,6.23,0,0,0,1.89.6,4.65,4.65,0,0,0,.59.15l.12,0a4.84,4.84,0,0,0-.74.69L6.92,39a.51.51,0,0,0,.23.84l1.76.72.88.36a3.2,3.2,0,0,1,.85.36c.53.42-.33,1.37-.6,1.79l-1,1.56c-.56.88-1.17,1.66-.74,2.72a6.05,6.05,0,0,1,.6,3.52.52.52,0,0,0,.35.62l2.59.47c.62.11.89-.85.26-1L9.94,50.6a6.13,6.13,0,0,0-.47-3.13,1.57,1.57,0,0,1-.27-1.08,3.71,3.71,0,0,1,.53-1l1.24-2c.54-.85,1.48-2.17.32-3a9.69,9.69,0,0,0-1.68-.73l-1.42-.58,2.64-2.41c.54-.5,2.36-1.7,1.19-2.49a6,6,0,0,0-1.73-.51,4.22,4.22,0,0,1-1-.28c0-.14.55-.36.68-.42a20.94,20.94,0,0,1,4-1.41A.51.51,0,0,0,14.14,30.83Z"/><path class="cls-1" d="M68.36,41.55l3.45-1.83a.5.5,0,0,0,0-.86L69.44,37.7a11.16,11.16,0,0,1-1.87-.92l2.27,0a.5.5,0,0,0,.35-.85,51.29,51.29,0,0,1-3.87-3.79c-.44-.48-1.15.23-.71.71.93,1,1.91,2,2.92,2.9l-1.71,0a.48.48,0,0,0-.48.36c-.16,1,.71,1.51,1.52,1.91l2.6,1.27-2.39,1.26c-.72.38-1.89.75-2.23,1.56a4.51,4.51,0,0,0,.34,2.79,10,10,0,0,0,.54,1.31c.23.48.57.9.81,1.37.32.68-.67,1.09-1,1.52-.6.67-.42,1.3-.37,2.13A2.82,2.82,0,0,1,62.72,54a.5.5,0,0,0-.27,1,3.81,3.81,0,0,0,4.17-1.83,3.41,3.41,0,0,0,.45-2.25c-.07-.55-.11-.84.3-1.23.25-.23.54-.42.77-.67a1.51,1.51,0,0,0,.2-2A11.55,11.55,0,0,1,67,44c-.13-.49-.46-1.34,0-1.73A7.92,7.92,0,0,1,68.36,41.55Z"/><path class="cls-1" d="M14,16.76A19.07,19.07,0,0,0,10.33,15a.5.5,0,1,0-.26,1,17.83,17.83,0,0,1,3.38,1.63.5.5,0,0,0,.68-.18A.51.51,0,0,0,14,16.76Z"/><path class="cls-1" d="M39.26,1.64,38.75.37a.53.53,0,0,0-.23-.3.5.5,0,0,0-.38,0,.5.5,0,0,0-.3.23.46.46,0,0,0-.05.38l.51,1.28a.53.53,0,0,0,.23.3.51.51,0,0,0,.38,0,.53.53,0,0,0,.3-.23A.48.48,0,0,0,39.26,1.64Z"/><path class="cls-1" d="M58.19,3.83a.5.5,0,0,0,0,1A.5.5,0,0,0,58.19,3.83Z"/><path class="cls-1" d="M79.61,21.07a.52.52,0,0,0-.62-.35l-3.83.77a.5.5,0,0,0,.27,1l3.83-.77A.52.52,0,0,0,79.61,21.07Z"/><path class="cls-1" d="M5.33,30.89H4.61a1.46,1.46,0,0,1,.11-.41.36.36,0,0,1,0-.09.53.53,0,0,0,0-.39.52.52,0,0,0-.23-.3.51.51,0,0,0-.68.18,2.61,2.61,0,0,0-.31,1.5.47.47,0,0,0,.15.35.49.49,0,0,0,.35.15l1.24,0a.49.49,0,0,0,.5-.5A.51.51,0,0,0,5.33,30.89Z"/><path class="cls-1" d="M.48,49.28a.5.5,0,0,0,0,1A.5.5,0,0,0,.48,49.28Z"/><path class="cls-1" d="M15.51,61.49a30.4,30.4,0,0,1-7.66,5.13c-.58.27-.08,1.13.5.86a31.2,31.2,0,0,0,7.87-5.28C16.69,61.76,16,61.05,15.51,61.49Z"/><path class="cls-1" d="M38.78,72.51a.5.5,0,0,0,0,1A.5.5,0,0,0,38.78,72.51Z"/><path class="cls-1" d="M71.35,68.41a13.78,13.78,0,0,1-5.41-3.92.49.49,0,0,0-.7.7,14.7,14.7,0,0,0,5.85,4.18A.5.5,0,0,0,71.7,69,.51.51,0,0,0,71.35,68.41Z"/><path class="cls-1" d="M83.46,34.21a16.18,16.18,0,0,1-5.23-.49.5.5,0,0,0-.26,1,16.66,16.66,0,0,0,5.49.53.51.51,0,0,0,.5-.5A.5.5,0,0,0,83.46,34.21Z"/><path class="cls-1" d="M80,45.59a.54.54,0,0,0-.34-.14h0a2.37,2.37,0,0,1-.46-.11l-.11,0h0l-.22-.11-.19-.13,0,0L78.55,45c0-.05-.11-.1-.16-.16l-.08-.09,0,0h0a.57.57,0,0,0-.3-.22.5.5,0,0,0-.56.73,3.1,3.1,0,0,0,1,.88,3,3,0,0,0,1.25.39A.5.5,0,0,0,80,46.3a.52.52,0,0,0,.14-.36A.52.52,0,0,0,80,45.59Z"/></g></g></svg>