<svg xmlns="http://www.w3.org/2000/svg" viewBox="0 0 123.62 139.95"><defs><style>.cls-1,.cls-5{fill:#7f3913;}.cls-1{opacity:0.78;}.cls-2,.cls-4{fill:#ffe4b2;}.cls-2,.cls-3{opacity:0.3;}.cls-3{fill:#ffecd6;}.cls-4,.cls-5{opacity:0.34;}.cls-6{fill:#231f20;}</style></defs><g id="Layer_2" data-name="Layer 2"><g id="Layer_10" data-name="Layer 10"><path class="cls-1" d="M102.83,78.4a4.08,4.08,0,0,0-3-3.72,9.39,9.39,0,0,1-2.19.56.65.65,0,0,1-.45-.13c-1.66,0-3.32-.49-5-.38a.82.82,0,0,1-.85-.88c-1-.06-1.94-.11-2.92-.14s-2.2.11-3.3.13a26.26,26.26,0,0,1-4-.19c-1.64-.07-3.29-.13-4.93-.18a19.42,19.42,0,0,1-4.1.07,3.89,3.89,0,0,0-.6.22l-2,0v0q-.12.42-.21.84a.75.75,0,0,1,.55,1,21.7,21.7,0,0,0-1,3.64c0,2,.17,4.11.33,6.17,0,0,0,.1,0,.17v.5c.09,1.2.16,2.39.17,3.58a.79.79,0,0,1-.28.64c-.19,2.69-.54,5.38-.78,8.06-.15,1.75-.29,3.5-.5,5.25a.82.82,0,0,1,.37.69,53.84,53.84,0,0,1-2.51,14.1c0,1.09.14,2.36.88,2.84a.9.9,0,0,1,.14,1.38c.59,0,1.18,0,1.77,0,3.16.13,6.31.77,9.47.57a25.63,25.63,0,0,0,5.66-1.51A4.18,4.18,0,0,0,88.4,120c4.31-6.57,7.4-14.33,10.55-21.51a42.89,42.89,0,0,0,3.11-12.29A19.76,19.76,0,0,0,102.83,78.4Z"/><path class="cls-2" d="M106.35,61.68l0-.31c0-.06,0-.12,0-.19a6.24,6.24,0,0,0,.13-2.19,6.37,6.37,0,0,0-.18-.91c.13-.2.26-.4.38-.62,1.6-2.71.07-5.35-2.33-6.3a4.11,4.11,0,0,0-1-.89,3.92,3.92,0,0,0,2.73-2l.09-.15a5.52,5.52,0,0,0,.47-1.28,8.56,8.56,0,0,0,.53-1.33,14.47,14.47,0,0,1-4.82.75c-2,.09-4,.32-6,.43-5.6.31-11.2.05-16.8-.17a52.92,52.92,0,0,1-6.54-.55c-1.17-.19-2.82-.45-3.68-1.43a.65.65,0,0,1-.06.34l0-.05,0,.05a0,0,0,0,1,0,0s0,0,0,.06a.36.36,0,0,0,0,.09.93.93,0,0,1,.27.71.91.91,0,0,1,.21.54,34.19,34.19,0,0,1-.34,3.91,1,1,0,0,1-.26.63c0,1.94,0,3.88.09,5.82.07,3.3-.18,6.62,0,9.92.12,2.09.52,4.74,3,5.19,1.95.35,4-.13,6-.14,0-.91,1.48-1.22,1.71-.2,0,0,0,0,.1.09a2.69,2.69,0,0,0,.71.26,11.24,11.24,0,0,0,2.31.29,56.31,56.31,0,0,0,6.75-.19c3.87-.27,7.71-.88,11.57-1.1a.76.76,0,0,1,.81.53,5.17,5.17,0,0,1,1.58-.53.86.86,0,0,1,.77.46,5.38,5.38,0,0,0,1.12-2.89,5.14,5.14,0,0,0,1.08-1.8,6.19,6.19,0,0,0,.38-3.13A4.73,4.73,0,0,0,106.35,61.68Z"/><path class="cls-2" d="M92.16,74.73a.84.84,0,0,1-.76-1.24c-2.1.18-4.2.32-6.31.35a21.62,21.62,0,0,1-4.75-.32,4.44,4.44,0,0,1-1.56-.62.82.82,0,0,1-.75.47c-2.23,0-4.67.59-6.87,0a4.2,4.2,0,0,1-1.44-.7,2,2,0,0,1-.1.21l-.17.24a.85.85,0,0,1,.08.64c-.08.28-.13.57-.19.85a.78.78,0,0,1,.57.59A132.75,132.75,0,0,0,92.64,75l1.72-.18A12.43,12.43,0,0,0,92.16,74.73Z"/><path class="cls-3" d="M110.31,26.68l0-.23a4,4,0,0,0-1.09-2.93c.28-2.43-1.14-5.08-4.3-5.05q-18.52.21-37.06.3a.85.85,0,0,1,.15.44c0,.34,0,.69.06,1a.88.88,0,0,1,.09,1.61c.1,1.51.22,3,.41,4.52.24,1.82.66,3.61.9,5.44a28.88,28.88,0,0,1,.35,3.48,1.41,1.41,0,0,1-.27,1,10.63,10.63,0,0,1,.16,1.48.83.83,0,0,1-.53.78c.14,1.44.33,2.87.46,4.32a.77.77,0,0,1,.8.41c.23.41,1.26.62,1.78.74a25.28,25.28,0,0,0,3.58.5c2.43.2,4.86.24,7.3.31,3.67.11,7.33.29,11,.16,2.24-.08,4.47-.27,6.71-.45,1.87-.14,3.94.07,5.68-.73a.91.91,0,0,1,.91.09c.13-.73.2-1.47.27-2.25a3.93,3.93,0,0,0,.41-.69,36.69,36.69,0,0,0,3.22-10.16A5,5,0,0,0,110.31,26.68Z"/></g><g id="Layer_14" data-name="Layer 14"><path class="cls-4" d="M66.83,74a.62.62,0,0,1,.18-.42h0a.8.8,0,0,1,.13-.13l.37-.41a2.07,2.07,0,0,0,.27-.45l0,0a.78.78,0,0,1,.16-.24,7.18,7.18,0,0,1-1.4-3.46c-.56-3.64-.11-7.42-.17-11.09-.06-2.89-.18-5.76,0-8.63a.62.62,0,0,1,0-.13c0-.9.15-1.8.28-2.7l0,0-.06-.14,0-.16a1.69,1.69,0,0,1,.08-.5c0-.11.09-.22.14-.33a1.14,1.14,0,0,0,.09-.26.66.66,0,0,1,.28-.36h0A1.06,1.06,0,0,1,67,44.1c-.17-2.5-.67-5-.68-7.49a.92.92,0,0,1,.22-.57.92.92,0,0,1,.09-.23c-.22-1.15-.46-2.3-.69-3.46s-.42-2.18-.54-3.29a2.28,2.28,0,0,1,.31-1.9,40.42,40.42,0,0,0-1.14-7.82q-24.26.12-48.51.1c-3.3,0-5.75,3.86-3.89,6.77a8.42,8.42,0,0,0,1.09,1.32,4.86,4.86,0,0,0,.07,1.6C14.41,34.4,14.76,42,17.83,46.58a8.1,8.1,0,0,0,2,2,3.72,3.72,0,0,0,3.65,2.68l-.48.2a3.89,3.89,0,0,0-1.24.85,4.07,4.07,0,0,0-1.48,4.91,3.78,3.78,0,0,0-1.38,3.34l.26,3.62a6.11,6.11,0,0,0,.24,1.19,12.63,12.63,0,0,0,3.06,9,3.78,3.78,0,0,0,4,1.22,4.43,4.43,0,0,0,5.76-1.73c3.31.68,7.22.19,10.17.15,5.65-.08,11.26-.65,16.89-.93a5,5,0,0,0,3.41,2.09c1.11.14,2.23.25,3.34.36,0-.14,0-.28,0-.42a.77.77,0,0,1,.78-.85,1.82,1.82,0,0,0,.07-.25ZM38.05,50.41A4.38,4.38,0,0,0,36.89,50l2.34-.17A2.47,2.47,0,0,0,38.05,50.41Z"/><path class="cls-5" d="M62.57,118.51a.73.73,0,0,1-.1-.45c0-.18,0-.35.07-.53v0a21.61,21.61,0,0,1,.58-5.31.88.88,0,0,1-.13-.44,56.84,56.84,0,0,1,.61-7.13c.12-1.12.25-2.24.38-3.36s.25-2.17.31-3.26a.88.88,0,0,1-.08-.61c.06-.23.11-.47.15-.7a19.67,19.67,0,0,1,.37-3.9.77.77,0,0,1,.2-.38c.11-1.58.14-3.17.16-4.76a.74.74,0,0,1-.23-.58c.1-.85.2-1.71.29-2.56a41.43,41.43,0,0,1,.43-5.11,44,44,0,0,0,0-5.26.76.76,0,0,1,.79-.85v0c-.57,0-1.15,0-1.72-.09a3.61,3.61,0,0,0-2.87-1.38l-25.52.11a4.67,4.67,0,0,0-1-.09l-2.58.1h-.16a4,4,0,0,0-2,.6C28.17,71,24.08,72,24,75.68a18,18,0,0,0,.41,4.2,5.39,5.39,0,0,0-.05.6,47.77,47.77,0,0,0,1.53,10.8c.57,2.68,1.25,5.33,2,8a47,47,0,0,0,2.54,12A63.51,63.51,0,0,0,33,118.41a3.5,3.5,0,0,0,2.8,4.2,12.24,12.24,0,0,0,6.35-.43l.32-.12a4.2,4.2,0,0,0,1.81.37A41.51,41.51,0,0,0,50,122c2.16.18,4.41.54,6.08.51,2.65-.07,5.3-.23,8-.25A5,5,0,0,1,62.57,118.51Z"/></g><g id="Layer_13" data-name="Layer 13"><path class="cls-6" d="M106.29,16.5,78.51,9.41a.51.51,0,0,0-.59.68l0,0a24.36,24.36,0,0,1-4.41,4.55C71.87,16,70,17,68.62,18.54a.52.52,0,0,0,.08.75.65.65,0,0,0,0,.24c-.91,4.81-.16,9.79.26,14.62l.33,3.77a17.27,17.27,0,0,0,.38,3.22c.56,1.93,2.59,2.53,4.34,3,.63.16.9-.81.27-1a9.74,9.74,0,0,1-2.54-.91,2.79,2.79,0,0,1-1.28-2.41c-.22-2.22-.39-4.44-.58-6.66-.38-4.36-1-8.86-.24-13.22a165,165,0,0,0,29.4-.37c2.28-.23,4.74-.39,6.65-1.8a.53.53,0,0,0,.2-.34l.11,0A.5.5,0,0,0,106.29,16.5Zm-7,2.06c-2.41.25-4.82.44-7.24.59q-7.32.44-14.65.22-3.89-.12-7.77-.42a45.21,45.21,0,0,1,4.69-3.68,26,26,0,0,0,4.43-4.65.31.31,0,0,0,0-.1l26,6.64A12.65,12.65,0,0,1,99.3,18.56Z"/><path class="cls-6" d="M98.42,43.15a94.8,94.8,0,0,1-18.52.78c-.64,0-.64,1,0,1a95.88,95.88,0,0,0,18.78-.81C99.32,44,99.05,43.06,98.42,43.15Z"/><path class="cls-6" d="M107.57,17.64a.5.5,0,0,0-1,.27,38.62,38.62,0,0,1,1.16,9,.5.5,0,0,0,1,0A40.47,40.47,0,0,0,107.57,17.64Z"/><path class="cls-6" d="M109.68,30.21a.5.5,0,0,0-.86.5c.68,1.18.35,2.58.07,3.83-.33,1.45-.68,2.89-1.06,4.33s-.72,2.79-1.17,4.15c-.25.74-.67.64-1.3.45a2.76,2.76,0,0,0-1.45-.1.5.5,0,0,0,.26,1c.58-.15,1.18.24,1.76.29a1.46,1.46,0,0,0,1.39-.64,7.71,7.71,0,0,0,.7-2.06c.25-.85.49-1.7.71-2.56.44-1.66.86-3.33,1.22-5A5.69,5.69,0,0,0,109.68,30.21Z"/><path class="cls-6" d="M79.27,46.62c-1.59,0-3.18,0-4.77-.09a5.8,5.8,0,0,1-2.06-.44,9.86,9.86,0,0,0-2-.68c-.63-.11-.9.85-.26,1a9.41,9.41,0,0,1,2,.69,6.68,6.68,0,0,0,2.16.46c1.64.08,3.29.07,4.94.1A.5.5,0,0,0,79.27,46.62Z"/><path class="cls-6" d="M97.49,45.92a49.14,49.14,0,0,1-13.36,1c-.65,0-.64,1,0,1a50.33,50.33,0,0,0,13.63-1C98.39,46.75,98.12,45.79,97.49,45.92Z"/><path class="cls-6" d="M107.19,45.71a.52.52,0,0,0-.61-.35l-3.06.54a.5.5,0,0,0,.26,1l3.06-.54A.51.51,0,0,0,107.19,45.71Z"/><path class="cls-6" d="M72,70c-.86.52-1.68-.35-1.93-1.13A10.71,10.71,0,0,1,69.71,66c-.09-2.12,0-4.24.05-6.35.15-4.26.32-8.52.48-12.78,0-.64-1-.64-1,0-.19,4.91-.42,9.82-.55,14.73a34.63,34.63,0,0,0,.25,7,3.18,3.18,0,0,0,1.31,2.2,2.09,2.09,0,0,0,2.24.09A.5.5,0,0,0,72,70Z"/><path class="cls-6" d="M95.75,69.1a98.9,98.9,0,0,1-21.46,1.25c-.65,0-.65,1,0,1A100,100,0,0,0,96,70.07C96.64,70,96.38,69,95.75,69.1Z"/><path class="cls-6" d="M105.77,48.06c-.07,4.86-.13,9.72-.21,14.58,0,2-.11,4.38-1.64,5.93a3.3,3.3,0,0,1-2.53,1.07c-.82,0-1.64-.25-2.27.41-.44.47.26,1.18.7.71s1-.18,1.4-.14a3.68,3.68,0,0,0,1.36-.11,4.54,4.54,0,0,0,2.17-1.37c1.46-1.58,1.74-3.77,1.8-5.83.14-5.08.15-10.17.22-15.25A.5.5,0,0,0,105.77,48.06Z"/><path class="cls-6" d="M103.85,72.1C100.21,74,96.08,74.39,92,74.48A116.47,116.47,0,0,1,78.7,74c-2.55-.24-5.1-.57-7.63-1-.63-.1-.9.86-.27,1A119.9,119.9,0,0,0,84.56,75.4,67.48,67.48,0,0,0,97.74,75,21.36,21.36,0,0,0,104.36,73C104.93,72.67,104.42,71.8,103.85,72.1Z"/><path class="cls-6" d="M103.15,74.09c-1.41,4.11-1.13,8.56-1.67,12.82a54.21,54.21,0,0,1-3.11,12.34,53.22,53.22,0,0,1-3.08,6.69c-.31.57.56,1.07.87.51a56.7,56.7,0,0,0,4.78-11.83,62.75,62.75,0,0,0,2-12.7,28.43,28.43,0,0,1,1.21-7.56C104.33,73.75,103.36,73.49,103.15,74.09Z"/><path class="cls-6" d="M93.38,110.35l-4,6a31.73,31.73,0,0,1-2,2.78c-.59.71-1.5,1.92-2.57,1.6a.5.5,0,0,0-.26,1,2.91,2.91,0,0,0,2.84-1.08,20.52,20.52,0,0,0,2.28-3c1.36-2,2.68-4.07,4-6.11a.4.4,0,0,0,.25-.23l.24-.52A.5.5,0,0,0,93.38,110.35Z"/><path class="cls-6" d="M81.69,122.36l-6.6-.11a29.38,29.38,0,0,1-6.42-.48c-.63-.15-.89.82-.27,1a30.22,30.22,0,0,0,6.44.51l6.85.11A.5.5,0,0,0,81.69,122.36Z"/><path class="cls-6" d="M68.93,74.33c-1.46,5.45-.2,11.14-1.24,16.63-.12.63.84.9,1,.27,1-5.5-.21-11.2,1.25-16.63A.5.5,0,0,0,68.93,74.33Z"/><path class="cls-6" d="M67.11,120.64c-1.29.27-1.15-1.72-1.06-2.43.15-1.19.31-2.38.47-3.57.3-2.31.61-4.62.91-6.93q.93-7,1.85-14.1c.09-.63-.92-.63-1,0q-1,7.92-2.08,15.84c-.34,2.64-.69,5.27-1,7.91a5.36,5.36,0,0,0,.11,3.2,1.94,1.94,0,0,0,2.11,1C68,121.48,67.74,120.51,67.11,120.64Z"/></g><g id="Layer_8" data-name="Layer 8"><path class="cls-6" d="M34.69,135.36a10.86,10.86,0,0,1-11.47-8,24.5,24.5,0,0,1-.48-5.2c0-.31,0-.62,0-.94v0a.65.65,0,0,0,.39.05l.17,0a.47.47,0,0,0,.47.58.49.49,0,0,0,.41-.75l.23,0a.48.48,0,0,0,.29-.23.54.54,0,0,0,.06-.39.51.51,0,0,0-.23-.29.59.59,0,0,0-.39-.06l-1.28.26a.56.56,0,0,0-.17.09c0-.74-.05-1.48-.1-2.21a2.85,2.85,0,0,0,3.18-.06.52.52,0,0,0,.17-.69.49.49,0,0,0-.68-.17,2.65,2.65,0,0,1-.4.24h0l-.1,0-.21.06-.12,0h-.46s-.16,0,0,0h-.11a3.52,3.52,0,0,1-.43-.13h0l-.09,0-.2-.12-.09-.06h0l-.15-.14-.12-.14s0,0,0-.06a.41.41,0,0,1-.07-.11l-.05,0-.12-1.44a3.59,3.59,0,0,0,.47.12,3.3,3.3,0,0,0,1,0,.51.51,0,0,0,.3-.22.51.51,0,0,0-.18-.69.61.61,0,0,0-.38-.05h.05a2.25,2.25,0,0,1-.58,0,2.07,2.07,0,0,1-.54-.15l-.08,0a.6.6,0,0,0-.19-.06c-.05-.57-.08-1.15-.14-1.72l1,.17a.56.56,0,0,0,.38,0,.5.5,0,0,0,.23-.3.5.5,0,0,0-.35-.62L22,111.46c-.11-1-.21-2-.33-3l.12.07,1.52.54a.5.5,0,0,0,.27-1l-1.53-.53a.43.43,0,0,0-.38.05s-.06,0-.09.07a1,1,0,0,0,0-.16A146.85,146.85,0,0,0,11.44,70.08a39.86,39.86,0,0,1-1.89-5.2,22.4,22.4,0,0,1-.62-5.59,39.3,39.3,0,0,1,1.69-11.24.43.43,0,0,0-.15-.49.48.48,0,0,0,.11-.43Q8.92,39.55,6.87,32.08c-.68-2.47-1.4-4.93-2.14-7.38C4.45,23.79,4.17,22.87,4,22a7.39,7.39,0,0,0,3.7,1.4.51.51,0,0,0,.5-.5.5.5,0,0,0-.5-.5A6.66,6.66,0,0,1,4.36,21a.47.47,0,0,0-.6.09,12.33,12.33,0,0,1-.22-3.93c.08-.64-.92-.64-1,0a14.79,14.79,0,0,0,.62,5.72c.53,1.94,1.15,3.86,1.71,5.8C6,32.65,7.07,36.62,8.05,40.62Q8.88,44,9.61,47.39a.43.43,0,0,0,.13.24.48.48,0,0,0-.08.16c-1.93,6.41-2.61,13.62-.22,20C10.63,71,12,74.07,13.19,77.27s2.16,6.3,3.08,9.5a145.2,145.2,0,0,1,4.18,19.78c.47,3.4.82,6.83,1,10.27.11,1.62.19,3.25.24,4.87a36.5,36.5,0,0,0,.35,5.12,11.85,11.85,0,0,0,12.61,9.55C35.32,136.3,35.33,135.29,34.69,135.36Z"/><path class="cls-6" d="M33.65,113.17l-6.4-27c-2.09-8.8-4.42-17.63-5.18-26.68-.19-2.31,0-4.79-.63-7.05a5,5,0,0,0-3.66-3.8c-.63-.12-.89.84-.26,1,1.87.35,2.82,2.15,3.13,3.87.38,2.09.27,4.28.45,6.38a112.44,112.44,0,0,0,2,12.78c1.82,8.69,4,17.31,6.07,26l3.51,14.82C32.83,114.07,33.8,113.8,33.65,113.17Z"/><path class="cls-6" d="M48.74,105.75a46.25,46.25,0,0,1-2.57-13.59c-.29-4.78-.29-9.57-.39-14.35q-.14-7.43-.29-14.85c-.08-3.8-.16-8.09-3-11s-7.41-3.35-11.31-3.52c-.65,0-.64,1,0,1,3.41.15,7.36.44,10.09,2.75,3.12,2.63,3.16,7,3.24,10.73q.13,7.23.29,14.48c.09,4.63.11,9.28.35,13.91A48.1,48.1,0,0,0,47.78,106C48,106.61,49,106.35,48.74,105.75Z"/><path class="cls-6" d="M56.29,99.55a17.39,17.39,0,0,1-.66-5c-.09-1.76-.19-3.53-.29-5.29-.2-3.53-.43-7-.69-10.58,0-.64-1-.64-1,0q.39,5.42.71,10.83c.1,1.8.2,3.61.29,5.41a17,17,0,0,0,.68,4.87C55.54,100.42,56.5,100.16,56.29,99.55Z"/><path class="cls-6" d="M70.78,128.2a67.93,67.93,0,0,1-13.6.08,134.89,134.89,0,0,1-14.76-2.73l-10.05-2.17-2.12-.72a.49.49,0,0,0-.5.15l-4-.87a.46.46,0,0,0-.46-.34.5.5,0,0,0-.32.87.42.42,0,0,0,.35.4l6.81,1.47.93.32a.48.48,0,0,0,.35,0l7.43,1.61c5,1.08,10,2.28,15.16,2.91A69.17,69.17,0,0,0,72.81,129,8.2,8.2,0,0,1,70.78,128.2Z"/><path class="cls-6" d="M98.48,120.94a4.12,4.12,0,0,1-2.66,2.3,8.6,8.6,0,0,1-7.18,1.81l-1.58.35c-2.29.51-4.58,1-6.87,1.42a6.31,6.31,0,0,1-1.46,1.28c2.72-.48,5.43-1,8.11-1.62s5.48-1.15,8.16-1.91c1.85-.53,3.76-1.42,4.45-3.36C99.66,120.6,98.7,120.34,98.48,120.94Z"/><path class="cls-6" d="M28.59,127.47a.5.5,0,0,0,0,1A.5.5,0,0,0,28.59,127.47Z"/><path class="cls-6" d="M38.51,128.48c0-.64-1-.64-1,0a45.05,45.05,0,0,1-.17,7.16c-.06.64.94.63,1,0A45.05,45.05,0,0,0,38.51,128.48Z"/><path class="cls-6" d="M52.18,133.75a.49.49,0,0,0-.36-.15.47.47,0,0,0-.35.15.49.49,0,0,0-.15.35v.76a.53.53,0,0,0,.15.36.46.46,0,0,0,.35.14.48.48,0,0,0,.36-.14.52.52,0,0,0,.14-.36v-.76A.5.5,0,0,0,52.18,133.75Z"/><path class="cls-6" d="M24.5,34.57a15.54,15.54,0,0,0-7.93,1.27c-.59.25-.08,1.12.51.86a14.51,14.51,0,0,1,7.42-1.13C25.14,35.64,25.13,34.64,24.5,34.57Z"/><path class="cls-6" d="M49.69,28.59a.41.41,0,0,0-.58.32.49.49,0,0,0,.41.75l.09,0a9.55,9.55,0,0,1,5.6,9c0,.64,1,.64,1,0A10.56,10.56,0,0,0,49.69,28.59Z"/><path class="cls-6" d="M7.14,19.27l-2-1a.5.5,0,0,0-.5.87l2,1a.5.5,0,0,0,.5-.87Z"/><path class="cls-6" d="M7.57,25.85a.5.5,0,0,0-.3-.23l-.76-.26a.46.46,0,0,0-.2,0,.6.6,0,0,0-.19.06.51.51,0,0,0-.18.69.62.62,0,0,0,.3.23l.77.25a.44.44,0,0,0,.2,0,.3.3,0,0,0,.18-.06.5.5,0,0,0,.18-.68Z"/><path class="cls-6" d="M11.2,29a.52.52,0,0,0-.62-.34,6,6,0,0,1-3.7-.7c-.56-.31-1.07.55-.51.87a7.11,7.11,0,0,0,4.48.79A.52.52,0,0,0,11.2,29Z"/><path class="cls-6" d="M10.71,33.8l-2.55-.29a.5.5,0,0,0,0,1l2.55.29a.5.5,0,0,0,.5-.5A.51.51,0,0,0,10.71,33.8Z"/><path class="cls-6" d="M13,38.14a.5.5,0,0,0-.61-.35,2.59,2.59,0,0,1-.45.14,1.58,1.58,0,0,1-.38,0A2.48,2.48,0,0,1,11,38h-.15l-.23-.05a2.43,2.43,0,0,1-.76-.31A2.58,2.58,0,0,1,9.22,37a.5.5,0,0,0-.7.71,3.76,3.76,0,0,0,4.08,1A.52.52,0,0,0,13,38.14Z"/><path class="cls-6" d="M12.17,40.9a.5.5,0,0,0-.3-.23l-1.79-.25a.55.55,0,0,0-.38,0,.5.5,0,0,0-.23.3.5.5,0,0,0,0,.38.41.41,0,0,0,.3.23l1.78.26a.59.59,0,0,0,.39,0,.51.51,0,0,0,.18-.69Z"/><path class="cls-6" d="M11,44a.5.5,0,0,0,0,1A.5.5,0,0,0,11,44Z"/><path class="cls-6" d="M118.37,23a.5.5,0,0,0-.68-.18l-.19.09,0,0h0a2.3,2.3,0,0,1-.34.12c-.12,0-.24.06-.36.09l-.19,0h-.12a3.56,3.56,0,0,1-.73,0h-.12l-.17,0-.38-.09a.5.5,0,0,0-.61.35.51.51,0,0,0,.35.61,4.72,4.72,0,0,0,3.44-.35A.49.49,0,0,0,118.37,23Z"/><path class="cls-6" d="M116.39,25.71a.5.5,0,0,0-.62-.35l-.76.26a.5.5,0,0,0-.3.23.5.5,0,0,0,0,.38.5.5,0,0,0,.23.3.51.51,0,0,0,.38,0l.77-.25a.62.62,0,0,0,.3-.23A.53.53,0,0,0,116.39,25.71Z"/><path class="cls-6" d="M115.24,27.53a.52.52,0,0,0-.35-.14h-.77a.5.5,0,0,0-.35.14.49.49,0,0,0-.15.36.51.51,0,0,0,.15.35.49.49,0,0,0,.35.15h.77a.5.5,0,0,0,.35-.86Z"/><path class="cls-6" d="M112.57,45.4a.49.49,0,0,0-.61-.34,5.32,5.32,0,0,1-.57.16l-.24.05H111a4.87,4.87,0,0,1-.54,0l-.3,0-.11,0h-.08a.51.51,0,0,0-.62.35.5.5,0,0,0,.35.61,5,5,0,0,0,2.57-.2A.51.51,0,0,0,112.57,45.4Z"/><path class="cls-6" d="M110.94,47.88a3.19,3.19,0,0,1-1.41.16,3.3,3.3,0,0,1-1.14-.37c0,.35-.07.69-.1,1a4.2,4.2,0,0,0,2.92.13.51.51,0,0,0,.35-.61A.51.51,0,0,0,110.94,47.88Z"/><path class="cls-6" d="M105.36,96.57l-.08-.1a.45.45,0,0,0-.22-.13l-1.28-.51a.46.46,0,0,0-.38,0,.53.53,0,0,0-.23.3.5.5,0,0,0,0,.38l.08.11a.43.43,0,0,0,.22.12l1.28.51a.46.46,0,0,0,.38,0,.55.55,0,0,0,.23-.29A.53.53,0,0,0,105.36,96.57Z"/><path class="cls-6" d="M104.34,98.36a.5.5,0,0,0-.3-.23l-.77-.26a.44.44,0,0,0-.2,0,.64.64,0,0,0-.18.06.5.5,0,0,0-.23.3.53.53,0,0,0,0,.39.58.58,0,0,0,.3.23l.76.25a.35.35,0,0,0,.2,0,.33.33,0,0,0,.19-.06.53.53,0,0,0,.23-.3A.5.5,0,0,0,104.34,98.36Z"/><path class="cls-6" d="M104.57,100.37a.5.5,0,0,0-.68-.18l-.24.12-.06,0-.14,0-.12,0H103l-.14,0-.14,0-.07,0,0,0,0,0-.13-.07-.06,0-.1-.09a.5.5,0,1,0-.71.71,2.4,2.4,0,0,0,2.89.29A.5.5,0,0,0,104.57,100.37Z"/><path class="cls-6" d="M104.16,101.43h-1.79a.51.51,0,0,0-.5.5.51.51,0,0,0,.5.5h1.79a.5.5,0,0,0,0-1Z"/><path class="cls-6" d="M104.08,103.49a.5.5,0,0,0-.3-.23l-1.53-.25a.49.49,0,0,0-.39,0,.53.53,0,0,0-.23.3.51.51,0,0,0,.05.38.52.52,0,0,0,.3.23l1.53.26a.58.58,0,0,0,.39,0,.51.51,0,0,0,.18-.69Z"/><path class="cls-6" d="M101.61,108.07a.5.5,0,0,0,0,1A.5.5,0,0,0,101.61,108.07Z"/><path class="cls-6" d="M100.59,109.85a.5.5,0,0,0,0,1A.5.5,0,0,0,100.59,109.85Z"/><path class="cls-6" d="M33.05,121.94l-3.31-.55a.52.52,0,0,0-.62.35.52.52,0,0,0,.35.62l3.31.55a.52.52,0,0,0,.62-.35A.52.52,0,0,0,33.05,121.94Z"/><path class="cls-6" d="M33.44,126.72a11.16,11.16,0,0,1-3.44-.51.5.5,0,0,0-.62.34.52.52,0,0,0,.35.62,12,12,0,0,0,3.71.55.51.51,0,0,0,.5-.5A.5.5,0,0,0,33.44,126.72Z"/><path class="cls-6" d="M32.84,128.71a.53.53,0,0,0-.3-.23.59.59,0,0,0-.39.06c.13-.06,0,0,0,0l-.1,0-.24.07-.14,0h0l-.25,0H31a2.9,2.9,0,0,1-.48-.14.5.5,0,0,0-.61.35.52.52,0,0,0,.35.62,3.1,3.1,0,0,0,1.17.2,3.36,3.36,0,0,0,1.25-.29.5.5,0,0,0,.23-.3A.53.53,0,0,0,32.84,128.71Z"/><path class="cls-6" d="M32.3,131.83l-2-.77a.5.5,0,0,0-.26,1l2,.76a.49.49,0,0,0,.61-.35A.5.5,0,0,0,32.3,131.83Z"/><path class="cls-6" d="M35.66,134.36a.52.52,0,0,0-.69-.18s-.06,0,0,0l-.09,0-.22.07-.19.05-.09,0H34.1a.44.44,0,0,0,.09-.27.5.5,0,0,0-.5-.5,6,6,0,0,1-3.31-1,.5.5,0,1,0-.51.86,6.93,6.93,0,0,0,1.56.73.4.4,0,0,0,.12.23,3.63,3.63,0,0,0,3.93.58A.51.51,0,0,0,35.66,134.36Z"/><path class="cls-6" d="M40.59,134.88h-1a.48.48,0,0,0-.5.5.51.51,0,0,0,.5.5h1a.51.51,0,0,0,.35-.15.53.53,0,0,0,.15-.35A.5.5,0,0,0,40.59,134.88Z"/><path class="cls-6" d="M47.15,135.89a.52.52,0,0,0-.3-.23l-1-.17a.51.51,0,0,0,0-.48.49.49,0,0,0-.68-.18,3.09,3.09,0,0,1-.76.24l-.11,0c.05,0,0,0,0,0H44a2.36,2.36,0,0,1-.46,0,2.22,2.22,0,0,1-.36-.06,2.77,2.77,0,0,1-.41-.12,3.2,3.2,0,0,1-.33-.16,2.59,2.59,0,0,1-.39-.25.51.51,0,0,0-.69.18.52.52,0,0,0,.18.68,3.87,3.87,0,0,0,3.16.64.65.65,0,0,0,0,.13.5.5,0,0,0,.3.23l1.53.25a.49.49,0,0,0,.39-.05.53.53,0,0,0,.23-.3A.51.51,0,0,0,47.15,135.89Z"/><path class="cls-6" d="M56.64,136.51a.51.51,0,0,0-.61-.35l-.12,0h-.82l-.14,0a3.78,3.78,0,0,1-.6-.17l-.06,0h0l-.12-.06a2.28,2.28,0,0,1-.3-.17.5.5,0,0,0-.5.87,4.15,4.15,0,0,0,2.94.53A.49.49,0,0,0,56.64,136.51Z"/><path class="cls-6" d="M59,136.05a.52.52,0,0,0-.62-.35h-.57l-.24-.05-.23-.08h0l-.12-.06-.22-.13a.44.44,0,0,1-.11-.08l0,0-.05,0a.5.5,0,0,0-.71.71,3.07,3.07,0,0,0,2.52.69A.5.5,0,0,0,59,136.05Z"/><path class="cls-6" d="M62.68,137.19l-2-.76a.5.5,0,0,0-.62.34.52.52,0,0,0,.35.62l2,.77a.52.52,0,0,0,.62-.35A.52.52,0,0,0,62.68,137.19Z"/><path class="cls-6" d="M84.5,133.6a.5.5,0,0,0,0,1A.5.5,0,0,0,84.5,133.6Z"/><path class="cls-6" d="M87.83,135.85a.51.51,0,0,0-.62-.35l-.27.08-.12,0h-.54a2.3,2.3,0,0,1-.28-.06l-.14,0s-.18-.06,0,0a.91.91,0,0,1-.26-.13l-.12-.07,0,0a.53.53,0,0,0-.36-.15.51.51,0,0,0-.35.86,3,3,0,0,0,2.79.51A.52.52,0,0,0,87.83,135.85Z"/><path class="cls-6" d="M93.92,135.25a.5.5,0,0,0-.25-.31.66.66,0,0,0,0-.14.51.51,0,0,0-.23-1,.48.48,0,0,0-.48.55l-1.42.2a.45.45,0,0,0-.4-.24.51.51,0,0,0-.24.94l-.66.11a.5.5,0,0,0-.35.61.52.52,0,0,0,.62.35l3.06-.51A.5.5,0,0,0,93.92,135.25Z"/><path class="cls-6" d="M98,123.64a.5.5,0,0,0,0,1A.5.5,0,0,0,98,123.64Z"/><path class="cls-6" d="M99.25,125.45a.5.5,0,0,0-.68-.18l-1.83,1.22a.5.5,0,1,0,.51.87l.46-.32-.75.63a.49.49,0,0,0-.15.35.53.53,0,0,0,.15.36.5.5,0,0,0,.35.14.54.54,0,0,0,.36-.14l1.25-1a.45.45,0,0,0,.15-.35.51.51,0,0,0-.15-.35.47.47,0,0,0-.35-.15h0l.52-.35A.5.5,0,0,0,99.25,125.45Z"/><path class="cls-6" d="M99.33,128.12a.5.5,0,0,0-.23-.3.5.5,0,0,0-.68.18l-.13.21-.21.21a1.35,1.35,0,0,1-.26.15,1.71,1.71,0,0,1-.3.09h-.25a.5.5,0,0,0-.5.5.52.52,0,0,0,.5.5,2.16,2.16,0,0,0,2-1.17A.51.51,0,0,0,99.33,128.12Z"/><path class="cls-6" d="M96.25,129.77a.5.5,0,0,0,0,1A.5.5,0,0,0,96.25,129.77Z"/><path class="cls-6" d="M16.77,53.4a.53.53,0,0,0-.3-.23l-1.28-.5a.51.51,0,0,0-.38,0,.5.5,0,0,0-.23.3.5.5,0,0,0,.05.38.53.53,0,0,0,.3.23l.2.08H15a.32.32,0,0,0-.18.06.5.5,0,0,0-.23.3.51.51,0,0,0,0,.38l.08.1a.45.45,0,0,0,.22.13l.76.26a.46.46,0,0,0,.2,0,.33.33,0,0,0,.19-.06.53.53,0,0,0,.23-.3.5.5,0,0,0-.05-.38l-.07-.09h0a.5.5,0,0,0,.56-.73Z"/><path class="cls-6" d="M14.8,55.22a.5.5,0,0,0,0,1A.5.5,0,0,0,14.8,55.22Z"/><path class="cls-6" d="M16.17,57.93A.61.61,0,0,0,16,57.8l-.11,0a.5.5,0,0,0,0-1h-.13a2.36,2.36,0,0,1-.38-.1,3.37,3.37,0,0,1-.32-.19l-.09-.08a.5.5,0,0,0-.7,0,.5.5,0,0,0,0,.71,1.69,1.69,0,0,0,.25.2l-.16.05a.51.51,0,0,0-.18.69l.07.1a.65.65,0,0,0,.23.13l1.27.51a.58.58,0,0,0,.39-.05.57.57,0,0,0,.23-.3.53.53,0,0,0-.05-.39Z"/><path class="cls-6" d="M14.8,58.54a.5.5,0,0,0,0,1A.5.5,0,0,0,14.8,58.54Z"/><path class="cls-6" d="M14.8,60.07a.5.5,0,0,0,0,1A.5.5,0,0,0,14.8,60.07Z"/><path class="cls-6" d="M16.81,62a.5.5,0,0,0-.23-.3.59.59,0,0,0-.37,0h.07a2.27,2.27,0,0,1-.52,0l-.22,0-.14,0-.06,0a1.74,1.74,0,0,1-.27-.14l-.1-.07-.06-.05a.5.5,0,0,0-.71.7,2.88,2.88,0,0,0,1.05.59,2.91,2.91,0,0,0,1.21.06.5.5,0,0,0,.3-.23A.49.49,0,0,0,16.81,62Z"/><path class="cls-6" d="M15.74,63.14a.5.5,0,0,0-.3-.23l-1-.26a.59.59,0,0,0-.39.05.51.51,0,0,0-.18.69.57.57,0,0,0,.3.23l1,.25a.48.48,0,0,0,.39,0,.53.53,0,0,0,.23-.3A.51.51,0,0,0,15.74,63.14Z"/><path class="cls-6" d="M16,64.91a.77.77,0,0,0-.18-.18l-.51-.25a.33.33,0,0,0-.19-.06.28.28,0,0,0-.2,0,.38.38,0,0,0-.17.08.64.64,0,0,0-.13.15l0,.11a.61.61,0,0,0,0,.27l0,0a.47.47,0,0,0,.47.59.49.49,0,0,0,.25-.07h0a.33.33,0,0,0,.19.06.28.28,0,0,0,.2,0,.38.38,0,0,0,.17-.08.57.57,0,0,0,.13-.14l.05-.12a.62.62,0,0,0,0-.27Z"/><path class="cls-6" d="M14,67a.5.5,0,0,0,0,1A.5.5,0,0,0,14,67Z"/><path class="cls-6" d="M11.23,54.19a.5.5,0,0,0,0,1A.5.5,0,0,0,11.23,54.19Z"/><path class="cls-6" d="M11,55.73a.5.5,0,0,0,0,1A.5.5,0,0,0,11,55.73Z"/><path class="cls-6" d="M12.74,58.12a.53.53,0,0,0-.23-.3l-1-.51a.56.56,0,0,0-.38-.05.58.58,0,0,0-.3.23.53.53,0,0,0-.05.39.5.5,0,0,0,.23.3l1,.51a.51.51,0,0,0,.69-.18A.53.53,0,0,0,12.74,58.12Z"/><path class="cls-6" d="M12,60.18a.38.38,0,0,0-.13-.22l-.25-.26a.39.39,0,0,0-.16-.1.33.33,0,0,0-.19,0,.34.34,0,0,0-.2,0,.39.39,0,0,0-.16.1l-.08.1a.58.58,0,0,0-.06.26v.13a.61.61,0,0,0,.13.22l.26.26a.44.44,0,0,0,.16.1.47.47,0,0,0,.38,0,.37.37,0,0,0,.16-.1l.08-.11a.43.43,0,0,0,.07-.25Z"/><path class="cls-6" d="M5.86,10.79H4.08a.5.5,0,0,0-.5.5.51.51,0,0,0,.5.5H5.86a.5.5,0,0,0,.5-.5A.51.51,0,0,0,5.86,10.79Z"/><path class="cls-6" d="M14.52,8.6a.51.51,0,0,0-.23-.29.53.53,0,0,0-.39-.05l-1.79.25a.48.48,0,0,0-.29.23.49.49,0,0,0-.05.39.46.46,0,0,0,.22.29.59.59,0,0,0,.39.05l1.79-.25a.57.57,0,0,0,.3-.23A.53.53,0,0,0,14.52,8.6Z"/><path class="cls-6" d="M17.45,7.36a.52.52,0,0,0-.35-.14h-.77a.5.5,0,0,0-.35.14.53.53,0,0,0-.15.36.51.51,0,0,0,.15.35.53.53,0,0,0,.35.15h.77a.51.51,0,0,0,.35-.15.5.5,0,0,0,0-.71Z"/><path class="cls-6" d="M63.74,18.23a8.44,8.44,0,0,1,.44-.91v0C56.61,17.19,49,17,41.46,16.69c-12.07-.43-24.17-1.22-36.06-3.46-1.3-.25-2.6-.52-3.9-.8C1.58,11.07,3,10.2,4.14,9.69c.49-.22,1-.41,1.51-.58a.65.65,0,0,0,0,.19.53.53,0,0,0,.15.36.61.61,0,0,0,.35.14l.68.09a.49.49,0,0,0,.35.14c.2,0,.39,0,.59,0l.43.06A.48.48,0,0,0,8.45,10a13.64,13.64,0,0,0,2.63-.54.52.52,0,0,0,.35-.62.51.51,0,0,0-.61-.35A12.63,12.63,0,0,1,7.72,9L6.49,8.85C7.63,8.5,8.8,8.22,9.94,8c2.64-.63,5.32-1.08,8-1.47a.39.39,0,0,0-.06.11.53.53,0,0,0,.35.62L20.52,8a.5.5,0,0,0,.62-.35A.52.52,0,0,0,20.79,7l-2-.68L21.16,6a.48.48,0,0,0,.15.86,27.28,27.28,0,0,0,4,.51l.06,0a17.85,17.85,0,0,0,5.5.51c.63,0,.64-1,0-1a17,17,0,0,1-3.11-.09.45.45,0,0,0-.47-.4A26.19,26.19,0,0,1,21.72,6l.68-.09c2.46-.31,4.93-.58,7.41-.83a.53.53,0,0,0,.17.88c.32.11.64.19,1,.28a.57.57,0,0,0,0,.34.51.51,0,0,0,.61.35,11.08,11.08,0,0,1,1.8-.23,15,15,0,0,0,2.92,0,.51.51,0,0,0,.5-.5.41.41,0,0,0,0-.19,15.93,15.93,0,0,0,3.63.48.5.5,0,0,0,0-1,14.87,14.87,0,0,1-3.69-.52.51.51,0,0,0-.56.74l-.82,0h0a12.53,12.53,0,0,0-1.84,0,13.72,13.72,0,0,1-3-.67q8.91-.9,17.87-1.28,7.27-.31,14.56-.27a.5.5,0,0,0,0-1q-13.51-.07-27,1Q29,4,22.28,4.89A118.39,118.39,0,0,0,9.56,7a28.58,28.58,0,0,0-6.4,2A4.4,4.4,0,0,0,.51,12.22a.52.52,0,0,0-.47.71.45.45,0,0,0,.29.36c5,5.26,13,5.59,19.72,6.18q13.62,1.19,27.3,1.65c5.14.18,10.29.25,15.43.28q.12-.51.24-1-6.48,0-13-.2-13.18-.39-26.32-1.43c-3.93-.31-7.9-.55-11.79-1.21A21.13,21.13,0,0,1,2.71,14.1c-.23-.17-.44-.35-.65-.54a219.06,219.06,0,0,0,35.76,4c6.23.26,12.47.41,18.7.56,2.38.06,4.75.09,7.13.13a.46.46,0,0,0-.33.45v11a.5.5,0,0,0,1,0v-11A.47.47,0,0,0,63.74,18.23Z"/><path class="cls-6" d="M123.61,13.56a3.38,3.38,0,0,0-.58-2.18h0a1.1,1.1,0,0,0,0-.18,4.46,4.46,0,0,0-1.61-2.94,12.37,12.37,0,0,0-6.18-2.86c-2.81-.6-5.69-.92-8.53-1.34C94.23,2.21,81.69.52,69.06.1,67.5,0,65.93,0,64.37,0a.5.5,0,0,0,0,1,277.17,277.17,0,0,1,36.71,3.24c3,.43,6,.88,9,1.33a38.37,38.37,0,0,1,7.37,1.49,9,9,0,0,1,3,1.66,5.42,5.42,0,0,1,1.45,1.84.5.5,0,0,0,.08,1,1.29,1.29,0,0,1-.3.47,5.63,5.63,0,0,1-1.64.92,17.65,17.65,0,0,1-2.08.72,34,34,0,0,1-3.33.73,6.52,6.52,0,0,1,.25,1,24.08,24.08,0,0,0,6-1.71,5.26,5.26,0,0,0,1.64-1.08A3.42,3.42,0,0,1,121,16.18,13.72,13.72,0,0,1,115.6,18l-.78.13a8.47,8.47,0,0,1-.28,1c.32-.05.65-.09,1-.15a17.61,17.61,0,0,0,5.41-1.64c-.06.16-.11.32-.16.47a.61.61,0,0,0-.46,0,17.46,17.46,0,0,1-5.78,1.34,4.6,4.6,0,0,1-.25.61c-.06.14-.11.28-.17.43h0a19.1,19.1,0,0,0,6.28-1.36c-.12.33-.23.66-.34,1a.45.45,0,0,0-.45-.11A17.92,17.92,0,0,1,114.88,21a.53.53,0,0,0-.5.5c0,.25.23.54.5.5a18.51,18.51,0,0,0,4.87-1.22,132.69,132.69,0,0,0-5,19.72q-1,5.9-1.49,11.87c-.33,4-.42,8.09-.72,12.13a58.78,58.78,0,0,1-2.1,12.14c-1.14,3.89-2.56,7.69-3.46,11.65-1.21,5.31-1.79,10.75-2.76,16.1a.48.48,0,0,0-.34-.14h-1.54a.51.51,0,0,0-.5.5.51.51,0,0,0,.5.5h1.54a.65.65,0,0,0,.19,0c-.07.38-.15.76-.23,1.14a.4.4,0,0,0-.22-.06h-.53l.15,0a.5.5,0,0,0,.3-.23.46.46,0,0,0,.05-.38.5.5,0,0,0-.61-.35l-1,.25a.5.5,0,0,0-.35.62.49.49,0,0,0,.34.33.55.55,0,0,0-.11.3.51.51,0,0,0,.5.5h1.31c-.34,1.54-.71,3.07-1.17,4.59a48.66,48.66,0,0,0-1.55,5.68,43.59,43.59,0,0,0-.43,6c-.11,3.35-.51,7.08-3.06,9.53a5.79,5.79,0,0,1-1.89,1.24.56.56,0,0,0-.27.76,21,21,0,0,1-7.65,3.07l0,0a.5.5,0,0,0,.06-.24,5.41,5.41,0,0,0,1.48-.3.53.53,0,0,0,.35-.62.52.52,0,0,0-.62-.35,4.36,4.36,0,0,1-3,.05.51.51,0,0,0-.62.35.48.48,0,0,0,.07.36v0a.36.36,0,0,0,0,.11.35.35,0,0,0-.17.06.49.49,0,0,0-.17.68,1.42,1.42,0,0,0,.29.31c-1.09.14-2.19.23-3.29.29a39.3,39.3,0,0,1,.35-9c.1-.63-.87-.9-1-.26a40.77,40.77,0,0,0-.38,9.3c-1.66.06-3.33.05-5,0-8.42-.12-16.84-.29-25.26-.43-4.77-.09-9.56-.08-14.32-.53-.64-.05-.64.95,0,1,4.3.41,8.63.43,13,.5l13,.23,12.87.22a70,70,0,0,0,10.54-.39,22.88,22.88,0,0,0,10.69-4,.52.52,0,0,0,.17-.61,9.7,9.7,0,0,0,4.41-6.5c.92-4,.24-8.12,1.22-12.09.47-2,1.16-3.85,1.69-5.78s.94-3.89,1.3-5.86c.73-4,1.22-8.09,1.93-12.12a89,89,0,0,1,3.06-11.81,67.66,67.66,0,0,0,2.92-12c.53-4.11.66-8.25.88-12.38s.6-8.2,1.19-12.28a132.24,132.24,0,0,1,5.72-23.78c.28-.82.57-1.63.86-2.44a.5.5,0,0,0,0-1h0l-.06,0A4.4,4.4,0,0,0,123.61,13.56Z"/><path class="cls-6" d="M44.93,6.67a6.18,6.18,0,0,1-1.55-.43A5.82,5.82,0,0,1,42,5.32a.51.51,0,0,0-.71,0,.5.5,0,0,0,0,.7,6.57,6.57,0,0,0,3.67,1.65.5.5,0,0,0,.5-.5A.51.51,0,0,0,44.93,6.67Z"/><path class="cls-6" d="M61,5.77a.52.52,0,0,0-.62-.35,5.25,5.25,0,0,1-4.12-1.1.52.52,0,0,0-.71,0,.73.73,0,0,0-.05.09l-3.92-.23a.5.5,0,0,0-.5.5.41.41,0,0,0,.08.24,7.76,7.76,0,0,1-3.92-.7.5.5,0,0,0-.68.18.49.49,0,0,0,.18.68l.2.08a4.52,4.52,0,0,1-1.75-.67.5.5,0,0,0-.68.18.5.5,0,0,0,.18.68,5.36,5.36,0,0,0,4,.78A.43.43,0,0,0,49,5.81a8.4,8.4,0,0,0,2.35.1.51.51,0,0,0,.5-.5.6.6,0,0,0-.06-.22l4.36.25a6.3,6.3,0,0,0,4.52.94A.49.49,0,0,0,61,5.77Z"/><path class="cls-6" d="M67.9,4.7l-4.59-.54a.44.44,0,0,0-.44.28c-.32-.07-.64-.16-1-.26a.51.51,0,0,0-.62.35.51.51,0,0,0,.35.61,10.31,10.31,0,0,0,4,.52A.55.55,0,0,0,66,5.48l1.92.22c.27,0,.5-.25.5-.5A.52.52,0,0,0,67.9,4.7Z"/><path class="cls-6" d="M71.22,5.46h-.09l-.1,0-.3-.08-.11,0-.06,0-.27-.15-.11-.08h0l0,0-.22-.21-.1-.11,0,0,0,0,0,0c-.06-.08-.11-.17-.16-.25a.49.49,0,0,0-.68-.18.5.5,0,0,0-.18.68,3,3,0,0,0,2.46,1.56.5.5,0,0,0,.5-.5A.51.51,0,0,0,71.22,5.46Z"/><path class="cls-6" d="M71.15,5.45Z"/><path class="cls-6" d="M69.8,4.67Z"/><path class="cls-6" d="M74.55,5.71h-.4l-.15,0-.08,0h0l0,0-.08,0-.14-.09-.07,0h0c-.07-.07-.15-.13-.22-.21l0,0a1.25,1.25,0,0,0-.08-.12,1.09,1.09,0,0,1-.08-.15l0-.08,0,0v0A2,2,0,0,1,73,4.51a.52.52,0,0,0-.23-.3.51.51,0,0,0-.38,0,.53.53,0,0,0-.3.23.59.59,0,0,0,0,.39,2.38,2.38,0,0,0,2.47,1.93.5.5,0,0,0,0-1Z"/><path class="cls-6" d="M73.13,4.87s0,0,0,0Z"/><path class="cls-6" d="M73.59,5.44c0-.06,0,0,0,0Z"/><path class="cls-6" d="M80.13,6.29a.52.52,0,0,0-.62-.35l-.1,0h-.63l-.19,0a2,2,0,0,1-.35-.1s-.17-.07-.07,0L78,5.72a2.07,2.07,0,0,1-.32-.19l-.06,0,0,0-.14-.12a3.58,3.58,0,0,1-.26-.29.5.5,0,0,0-.71,0,.52.52,0,0,0,0,.71A3.35,3.35,0,0,0,79.78,6.9.49.49,0,0,0,80.13,6.29Z"/><path class="cls-6" d="M86.29,5.72a21.1,21.1,0,0,1-3.55-.41c-.2,0-2.58-.53-2.37-.89a.5.5,0,0,0-.86-.51,1.14,1.14,0,0,0,.37,1.48,4.59,4.59,0,0,0,1.88.73,23,23,0,0,0,4.53.6C86.93,6.74,86.93,5.74,86.29,5.72Z"/><path class="cls-6" d="M92.65,7.06a2.44,2.44,0,0,1-.54,0H92L91.72,7l-.26-.08-.08,0-.09,0a4,4,0,0,1-.44-.27l0,0-.09-.07-.19-.19a1.12,1.12,0,0,1-.18-.2h0A1,1,0,0,0,90.25,6a1.55,1.55,0,0,1-.12-.22.41.41,0,0,1-.07-.11l0-.07a2.64,2.64,0,0,1-.15-.5.49.49,0,0,0-.61-.34.5.5,0,0,0-.35.61,3.5,3.5,0,0,0,3.72,2.73.52.52,0,0,0,.5-.5C93.14,7.31,92.93,7,92.65,7.06Z"/><path class="cls-6" d="M102.5,7.79a7,7,0,0,1-1.43-.39l-.16-.07-.08,0-.36-.17-.64-.37a.5.5,0,0,0-.68.17h0L99,6.86c-.06,0-.06,0,0,0l-.1,0-.35-.17a7,7,0,0,1-.68-.43.5.5,0,0,0-.68.18.51.51,0,0,0,.18.69,6.76,6.76,0,0,0,3.27,1.19h0a7.93,7.93,0,0,0,1.64.49.5.5,0,1,0,.27-1Z"/><path class="cls-6" d="M106.46,7.5h-.2l-.1,0-.36-.1-.1,0h0l-.17-.08a1.85,1.85,0,0,1-.33-.21l-.07,0s0,0,0,0a1,1,0,0,1-.15-.14,1.73,1.73,0,0,1-.26-.28h0l-.07-.09-.09-.16-.09-.16a.2.2,0,0,0,0-.08V6a.52.52,0,0,0-.61-.35.51.51,0,0,0-.35.62,3.37,3.37,0,0,0,3,2.19.5.5,0,0,0,0-1Z"/><path class="cls-6" d="M114.86,8.08a.5.5,0,0,0-.23-.3L112.84,7a.56.56,0,0,0-.38,0,.5.5,0,0,0-.3.23.53.53,0,0,0,0,.39.5.5,0,0,0,.23.3l1.79.76a.56.56,0,0,0,.38,0,.5.5,0,0,0,.3-.23A.53.53,0,0,0,114.86,8.08Z"/><path class="cls-6" d="M118.48,9.54l-2.59-1.72a.5.5,0,1,0-.51.86l2.6,1.73a.5.5,0,0,0,.68-.18A.52.52,0,0,0,118.48,9.54Z"/><path class="cls-6" d="M40,119.29a.53.53,0,0,0-.3-.23h-.13a.58.58,0,0,0-.26.06l-.51.26a.43.43,0,0,0-.14.13.46.46,0,0,0-.09.17.44.44,0,0,0,0,.2.55.55,0,0,0,.06.18.52.52,0,0,0,.3.23l.14,0a.45.45,0,0,0,.25-.07l.51-.25a.44.44,0,0,0,.14-.13.56.56,0,0,0,.09-.17.45.45,0,0,0,0-.2A.6.6,0,0,0,40,119.29Z"/><path class="cls-6" d="M50,118.39a.52.52,0,0,0-.62-.35l-1,.26a.5.5,0,0,0-.3.23.5.5,0,0,0,0,.38.51.51,0,0,0,.62.35l1-.25a.57.57,0,0,0,.3-.23A.59.59,0,0,0,50,118.39Z"/></g></g></svg>