<svg xmlns="http://www.w3.org/2000/svg" viewBox="0 0 66.91 78.13"><defs><style>.cls-1{fill:#231f20;}</style></defs><g id="Layer_2" data-name="Layer 2"><g id="Layer_2-2" data-name="Layer 2"><path class="cls-1" d="M41.46,49.51a3.45,3.45,0,0,1-3.87-1.6.48.48,0,0,0-.79-.07c-.17-1.24-.34-2.49-.54-3.73l.1,0,2.79.83a.5.5,0,0,0,.61-.35.52.52,0,0,0-.35-.62l-2.79-.83a.51.51,0,0,0-.49.15c-.24-1.51-.49-3-.77-4.52-.25-1.28-.52-2.56-.68-3.85.18.05.37.11.55.18l.14.05h0l.07,0,.33.16c.2.11.4.23.59.36l.28.19h0l.06.06.15.12a.5.5,0,0,0,.71-.71A7,7,0,0,0,34.84,34a.53.53,0,0,0-.25,0c0-.22,0-.44-.05-.67a14.81,14.81,0,0,1,.62-4.3l.05.07a13.51,13.51,0,0,0,4,2.27.5.5,0,0,0,.26-1,12.05,12.05,0,0,1-3.52-2,.55.55,0,0,0-.57-.1c0-.09,0-.19.08-.28A11.94,11.94,0,0,0,36,23.11a10,10,0,0,0-1.4-3.56c-1.35-2.32-3.83-5-2.93-7.84.19-.62-.78-.88-1-.27-.78,2.55.66,4.86,2,6.93a19.35,19.35,0,0,1,2,3.53,8.09,8.09,0,0,1,.07,4.87,39.05,39.05,0,0,0-1.12,4.9A19.5,19.5,0,0,0,34,37.21c.71,3.79,1.39,7.58,1.88,11.41q.83,6.43,1.12,12.92c0,.64,1,.65,1,0q-.3-6.45-1.12-12.86a4.48,4.48,0,0,0,4.82,1.8A.5.5,0,0,0,41.46,49.51Z"/><path class="cls-1" d="M52.18,48.55a14.52,14.52,0,0,0,.62-2.72,23.43,23.43,0,0,0-.66-7.95c-.6-2.66-1.37-5.28-2.08-7.9s-1.46-5.42-2.21-8.12a24.3,24.3,0,0,0-2.57-6.45,11.62,11.62,0,0,0-11.87-5.25,4,4,0,0,0-2.24-.63c-1.51,0-2.9.73-4.4.76a.52.52,0,0,0-.38.83c-3.95,1.11-6.77,4.47-8.57,8.05a38.91,38.91,0,0,0-3.69,15,42.85,42.85,0,0,0,2,16,24.9,24.9,0,0,0,4.65,8.49,3.74,3.74,0,0,0,2,2.89,44.8,44.8,0,0,0,4.38,2.2,18.87,18.87,0,0,0,8.28,1.83A17.5,17.5,0,0,0,49.1,58.25a36.8,36.8,0,0,0,2.7-4.57,6.83,6.83,0,0,0,1-4.79A.47.47,0,0,0,52.18,48.55ZM36.08,62.93c1.31,1.58,3.64.94,5.17.1a16.12,16.12,0,0,0,4.88-4.35,57.19,57.19,0,0,0,4-5.92,22.27,22.27,0,0,0,1.68-3.3,6.45,6.45,0,0,1-1,3.91,40.15,40.15,0,0,1-2,3.55,16.25,16.25,0,0,1-19.53,6.59L29,63.42l.44.06c2.21.19,4.67-.49,5.86-2.49a.5.5,0,0,0-.59-.72,11.84,11.84,0,0,0,.41-3.15c0-1.71,0-3.43-.09-5.14a22.71,22.71,0,0,0-.83-5.12,31.12,31.12,0,0,0-2.05-4.61A9.74,9.74,0,0,1,31,37.49a24.64,24.64,0,0,1,.91-4.8,17.69,17.69,0,0,0,.68-4.63,10.56,10.56,0,0,0-1.32-4.51,21.94,21.94,0,0,1-2.07-5.47,18.79,18.79,0,0,1-.27-6c.08-.63-.92-.63-1,0a19.42,19.42,0,0,0,1.41,9.79,30.08,30.08,0,0,1,2.08,4.77,10.87,10.87,0,0,1-.22,4.71c-.65,3-1.76,6.07-.85,9.14a29.77,29.77,0,0,0,2,4.42,16.79,16.79,0,0,1,1.47,5,42.71,42.71,0,0,1,.3,6c0,1.84.06,3.78-.91,5.42a.43.43,0,0,0,0,.45,6.23,6.23,0,0,1-3.93.75A11.23,11.23,0,0,1,24,60.3a15.52,15.52,0,0,1-2.25-2v-.06a.45.45,0,0,0-.44-.47A23.69,23.69,0,0,1,17.3,50.4a41.09,41.09,0,0,1-2.23-14.79A40.18,40.18,0,0,1,18,21.12c1.75-4.13,4.73-8.28,9.39-9.22a.46.46,0,0,0,.28-.71c1-.18,2-.56,3.09-.65a3.67,3.67,0,0,1,1.7.24.49.49,0,0,0,.61.45h0a1.52,1.52,0,0,1,.26.35c.31.57,1.17.06.86-.5a.05.05,0,0,0,0,0,10.59,10.59,0,0,1,9.61,4,18.39,18.39,0,0,1,2.7,5.86c.7,2.33,1.3,4.71,1.94,7.06l2,7.42a36.6,36.6,0,0,1,1.38,7.33,14.58,14.58,0,0,1-1.29,7.16,43.28,43.28,0,0,1-3.49,5.76A23.51,23.51,0,0,1,42.5,61c-1.3,1-4.24,3-5.71,1.23C36.38,61.73,35.68,62.44,36.08,62.93Z"/><path class="cls-1" d="M26.54,14.56a4,4,0,0,0-2.41,1.15.5.5,0,0,0,.71.71l.21-.2.1-.08,0,0a3.82,3.82,0,0,1,.48-.29l.12-.05h0l.27-.09.25-.06.15,0h.05a.5.5,0,0,0,.35-.14.49.49,0,0,0,.15-.36C27,14.82,26.82,14.53,26.54,14.56Z"/><path class="cls-1" d="M27.19,17.91a2,2,0,0,0-1.94,1l-.19.26c.05-.07,0,0,0,0l-.08.09a1.8,1.8,0,0,1-.2.19s-.09.07,0,0l-.11.08-.21.11,0,0-.11,0c.1,0,0,0,0,0h0l-.05,0s-.07,0,0,0a.5.5,0,0,0-.71.71,1.3,1.3,0,0,0,1.23.24,2.51,2.51,0,0,0,1-.68l.15-.19L26,19.6l0-.05c.12-.14.24-.28.37-.41l.09-.08,0,0,.2-.12h0l.13,0c-.11,0,0,0,0,0h.05a.5.5,0,1,0,.26-1Z"/><path class="cls-1" d="M28.11,22a4.5,4.5,0,0,0-2.91-.54,2,2,0,0,0-1.59,1.86.5.5,0,0,0,1,0v-.08s0-.06,0-.07a.44.44,0,0,1,0-.1h0a1.08,1.08,0,0,1,.11-.18l0,0,.09-.09a1.34,1.34,0,0,1,.69-.35l.1,0h0c.1,0,.2,0,.3,0a2.1,2.1,0,0,1,.5.09,6.3,6.3,0,0,1,1.1.4.52.52,0,0,0,.68-.18A.51.51,0,0,0,28.11,22Z"/><path class="cls-1" d="M29.18,24.19a6.08,6.08,0,0,1-5,.75.5.5,0,0,0-.27,1,7.06,7.06,0,0,0,5.8-.85C30.22,24.7,29.72,23.84,29.18,24.19Z"/><path class="cls-1" d="M29.78,28.84a.53.53,0,0,0-.3-.23.46.46,0,0,0-.38.05l-1,.77a.43.43,0,0,0-.14.13.46.46,0,0,0-.09.17.55.55,0,0,0,.05.38.52.52,0,0,0,.3.23.48.48,0,0,0,.39-.05l1-.76a.35.35,0,0,0,.14-.13.56.56,0,0,0,.09-.17A.53.53,0,0,0,29.78,28.84Z"/><path class="cls-1" d="M29.6,31.28a6.74,6.74,0,0,0-6,3.18.5.5,0,0,0,.87.51,5.73,5.73,0,0,1,5.17-2.69C30.24,32.31,30.24,31.31,29.6,31.28Z"/><path class="cls-1" d="M28.88,36.11a1.92,1.92,0,0,0-1.6,1.32c-.15.35-.28.71-.41,1.07l-.09.24,0,.07,0,.08a3.23,3.23,0,0,1-.22.41l0,.05-.07.07a.6.6,0,0,1-.08.08h0l-.1.06,0,0-.1,0h0a.51.51,0,0,0-.5.5.5.5,0,0,0,.5.5,1.92,1.92,0,0,0,1.59-1.33c.15-.35.28-.71.41-1.07a2.44,2.44,0,0,1,.1-.24v0a1.17,1.17,0,0,0,.05-.11,3.3,3.3,0,0,1,.23-.41l0,0,.06-.07.09-.09h0l.11-.07h0l.1,0h.05a.51.51,0,0,0,.5-.5A.5.5,0,0,0,28.88,36.11Z"/><path class="cls-1" d="M29.25,41.09a.53.53,0,0,0-.3-.23.5.5,0,0,0-.38,0,.5.5,0,0,0-.23.3l-.27,1a.5.5,0,0,0,.35.61.46.46,0,0,0,.38-.05A.5.5,0,0,0,29,42.5l.27-1A.49.49,0,0,0,29.25,41.09Z"/><path class="cls-1" d="M31.79,44.87a.49.49,0,0,0-.7,0,6.17,6.17,0,0,1-3.17,2.07.5.5,0,0,0,.27,1,7.09,7.09,0,0,0,3.6-2.34A.5.5,0,0,0,31.79,44.87Z"/><path class="cls-1" d="M32.37,48.72a.49.49,0,0,0-.68.18A9.27,9.27,0,0,1,31.14,50a5.69,5.69,0,0,1-.33.52l-.09.11v0l0,0-.19.23c-.13.14-.27.26-.41.39h0l-.13.09a1.71,1.71,0,0,1-.23.13l-.07,0-.08,0-.28.07h-.16a1.58,1.58,0,0,1-.31,0,.5.5,0,0,0-.5.5.51.51,0,0,0,.5.5c1.9.21,3.1-1.78,3.75-3.27A.5.5,0,0,0,32.37,48.72Z"/><path class="cls-1" d="M32.92,54.64a.5.5,0,0,0,0,1A.5.5,0,0,0,32.92,54.64Z"/><path class="cls-1" d="M32.92,14.81a.5.5,0,0,0,0,1A.5.5,0,0,0,32.92,14.81Z"/><path class="cls-1" d="M41.44,18.3a2.94,2.94,0,0,1-2.81.1,8.9,8.9,0,0,0-3.46-.85c-.64.05-.64,1.05,0,1,1.31-.09,2.45.64,3.68,1A3.57,3.57,0,0,0,42.14,19C42.64,18.59,41.93,17.89,41.44,18.3Z"/><path class="cls-1" d="M36.75,24.25a.5.5,0,0,0,0,1A.5.5,0,0,0,36.75,24.25Z"/><path class="cls-1" d="M39.05,38.34l-2.55-.28a.49.49,0,0,0-.5.5.52.52,0,0,0,.5.5l2.55.28a.5.5,0,0,0,.5-.5A.52.52,0,0,0,39.05,38.34Z"/><path class="cls-1" d="M41.84,54.76a.52.52,0,0,0-.69-.18l-.11,0-.2.06-.2,0h-.11a2.81,2.81,0,0,1-.41,0H40l-.2,0-.19-.06-.09,0-.07,0,0,0-.1,0-.18-.1-.17-.12h0l-.08-.06c-.11-.1-.2-.2-.3-.31a.49.49,0,0,0-.7,0,.5.5,0,0,0,0,.7,3.29,3.29,0,0,0,3.82.86A.51.51,0,0,0,41.84,54.76Z"/><path class="cls-1" d="M40.84,58.47H39.05a.5.5,0,0,0,0,1h1.79a.5.5,0,0,0,0-1Z"/><path class="cls-1" d="M11,10.79,8.64,9a.5.5,0,0,0-.38,0,.47.47,0,0,0-.3.23.51.51,0,0,0,.18.69l2.31,1.76a.53.53,0,0,0,.39.05.5.5,0,0,0,.3-.23A.52.52,0,0,0,11,10.79Z"/><path class="cls-1" d="M7.39,26.09,1.73,23.65a.51.51,0,0,0-.68.18.49.49,0,0,0,.18.68L6.89,27a.52.52,0,0,0,.68-.18A.51.51,0,0,0,7.39,26.09Z"/><path class="cls-1" d="M5.46,44.91A27,27,0,0,0,.24,47.29c-.55.33,0,1.2.5.87a24.89,24.89,0,0,1,5-2.28C6.33,45.67,6.07,44.71,5.46,44.91Z"/><path class="cls-1" d="M11.52,60.77l-8,6.62c-.49.41.22,1.12.71.71l8-6.62C12.72,61.07,12,60.36,11.52,60.77Z"/><path class="cls-1" d="M23.57,70.87a.49.49,0,0,0-.7,0l-2.05,2a.5.5,0,0,0,.71.71l2-2.05A.49.49,0,0,0,23.57,70.87Z"/><path class="cls-1" d="M29,2.93,28.54.37A.5.5,0,0,0,27.93,0a.51.51,0,0,0-.35.61l.48,2.56a.49.49,0,0,0,.61.35A.51.51,0,0,0,29,2.93Z"/><path class="cls-1" d="M49.71,1a33.83,33.83,0,0,1-6.87,4.9c-.57.31-.07,1.17.5.87a34.7,34.7,0,0,0,7.07-5.07C50.89,1.21,50.18.51,49.71,1Z"/><path class="cls-1" d="M58.61,10.42a.5.5,0,0,0-.71,0l-3,3.08a.5.5,0,0,0,.71.71l3-3.09A.49.49,0,0,0,58.61,10.42Z"/><path class="cls-1" d="M64.18,26.52a17.36,17.36,0,0,1-5,.78.5.5,0,0,0,0,1,18.46,18.46,0,0,0,5.22-.81C65.06,27.3,64.8,26.33,64.18,26.52Z"/><path class="cls-1" d="M66.54,43.07a20.27,20.27,0,0,1-5.76-3.52c-.48-.42-1.19.28-.71.7A21.58,21.58,0,0,0,66.27,44a.5.5,0,0,0,.27-1Z"/><path class="cls-1" d="M64.33,57.46a7.31,7.31,0,0,1-3.07-1,.51.51,0,0,0-.69.17.52.52,0,0,0,.18.69,8.41,8.41,0,0,0,3.58,1.1.5.5,0,0,0,.5-.5A.51.51,0,0,0,64.33,57.46Z"/><path class="cls-1" d="M56.8,71.85a10.72,10.72,0,0,1-3.46-5.11c-.19-.61-1.16-.35-1,.27a11.69,11.69,0,0,0,3.71,5.55.52.52,0,0,0,.71,0A.51.51,0,0,0,56.8,71.85Z"/><path class="cls-1" d="M39.71,71.51a.52.52,0,0,0-.62.35L36.84,77.5a.5.5,0,0,0,.35.61.52.52,0,0,0,.62-.35l2.25-5.63A.51.51,0,0,0,39.71,71.51Z"/><path class="cls-1" d="M19.74,44.06a.51.51,0,0,0-.35-.15l-.13,0a.54.54,0,0,0-.22.13l-1.29,1a.51.51,0,0,0,.35.86l.13,0a.45.45,0,0,0,.22-.13l1.29-1a.49.49,0,0,0,.15-.36A.49.49,0,0,0,19.74,44.06Z"/><path class="cls-1" d="M23.73,51.83a.5.5,0,0,0,0,1A.5.5,0,0,0,23.73,51.83Z"/><path class="cls-1" d="M48.75,39.83a.5.5,0,0,0,0,1A.5.5,0,0,0,48.75,39.83Z"/><path class="cls-1" d="M48.67,48l-.08-.1a.71.71,0,0,0-.22-.13l-1.28-.51a.5.5,0,0,0-.61.35.46.46,0,0,0,.05.38l.07.1a.46.46,0,0,0,.22.13l1.28.52a.59.59,0,0,0,.39,0,.53.53,0,0,0,.23-.3A.59.59,0,0,0,48.67,48Z"/><path class="cls-1" d="M20.16,22.72a.5.5,0,0,0,0,1A.5.5,0,0,0,20.16,22.72Z"/><path class="cls-1" d="M56,24.91c-.18-.44-.27-.91-.46-1.35a1.66,1.66,0,0,0-1.46-1.06,9.22,9.22,0,0,0-2.67-3,.5.5,0,0,0-.74.46.41.41,0,0,0-.6-.1,1.79,1.79,0,0,0-.63,2.1c.31.93,1.18,1.44,1.78,2.17,1.23,1.51,1.17,3.68,1.13,5.51a.5.5,0,0,0,1,0,11.38,11.38,0,0,0-.69-5.05,6.43,6.43,0,0,0-1.52-2c-.38-.36-1.31-1.41-.57-1.91a.48.48,0,0,0,.22-.46.63.63,0,0,0,.12.1c1.1.64,1.78,2,2.5,3a.53.53,0,0,0,.57.23c.7-.2.87,1.25,1.06,1.68s0,.57-.24.9a11.37,11.37,0,0,0-.55,1,13.19,13.19,0,0,0-1.18,4.17c-.07.64.93.64,1,0a11.53,11.53,0,0,1,.71-2.89A10.22,10.22,0,0,1,55.45,27a9.49,9.49,0,0,0,.61-1.07A1.22,1.22,0,0,0,56,24.91Z"/><path class="cls-1" d="M57.36,42.38l-.17-.06a6.7,6.7,0,0,0-.9-3.58.49.49,0,0,0-.68-.18.47.47,0,0,0-.27-.1.51.51,0,0,0-.5.5l-.33,2.68c-.09.73-.43,1.91.54,2.2a1.84,1.84,0,0,0,1-.05l.57-.14a3.51,3.51,0,0,0,.63-.19A.62.62,0,0,0,57.36,42.38Zm-1.84.52h-.16c0-.2,0-.4.07-.61l.3-2.42a5.89,5.89,0,0,1,.46,2.69.57.57,0,0,0,0,.18h0C56,42.79,55.75,42.87,55.52,42.9Z"/><path class="cls-1" d="M55,57.65a.51.51,0,0,0-.69-.18,28.35,28.35,0,0,1-3,1.8,5.56,5.56,0,0,0-2.54,1.82,2.24,2.24,0,0,0-.31,1.49c.05.27.15.58.44.67a1.93,1.93,0,0,0,.83,0A4.39,4.39,0,0,0,52,61.57l2.74-3.15a.7.7,0,0,0,.1-.19A.5.5,0,0,0,55,57.65ZM51.47,60.7c-.5.57-1.22,1.54-2.07,1.59-.08-.95,1.14-1.55,1.87-1.92.31-.15.6-.32.9-.48Z"/><path class="cls-1" d="M16.56,54.49a.5.5,0,0,0-.23-.3l-.84-.37a.6.6,0,0,0-.19-.06.45.45,0,0,0-.2,0,.5.5,0,0,0-.12.92l.84.36a.33.33,0,0,0,.19.06.46.46,0,0,0,.2,0,.52.52,0,0,0,.3-.23A.51.51,0,0,0,16.56,54.49Z"/><path class="cls-1" d="M19.52,64.33a2.94,2.94,0,0,1-.47-1.48,3.77,3.77,0,0,0-1-2.47c.19-.62-.77-.88-1-.27v0a.38.38,0,0,0-.13.15.52.52,0,0,0,0,.41A5.57,5.57,0,0,0,16.87,64a3.53,3.53,0,0,0,2.61,2.28.52.52,0,0,0,.61-.35C20.35,65.28,19.87,64.77,19.52,64.33Zm-1.74-.81a4.15,4.15,0,0,1,0-1.92,5.39,5.39,0,0,1,.34,1.56,4.08,4.08,0,0,0,.41,1.42.67.67,0,0,0,.09.14A2.52,2.52,0,0,1,17.78,63.52Z"/></g></g></svg>