<svg width="283" height="29" viewBox="0 0 283 29" fill="none" xmlns="http://www.w3.org/2000/svg">
<path d="M11.312 6.48V7.48H11.93L12.2064 6.92722L11.312 6.48ZM8.092 6.928L7.70737 6.00489L7.69944 6.00828L8.092 6.928ZM0.924 6.844L1.33014 5.93019L0.15578 7.48419L0.924 6.844ZM2.1 25.044L3.09805 25.1064L3.1 25.0752V25.044H2.1ZM1.428 27.956L2.32243 28.4032L2.33071 28.3867L2.33837 28.3698L1.428 27.956ZM1.4 28.012L2.28047 28.4861L2.28765 28.4728L2.29443 28.4592L1.4 28.012ZM0.952 28.712L1.65911 29.4191L1.70936 29.3689L1.752 29.312L0.952 28.712ZM0.896 28.768L0.188893 28.0609L-1.51821 29.768H0.896V28.768ZM7.616 28.768V29.768H9.69663L8.39687 28.1433L7.616 28.768ZM7.504 28.628L6.6976 29.2194L6.71001 29.2363L6.72313 29.2527L7.504 28.628ZM6.44 24.4H7.44V24.1639L7.33443 23.9528L6.44 24.4ZM6.412 24.344H5.412V24.5801L5.51757 24.7912L6.412 24.344ZM6.412 20.788L7.22354 20.2037L5.412 17.6877V20.788H6.412ZM11.34 6.424V5.424H10.722L10.4456 5.97678L11.34 6.424ZM10.92 22.048H11.92V21.048H10.92V22.048ZM10.92 22.076H9.92V23.076H10.92V22.076ZM11.312 5.48C10.8009 5.48 10.1212 5.52562 9.48135 5.60699C8.87091 5.68462 8.17866 5.80856 7.70738 6.00492L8.47662 7.85108C8.67734 7.76744 9.13309 7.66738 9.73365 7.59101C10.3048 7.51838 10.8991 7.48 11.312 7.48V5.48ZM7.69944 6.00828C5.66812 6.8753 3.35356 6.82948 1.33014 5.93019L0.517861 7.75781C3.03044 8.87451 5.92388 8.9407 8.48456 7.84772L7.69944 6.00828ZM0.15578 7.48419C0.153691 7.48168 0.392923 7.78528 0.631389 8.40409C0.866325 9.01373 1.1 9.92811 1.1 11.156H3.1C3.1 8.17787 1.96289 6.52861 1.69222 6.20381L0.15578 7.48419ZM1.1 11.156V25.044H3.1V11.156H1.1ZM1.10195 24.9816C1.02586 26.1989 0.749447 27.0322 0.517634 27.5422L2.33837 28.3698C2.66655 27.6478 3.00614 26.5771 3.09805 25.1064L1.10195 24.9816ZM0.533573 27.5088L0.505573 27.5648L2.29443 28.4592L2.32243 28.4032L0.533573 27.5088ZM0.519529 27.5379C0.357824 27.8382 0.223532 28.0166 0.151999 28.112L1.752 29.312C1.84847 29.1834 2.05018 28.9138 2.28047 28.4861L0.519529 27.5379ZM0.244893 28.0049L0.188893 28.0609L1.60311 29.4751L1.65911 29.4191L0.244893 28.0049ZM0.896 29.768H7.616V27.768H0.896V29.768ZM8.39687 28.1433L8.28487 28.0033L6.72313 29.2527L6.83513 29.3927L8.39687 28.1433ZM8.3104 28.0366C8.1275 27.7872 7.44 26.6782 7.44 24.4H5.44C5.44 27.1058 6.2645 28.6288 6.6976 29.2194L8.3104 28.0366ZM7.33443 23.9528L7.30643 23.8968L5.51757 24.7912L5.54557 24.8472L7.33443 23.9528ZM7.412 24.344V20.788H5.412V24.344H7.412ZM5.60047 21.3723C6.82594 23.0743 9.30852 24.28 11.9 24.28V22.28C9.84348 22.28 8.01406 21.3017 7.22354 20.2037L5.60047 21.3723ZM11.9 24.28C14.9814 24.28 17.2506 23.2435 18.7252 21.4425C20.1718 19.6758 20.74 17.3115 20.74 14.852H18.74C18.74 17.0405 18.2302 18.8902 17.1778 20.1755C16.1534 21.4265 14.5026 22.28 11.9 22.28V24.28ZM20.74 14.852C20.74 12.3406 20.0054 9.97285 18.4109 8.22174C16.8024 6.45523 14.4165 5.424 11.34 5.424V7.424C13.9475 7.424 15.7616 8.28277 16.9321 9.56826C18.1166 10.8692 18.74 12.7154 18.74 14.852H20.74ZM10.4456 5.97678L10.4176 6.03277L12.2064 6.92722L12.2344 6.87122L10.4456 5.97678ZM10.92 21.048C9.75483 21.048 8.90944 20.3186 8.30194 19.0422C7.69058 17.7577 7.44 16.123 7.44 14.88H5.44C5.44 16.325 5.72143 18.2743 6.49606 19.9018C7.27456 21.5374 8.66917 23.048 10.92 23.048V21.048ZM7.44 14.88C7.44 12.8585 7.70568 11.2627 8.27854 10.2038C8.55595 9.69104 8.89443 9.32442 9.2964 9.08129C9.69726 8.83884 10.2193 8.684 10.92 8.684V6.684C9.91266 6.684 9.02074 6.91066 8.26135 7.36996C7.50307 7.82858 6.93505 8.48396 6.51946 9.25218C5.70632 10.7553 5.44 12.7575 5.44 14.88H7.44ZM10.92 8.684C11.8286 8.684 12.6621 9.18304 13.3151 10.25C13.9776 11.3326 14.4 12.9369 14.4 14.88H16.4C16.4 12.6791 15.9264 10.6854 15.0209 9.20598C14.106 7.71096 12.6994 6.684 10.92 6.684V8.684ZM14.4 14.88C14.4 16.8382 13.9772 18.4416 13.3157 19.5194C12.6647 20.5802 11.8321 21.076 10.92 21.076V23.076C12.6959 23.076 14.1033 22.0598 15.0203 20.5656C15.9268 19.0884 16.4 17.0938 16.4 14.88H14.4ZM11.92 22.076V22.048H9.92V22.076H11.92ZM54.8006 6.928L54.416 6.00489L54.408 6.00828L54.8006 6.928ZM47.2406 6.844L47.6467 5.93019L44.496 4.52986L46.4085 7.3987L47.2406 6.844ZM47.8006 7.908L48.734 7.54901L48.7318 7.5436L47.8006 7.908ZM48.3606 11.156H47.3606L47.3606 11.1597L48.3606 11.156ZM48.3886 18.632H49.3886L49.3886 18.6283L48.3886 18.632ZM47.3246 22.86L48.1055 23.4847L48.1186 23.4683L48.131 23.4514L47.3246 22.86ZM47.2126 23L46.4317 22.3753L45.132 24H47.2126V23ZM53.9326 23V24H56.3468L54.6397 22.2929L53.9326 23ZM53.8766 22.944L53.0766 23.544L53.1192 23.6009L53.1695 23.6511L53.8766 22.944ZM53.4286 22.244L52.5342 22.6912L52.5409 22.7048L52.5481 22.7181L53.4286 22.244ZM53.4006 22.188L52.4853 22.5907L52.4952 22.6132L52.5062 22.6352L53.4006 22.188ZM52.7566 18.688H53.7566L53.7566 18.682L52.7566 18.688ZM52.7286 13.984H51.7286L51.7286 13.99L52.7286 13.984ZM57.7406 13.228L56.8082 12.8665L56.2803 14.228H57.7406V13.228ZM57.2086 5.48C56.1642 5.48 55.2201 5.66985 54.416 6.00492L55.1852 7.85108C55.725 7.62614 56.405 7.48 57.2086 7.48V5.48ZM54.408 6.00828C52.3753 6.8759 49.6687 6.82885 47.6467 5.93019L46.8345 7.75781C49.3485 8.87515 52.6339 8.9401 55.1932 7.84772L54.408 6.00828ZM46.4085 7.3987C46.4653 7.48381 46.6609 7.73974 46.8694 8.2724L48.7318 7.5436C48.5859 7.17061 48.4371 6.87982 48.3121 6.66428C48.2497 6.55659 48.1941 6.46932 48.1494 6.402C48.1272 6.36856 48.1081 6.34077 48.0937 6.31986C48.0815 6.30207 48.0859 6.3085 48.0768 6.29533C48.0722 6.28864 48.0716 6.28775 48.0726 6.2893L46.4085 7.3987ZM46.8672 8.26698C47.107 8.89024 47.3606 9.86083 47.3606 11.156H49.3606C49.3606 9.59517 49.0542 8.38176 48.7339 7.54902L46.8672 8.26698ZM47.3606 11.1597L47.3886 18.6357L49.3886 18.6283L49.3606 11.1523L47.3606 11.1597ZM47.3886 18.632C47.3886 20.9102 46.7011 22.0192 46.5182 22.2686L48.131 23.4514C48.5641 22.8608 49.3886 21.3378 49.3886 18.632H47.3886ZM46.5437 22.2353L46.4317 22.3753L47.9935 23.6247L48.1055 23.4847L46.5437 22.2353ZM47.2126 24H53.9326V22H47.2126V24ZM54.6397 22.2929L54.5837 22.2369L53.1695 23.6511L53.2255 23.7071L54.6397 22.2929ZM54.6766 22.344C54.6051 22.2486 54.4708 22.0702 54.3091 21.7699L52.5481 22.7181C52.7784 23.1458 52.9801 23.4154 53.0766 23.544L54.6766 22.344ZM54.323 21.7968L54.295 21.7408L52.5062 22.6352L52.5342 22.6912L54.323 21.7968ZM54.3159 21.7853C54.0628 21.21 53.7566 20.2269 53.7566 18.688H51.7566C51.7566 20.5091 52.1224 21.766 52.4853 22.5907L54.3159 21.7853ZM53.7566 18.682L53.7286 13.978L51.7286 13.99L51.7566 18.694L53.7566 18.682ZM53.7286 13.984C53.7286 11.9448 53.9941 10.6405 54.5091 9.85751C54.9563 9.17752 55.6978 8.74 57.1806 8.74V6.74C55.2474 6.74 53.7629 7.35248 52.8381 8.75849C51.9811 10.0615 51.7286 11.8792 51.7286 13.984H53.7286ZM57.1806 8.74C57.2636 8.74 57.3132 8.75055 57.3387 8.75831C57.3625 8.76556 57.3716 8.77219 57.3744 8.77434C57.3767 8.77604 57.4154 8.80425 57.4573 8.92527C57.5549 9.20656 57.5711 9.69573 57.4786 10.3426C57.3908 10.9575 57.2246 11.5889 57.0749 12.0778C57.0009 12.3195 56.9328 12.5204 56.8837 12.6595C56.8592 12.729 56.8396 12.7827 56.8264 12.8182C56.8198 12.8359 56.8149 12.849 56.8118 12.8572C56.8102 12.8612 56.8091 12.8641 56.8085 12.8657C56.8082 12.8664 56.8081 12.8669 56.808 12.867C56.808 12.8671 56.808 12.8671 56.808 12.867C56.808 12.867 56.8081 12.8668 56.8081 12.8668C56.8082 12.8666 56.8082 12.8665 57.7406 13.228C58.673 13.5895 58.673 13.5893 58.6731 13.5891C58.6732 13.589 58.6733 13.5887 58.6734 13.5885C58.6735 13.5881 58.6737 13.5876 58.6739 13.587C58.6744 13.5858 58.675 13.5842 58.6757 13.5824C58.6771 13.5787 58.6791 13.5737 58.6814 13.5674C58.6862 13.5548 58.6929 13.537 58.7013 13.5146C58.718 13.4696 58.7414 13.4055 58.7698 13.3249C58.8266 13.1639 58.9038 12.936 58.9873 12.6632C59.1526 12.1231 59.3504 11.3825 59.4585 10.6254C59.5621 9.90027 59.6063 9.01744 59.3469 8.26973C59.2103 7.87625 58.9742 7.47571 58.5784 7.17729C58.1762 6.87413 57.6935 6.74 57.1806 6.74V8.74ZM57.7406 14.228H60.3166V12.228H57.7406V14.228ZM60.3166 14.228C61.8693 14.228 63.0806 12.9477 63.0806 11.436H61.0806C61.0806 11.8843 60.7239 12.228 60.3166 12.228V14.228ZM63.0806 11.436C63.0806 9.94445 62.8559 8.40749 61.8948 7.24862C60.9 6.04913 59.3142 5.48 57.1246 5.48V7.48C58.995 7.48 59.8872 7.96086 60.3554 8.52538C60.8572 9.1305 61.0806 10.0716 61.0806 11.436H63.0806ZM57.1246 7.48H57.2086V5.48H57.1246V7.48ZM100.662 21.684L101.002 22.6242L100.662 20.684V21.684ZM95.7615 8.132L96.1021 9.07222L95.7615 8.132ZM102.566 13.34L101.624 13.6781L102.566 13.34ZM100.634 21.684L100.293 20.7438L100.634 22.684V21.684ZM98.1975 5.48C94.9074 5.48 92.3729 6.49511 90.6626 8.25383C88.9597 10.005 88.1815 12.3827 88.1815 14.908H90.1815C90.1815 12.7853 90.8314 10.949 92.0964 9.64817C93.3541 8.35488 95.3277 7.48 98.1975 7.48V5.48ZM88.1815 14.908C88.1815 17.4333 88.9597 19.811 90.6626 21.5622C92.3729 23.3209 94.9074 24.336 98.1975 24.336V22.336C95.3277 22.336 93.3541 21.4611 92.0964 20.1678C90.8314 18.867 90.1815 17.0307 90.1815 14.908H88.1815ZM98.1975 24.336C101.488 24.336 104.022 23.3209 105.732 21.5622C107.435 19.811 108.214 17.4333 108.214 14.908H106.214C106.214 17.0307 105.564 18.867 104.299 20.1678C103.041 21.4611 101.067 22.336 98.1975 22.336V24.336ZM108.214 14.908C108.214 12.3827 107.435 10.005 105.732 8.25383C104.022 6.49511 101.488 5.48 98.1975 5.48V7.48C101.067 7.48 103.041 8.35488 104.299 9.64817C105.564 10.949 106.214 12.7853 106.214 14.908H108.214ZM100.321 20.7438C99.6139 20.9999 99.0211 21.0008 98.5102 20.8597C97.9875 20.7153 97.4872 20.4038 97.0115 19.9414C96.0426 18.9996 95.2947 17.5469 94.7987 16.1659L92.9164 16.8421C93.4563 18.3451 94.3324 20.1264 95.6175 21.3756C96.2689 22.0087 97.053 22.532 97.9776 22.7874C98.914 23.0462 99.9311 23.0121 101.002 22.6242L100.321 20.7438ZM94.7987 16.1659C94.3015 14.782 93.9435 13.1762 94.0823 11.8214C94.1505 11.1561 94.3343 10.5924 94.6423 10.1444C94.9429 9.70702 95.3969 9.32764 96.1021 9.07222L95.421 7.19177C94.3482 7.58036 93.5457 8.20898 92.9941 9.01148C92.4498 9.80334 92.1856 10.7114 92.0927 11.6176C91.9095 13.4058 92.3776 15.342 92.9164 16.8421L94.7987 16.1659ZM96.1021 9.07222C96.8078 8.81662 97.3994 8.81697 97.9096 8.95979C98.4321 9.10605 98.9328 9.42026 99.4092 9.88633C100.38 10.8355 101.128 12.2961 101.624 13.6781L103.507 13.0019C102.967 11.4999 102.092 9.71248 100.808 8.45667C100.157 7.82024 99.3735 7.2927 98.4487 7.03383C97.5117 6.77153 96.4933 6.80338 95.421 7.19177L96.1021 9.07222ZM101.624 13.6781C102.121 15.0602 102.472 16.6575 102.327 18.0037C102.256 18.6646 102.07 19.2254 101.76 19.672C101.457 20.1085 101 20.4877 100.293 20.7438L100.974 22.6242C102.045 22.2363 102.848 21.611 103.403 20.8129C103.95 20.0249 104.219 19.1209 104.316 18.2173C104.507 16.4345 104.046 14.5038 103.507 13.0019L101.624 13.6781ZM100.634 22.684H100.662V20.684H100.634V22.684ZM146.857 0.852V-0.148H144.589L146.118 1.52627L146.857 0.852ZM148.033 8.972L147.221 9.5563L149.033 12.0723V8.972H148.033ZM148.201 20.592L149.147 20.2701L148.494 18.3489L147.368 20.0373L148.201 20.592ZM153.549 23V24H155.816L154.287 22.3257L153.549 23ZM143.525 22.104V23.104H144.525V22.104H143.525ZM143.525 22.076V21.076H142.525V22.076H143.525ZM153.372 18.688V4.408H151.372V18.688H153.372ZM153.372 4.408C153.372 3.07708 152.699 1.92958 151.789 1.13978C150.881 0.351788 149.666 -0.148 148.424 -0.148V1.852C149.143 1.852 149.902 2.15021 150.478 2.65022C151.052 3.14842 151.372 3.77892 151.372 4.408H153.372ZM148.424 -0.148H146.857V1.852H148.424V-0.148ZM146.857 0.852C146.118 1.52627 146.118 1.52585 146.117 1.52543C146.117 1.5253 146.117 1.52489 146.117 1.52462C146.116 1.52409 146.116 1.52358 146.115 1.52309C146.114 1.5221 146.113 1.52118 146.113 1.52034C146.111 1.51866 146.11 1.51727 146.109 1.51618C146.107 1.51399 146.106 1.51298 146.106 1.51318C146.107 1.51356 146.111 1.51872 146.119 1.52877C146.135 1.54886 146.164 1.58851 146.204 1.6486C146.282 1.76861 146.4 1.97095 146.522 2.26309C146.765 2.84436 147.033 3.79829 147.033 5.192H149.033C149.033 3.53371 148.712 2.31764 148.367 1.49191C148.195 1.08055 148.019 0.770134 147.877 0.553278C147.806 0.444929 147.744 0.36011 147.695 0.297843C147.671 0.266711 147.65 0.24122 147.633 0.221244C147.625 0.211256 147.617 0.202646 147.611 0.1954C147.608 0.191776 147.605 0.188493 147.602 0.185549C147.601 0.184077 147.599 0.182689 147.598 0.181386C147.598 0.180735 147.597 0.180104 147.597 0.179495C147.596 0.17919 147.596 0.178749 147.596 0.178597C147.595 0.178161 147.595 0.17773 146.857 0.852ZM147.033 5.192V8.972H149.033V5.192H147.033ZM148.844 8.38769C147.615 6.68093 145.101 5.48 142.489 5.48V7.48C144.58 7.48 146.434 8.46307 147.221 9.5563L148.844 8.38769ZM142.489 5.48C139.596 5.48 137.357 6.53005 135.858 8.306C134.38 10.0577 133.704 12.4148 133.704 14.908H135.704C135.704 12.7532 136.289 10.8963 137.387 9.596C138.464 8.31995 140.117 7.48 142.489 7.48V5.48ZM133.704 14.908C133.704 17.4308 134.48 19.7835 135.99 21.521C137.514 23.2742 139.733 24.336 142.461 24.336V22.336C140.288 22.336 138.629 21.5078 137.5 20.209C136.357 18.8945 135.704 17.0332 135.704 14.908H133.704ZM142.461 24.336C145.242 24.336 147.815 22.9726 149.033 21.1467L147.368 20.0373C146.57 21.2354 144.663 22.336 142.461 22.336V24.336ZM147.254 20.9139C147.584 21.8854 148.313 22.6534 149.137 23.1688C149.964 23.6864 150.965 24 151.952 24V22C151.372 22 150.735 21.8096 150.197 21.4732C149.656 21.1346 149.293 20.6986 149.147 20.2701L147.254 20.9139ZM151.952 24H153.549V22H151.952V24ZM153.549 23C154.287 22.3257 154.287 22.3262 154.288 22.3266C154.288 22.3267 154.288 22.3271 154.288 22.3274C154.289 22.3279 154.289 22.3284 154.29 22.3289C154.291 22.3299 154.292 22.3308 154.292 22.3317C154.294 22.3333 154.295 22.3347 154.296 22.3358C154.298 22.338 154.299 22.339 154.299 22.3388C154.298 22.3384 154.294 22.3333 154.286 22.3232C154.27 22.3031 154.241 22.2635 154.201 22.2034C154.123 22.0834 154.005 21.8811 153.883 21.5889C153.64 21.0076 153.372 20.0537 153.372 18.66H151.372C151.372 20.3183 151.693 21.5344 152.038 22.3601C152.21 22.7714 152.386 23.0819 152.528 23.2987C152.599 23.4071 152.661 23.4919 152.71 23.5542C152.734 23.5853 152.755 23.6108 152.772 23.6308C152.78 23.6407 152.788 23.6494 152.794 23.6566C152.797 23.6602 152.8 23.6635 152.803 23.6665C152.804 23.6679 152.806 23.6693 152.807 23.6706C152.807 23.6713 152.808 23.6719 152.808 23.6725C152.809 23.6728 152.809 23.6733 152.809 23.6734C152.81 23.6738 152.81 23.6743 153.549 23ZM151.372 18.66V18.688H153.372V18.66H151.372ZM143.525 21.104C142.614 21.104 141.789 20.6102 141.145 19.5508C140.489 18.4731 140.073 16.8689 140.073 14.908H138.073C138.073 17.1191 138.538 19.1129 139.436 20.5902C140.346 22.0858 141.747 23.104 143.525 23.104V21.104ZM140.073 14.908C140.073 12.9622 140.489 11.357 141.146 10.2746C141.792 9.209 142.618 8.712 143.525 8.712V6.712C141.743 6.712 140.343 7.741 139.436 9.23739C138.538 10.717 138.073 12.7098 138.073 14.908H140.073ZM143.525 8.712C144.225 8.712 144.747 8.86684 145.148 9.10929C145.55 9.35242 145.889 9.71904 146.166 10.2318C146.739 11.2907 147.005 12.8865 147.005 14.908H149.005C149.005 12.7855 148.738 10.7833 147.925 9.28018C147.509 8.51196 146.941 7.85658 146.183 7.39796C145.424 6.93866 144.532 6.712 143.525 6.712V8.712ZM147.005 14.908C147.005 16.1477 146.748 17.7827 146.133 19.0685C145.52 20.349 144.674 21.076 143.525 21.076V23.076C145.763 23.076 147.157 21.563 147.937 19.9315C148.715 18.3053 149.005 16.3563 149.005 14.908H147.005ZM142.525 22.076V22.104H144.525V22.076H142.525ZM197.942 18.66L196.942 18.6637L198.836 19.1072L197.942 18.66ZM197.914 11.184H196.914L196.914 11.1877L197.914 11.184ZM198.978 6.956L198.197 6.3313L198.184 6.3477L198.171 6.36464L198.978 6.956ZM199.09 6.816L199.87 7.4407L201.17 5.816H199.09V6.816ZM192.37 6.816V5.816H189.955L191.663 7.52311L192.37 6.816ZM192.426 6.872L193.226 6.272L193.183 6.21514L193.133 6.16489L192.426 6.872ZM192.874 7.572L193.768 7.12479L193.761 7.11124L193.754 7.0979L192.874 7.572ZM192.902 7.628L193.817 7.22526L193.807 7.20277L193.796 7.18079L192.902 7.628ZM193.546 11.128H192.546L192.546 11.134L193.546 11.128ZM193.574 15.832H194.574L194.574 15.826L193.574 15.832ZM186.49 6.928L185.709 6.30331L185.696 6.3197L185.683 6.33664L186.49 6.928ZM186.602 6.788L187.382 7.41269L188.682 5.788H186.602V6.788ZM180.274 6.788V5.788H177.859L179.567 7.4951L180.274 6.788ZM180.33 6.844L181.13 6.244L181.087 6.18715L181.037 6.1369L180.33 6.844ZM180.778 7.544L181.672 7.09679L181.665 7.08324L181.658 7.0699L180.778 7.544ZM180.806 7.6L181.721 7.19726L181.711 7.17477L181.7 7.15279L180.806 7.6ZM191.922 22.832L192.306 23.7551L192.314 23.7517L191.922 22.832ZM199.09 22.916L198.683 23.8298L201.834 25.2301L199.922 22.3613L199.09 22.916ZM198.53 21.852L197.596 22.211L197.598 22.2164L198.53 21.852ZM197.97 18.604H198.97L197.075 18.1568L197.97 18.604ZM198.942 18.6563L198.914 11.1803L196.914 11.1877L196.942 18.6637L198.942 18.6563ZM198.914 11.184C198.914 8.90585 199.601 7.79678 199.784 7.54736L198.171 6.36464C197.738 6.95522 196.914 8.47815 196.914 11.184H198.914ZM199.758 7.5807L199.87 7.4407L198.309 6.1913L198.197 6.3313L199.758 7.5807ZM199.09 5.816H192.37V7.816H199.09V5.816ZM191.663 7.52311L191.719 7.57911L193.133 6.16489L193.077 6.10889L191.663 7.52311ZM191.626 7.472C191.697 7.56738 191.831 7.74579 191.993 8.0461L193.754 7.0979C193.524 6.67021 193.322 6.40062 193.226 6.272L191.626 7.472ZM191.979 8.01921L192.007 8.07521L193.796 7.18079L193.768 7.12479L191.979 8.01921ZM191.986 8.03074C192.239 8.60603 192.546 9.58907 192.546 11.128H194.546C194.546 9.30693 194.18 8.04997 193.817 7.22526L191.986 8.03074ZM192.546 11.134L192.574 15.838L194.574 15.826L194.546 11.122L192.546 11.134ZM192.574 15.832C192.574 17.8712 192.308 19.1755 191.793 19.9585C191.346 20.6385 190.604 21.076 189.122 21.076V23.076C191.055 23.076 192.539 22.4635 193.464 21.0575C194.321 19.7545 194.574 17.9368 194.574 15.832H192.574ZM189.122 21.076C188.58 21.076 188.188 20.9709 187.895 20.8083C187.605 20.6482 187.353 20.3999 187.137 20.0169C186.681 19.2079 186.426 17.8649 186.426 15.832H184.426C184.426 17.9431 184.675 19.7221 185.395 20.9991C185.767 21.6591 186.27 22.1948 186.926 22.558C187.577 22.9186 188.319 23.076 189.122 23.076V21.076ZM186.426 15.832V11.156H184.426V15.832H186.426ZM186.426 11.156C186.426 8.87785 187.113 7.76878 187.296 7.51936L185.683 6.33664C185.25 6.92722 184.426 8.45015 184.426 11.156H186.426ZM187.27 7.55269L187.382 7.41269L185.821 6.16331L185.709 6.30331L187.27 7.55269ZM186.602 5.788H180.274V7.788H186.602V5.788ZM179.567 7.4951L179.623 7.5511L181.037 6.1369L180.981 6.0809L179.567 7.4951ZM179.53 7.444C179.601 7.53938 179.735 7.71779 179.897 8.0181L181.658 7.0699C181.428 6.64221 181.226 6.37262 181.13 6.244L179.53 7.444ZM179.883 7.99121L179.911 8.04721L181.7 7.15279L181.672 7.09679L179.883 7.99121ZM179.89 8.00274C180.143 8.57803 180.45 9.56107 180.45 11.1H182.45C182.45 9.27893 182.084 8.02197 181.721 7.19726L179.89 8.00274ZM180.45 11.1V14.852H182.45V11.1H180.45ZM180.45 14.852C180.45 17.2956 180.969 19.6589 182.37 21.4295C183.804 23.2418 186.039 24.28 189.122 24.28V22.28C186.521 22.28 184.919 21.4282 183.938 20.1885C182.924 18.9071 182.45 17.0564 182.45 14.852H180.45ZM189.122 24.28C190.11 24.28 191.463 24.1066 192.306 23.7551L191.537 21.9089C191.037 22.1174 189.981 22.28 189.122 22.28V24.28ZM192.314 23.7517C194.346 22.8847 196.66 22.9305 198.683 23.8298L199.496 22.0022C196.983 20.8855 194.09 20.8193 191.529 21.9123L192.314 23.7517ZM199.922 22.3613C199.865 22.2762 199.669 22.0203 199.461 21.4876L197.598 22.2164C197.744 22.5894 197.893 22.8802 198.018 23.0957C198.081 23.2034 198.136 23.2907 198.181 23.358C198.203 23.3914 198.222 23.4192 198.236 23.4401C198.249 23.4579 198.244 23.4515 198.253 23.4647C198.258 23.4714 198.259 23.4722 198.258 23.4707L199.922 22.3613ZM199.463 21.493C199.223 20.8698 198.97 19.8992 198.97 18.604H196.97C196.97 20.1648 197.276 21.3782 197.596 22.211L199.463 21.493ZM197.075 18.1568L197.047 18.2128L198.836 19.1072L198.864 19.0512L197.075 18.1568ZM230.993 15.944L230.016 16.1542L230.993 15.944ZM234.045 7.852L234.258 8.82905L234.262 8.82819L234.045 7.852ZM239.785 12.752L238.806 12.552L238.561 13.752H239.785V12.752ZM244.041 10.596L243.128 11.0021V11.0021L244.041 10.596ZM244.125 17.848L245.06 18.2029L243.418 17.1409L244.125 17.848ZM236.985 20.936C235.56 20.936 234.487 20.3402 233.672 19.4062C232.836 18.4475 232.27 17.1222 231.971 15.7338L230.016 16.1542C230.361 17.7618 231.041 19.4325 232.165 20.7208C233.31 22.0338 234.911 22.936 236.985 22.936V20.936ZM231.971 15.7338C231.663 14.2999 231.527 12.6515 231.853 11.3164C232.164 10.0437 232.858 9.13436 234.258 8.82904L233.832 6.87496C231.509 7.38164 230.355 9.02028 229.91 10.8416C229.48 12.6005 229.68 14.5921 230.016 16.1542L231.971 15.7338ZM234.262 8.82819C235.551 8.54187 236.805 8.96188 237.69 9.74767C238.586 10.5439 238.998 11.6102 238.806 12.552L240.765 12.952C241.133 11.1498 240.312 9.40206 239.018 8.25233C237.712 7.09212 235.816 6.43412 233.829 6.87581L234.262 8.82819ZM239.785 13.752H242.641V11.752H239.785V13.752ZM242.641 13.752C244.495 13.752 245.693 11.85 244.955 10.1899L243.128 11.0021C243.286 11.358 243.028 11.752 242.641 11.752V13.752ZM244.955 10.1899C244.265 8.63601 242.84 7.4633 241.191 6.68799C239.529 5.90664 237.541 5.48 235.557 5.48V7.48C237.27 7.48 238.964 7.85136 240.34 8.49801C241.729 9.1507 242.698 10.036 243.128 11.0021L244.955 10.1899ZM235.557 5.48C232.555 5.48 230.043 6.49236 228.275 8.20471C226.508 9.91574 225.541 12.273 225.541 14.852H227.541C227.541 12.783 228.311 10.9543 229.666 9.64129C231.02 8.32964 233.015 7.48 235.557 7.48V5.48ZM225.541 14.852C225.541 20.0566 229.409 24.336 235.501 24.336V22.336C230.505 22.336 227.541 18.9434 227.541 14.852H225.541ZM235.501 24.336C238.37 24.336 240.467 23.6834 242.018 22.5278C243.562 21.3766 244.45 19.8101 245.06 18.2029L243.191 17.4931C242.653 18.9099 241.945 20.0874 240.822 20.9242C239.706 21.7566 238.065 22.336 235.501 22.336V24.336ZM243.418 17.1409C243.387 17.1721 243.365 17.1987 243.361 17.2039C243.352 17.2139 243.346 17.222 243.342 17.2263C243.335 17.2351 243.329 17.2424 243.327 17.2456C243.322 17.2525 243.316 17.2596 243.313 17.2636C243.306 17.2742 243.299 17.2837 243.288 17.2981C243.267 17.3253 243.237 17.3649 243.198 17.4154C243.119 17.5165 243 17.6628 242.846 17.8391C242.535 18.1931 242.083 18.6625 241.514 19.1291C240.361 20.0746 238.816 20.936 237.041 20.936V22.936C239.467 22.936 241.45 21.7674 242.782 20.6759C243.455 20.124 243.985 19.5731 244.349 19.158C244.532 18.9497 244.674 18.7742 244.773 18.648C244.822 18.5848 244.861 18.5343 244.887 18.4989C244.9 18.4821 244.911 18.4672 244.916 18.4607C244.919 18.4562 244.919 18.4567 244.917 18.4589C244.916 18.4597 244.912 18.4651 244.906 18.4725C244.904 18.476 244.897 18.4836 244.889 18.4932C244.886 18.4978 244.863 18.5242 244.833 18.5551L243.418 17.1409ZM237.041 20.936H236.985V22.936H237.041V20.936ZM282.501 18.968L283.448 19.2911L283.9 17.968H282.501V18.968ZM279.421 22.076L279.475 21.0774L279.471 21.0772L279.421 22.076ZM277.433 8.048V7.048H276.433V8.048H277.433ZM281.437 6.816L282.166 7.50068L283.749 5.816H281.437V6.816ZM277.405 6.816H276.405V7.816H277.405V6.816ZM277.405 3.008H278.405V0.0764096L276.614 2.39688L277.405 3.008ZM270.405 6.816V5.816H269.405V6.816H270.405ZM270.405 8.048H269.405V9.048H270.405V8.048ZM273.065 8.048H274.065V7.048H273.065V8.048ZM274.437 21.964L275.145 21.2569L274.437 21.964ZM282.473 18.968V17.968H281.428L281.474 19.0128L282.473 18.968ZM281.555 18.6449C281.387 19.1382 281.059 19.8228 280.627 20.3521C280.176 20.9053 279.781 21.0938 279.475 21.0774L279.368 23.0746C280.63 23.1422 281.578 22.3507 282.177 21.6159C282.796 20.8572 283.224 19.9458 283.448 19.2911L281.555 18.6449ZM279.471 21.0772C278.923 21.0498 278.433 20.5475 278.433 19.92H276.433C276.433 21.5325 277.68 22.9902 279.371 23.0748L279.471 21.0772ZM278.433 19.92V8.048H276.433V19.92H278.433ZM277.433 9.048H278.105V7.048H277.433V9.048ZM278.105 9.048C279.513 9.048 281.036 8.70355 282.166 7.50068L280.709 6.13132C280.103 6.77645 279.218 7.048 278.105 7.048V9.048ZM281.437 5.816H277.405V7.816H281.437V5.816ZM278.405 6.816V3.008H276.405V6.816H278.405ZM277.405 3.008C276.614 2.39688 276.614 2.39664 276.614 2.39641C276.614 2.39635 276.614 2.39614 276.615 2.39602C276.615 2.39579 276.615 2.39562 276.615 2.3955C276.615 2.39527 276.615 2.39526 276.615 2.39547C276.615 2.3959 276.614 2.39721 276.612 2.39938C276.608 2.40373 276.602 2.4115 276.593 2.42247C276.576 2.44442 276.547 2.47913 276.509 2.52477C276.431 2.61613 276.313 2.75079 276.158 2.91434C275.846 3.24253 275.39 3.68105 274.82 4.11821C273.663 5.00481 272.125 5.816 270.405 5.816V7.816C272.746 7.816 274.708 6.72319 276.036 5.70579C276.708 5.19095 277.241 4.67747 277.608 4.29165C277.791 4.0982 277.935 3.93537 278.034 3.81848C278.083 3.76 278.122 3.71289 278.149 3.67906C278.163 3.66214 278.174 3.64853 278.182 3.63846C278.186 3.63343 278.189 3.62928 278.192 3.62605C278.193 3.62443 278.194 3.62304 278.195 3.62188C278.195 3.62131 278.196 3.62079 278.196 3.62032C278.196 3.62009 278.196 3.61979 278.197 3.61968C278.197 3.61939 278.197 3.61911 277.405 3.008ZM269.405 6.816V8.048H271.405V6.816H269.405ZM270.405 9.048H273.065V7.048H270.405V9.048ZM272.065 8.048V18.688H274.065V8.048H272.065ZM272.065 18.688C272.065 20.2607 272.717 21.6578 273.73 22.6711L275.145 21.2569C274.478 20.5902 274.065 19.6913 274.065 18.688H272.065ZM273.73 22.6711C274.802 23.7426 276.65 24.336 278.133 24.336V22.336C277.041 22.336 275.753 21.8654 275.145 21.2569L273.73 22.6711ZM278.133 24.336C279.434 24.336 280.471 24.0204 281.277 23.4877C282.079 22.9576 282.588 22.255 282.908 21.5806C283.225 20.9117 283.364 20.2562 283.425 19.7777C283.456 19.5359 283.468 19.3322 283.473 19.185C283.475 19.1112 283.475 19.0511 283.474 19.0068C283.474 18.9847 283.474 18.9664 283.473 18.9524C283.473 18.9454 283.473 18.9394 283.473 18.9346C283.473 18.9321 283.473 18.9299 283.473 18.928C283.473 18.9271 283.473 18.9262 283.473 18.9254C283.472 18.925 283.472 18.9244 283.472 18.9242C283.472 18.9237 283.472 18.9232 282.473 18.968C281.474 19.0128 281.474 19.0123 281.474 19.0119C281.474 19.0117 281.474 19.0113 281.474 19.011C281.474 19.0104 281.474 19.01 281.474 19.0095C281.474 19.0087 281.474 19.0081 281.474 19.0078C281.474 19.0071 281.474 19.0074 281.474 19.0086C281.474 19.0112 281.474 19.0175 281.475 19.0273C281.475 19.047 281.475 19.0807 281.473 19.1264C281.471 19.2181 281.463 19.3556 281.441 19.5233C281.398 19.8638 281.302 20.3003 281.101 20.7234C280.903 21.141 280.611 21.5304 280.174 21.8193C279.741 22.1056 279.101 22.336 278.133 22.336V24.336ZM282.473 19.968H282.501V17.968H282.473V19.968Z" fill="#416D83"/>
</svg>
