<svg xmlns="http://www.w3.org/2000/svg" viewBox="0 0 61.57 68.45"><defs><style>.cls-1{fill:#231f20;}</style></defs><g id="Layer_2" data-name="Layer 2"><g id="Layer_5" data-name="Layer 5"><path class="cls-1" d="M43.46,55.69a6.11,6.11,0,0,0-2.16-2.94l-3.2-3c-.47-.44-1.18.26-.71.71l2.49,2.35a13.17,13.17,0,0,1,2.28,2.32,4.46,4.46,0,0,1,.3,2.93,25.58,25.58,0,0,1-.42,2.6,9.22,9.22,0,0,1-2.13,4.51,5.72,5.72,0,0,1-.46.4.29.29,0,0,0,0-.16.52.52,0,0,0-.62-.35l-1.36.34a.5.5,0,1,0,.27,1l.87-.21a10.64,10.64,0,0,1-3.94,1.07c-3.85.4-8,.53-11.65-.84l-.73-.29a61.61,61.61,0,0,0,7.45-3.38c1.36-.74,2.7-1.53,4-2.36a9.4,9.4,0,0,1,4.21-1.89c.63,0,.64-1.06,0-1a9,9,0,0,0-4,1.57c-1.36.85-2.71,1.71-4.12,2.49a59.35,59.35,0,0,1-8.75,4,6.92,6.92,0,0,1-2.66-2.6,9.1,9.1,0,0,1-.75-5.4,13.31,13.31,0,0,1,1.56-4.86.43.43,0,0,0,.47.13A7.73,7.73,0,0,0,22,51.6a16.88,16.88,0,0,0,2.85,1.75L19,55.9a.51.51,0,0,0-.18.69.52.52,0,0,0,.69.17l6.68-2.92a5.57,5.57,0,0,0,1.15.22,5,5,0,0,0,2.85-.62c.65-.36,2-1.4,2.65-.69.52.52.83,1.22,1.71,1,.63-.15,1-.7,1.51-1.07.34-.26.46-.26.74.08a6.85,6.85,0,0,0,1,1.06,4.49,4.49,0,0,0,2.6,1c.64,0,.64-1,0-1a3.39,3.39,0,0,1-2.58-1.38c-.43-.56-.88-1.11-1.66-.88-.6.17-1,.72-1.46,1.07s-.5.21-.77-.15a2.54,2.54,0,0,0-.82-.78,2.58,2.58,0,0,0-2.28.29A7,7,0,0,1,28,53.08c-2.14.11-4.14-1.31-5.77-2.53a.52.52,0,0,0-.61.08,6,6,0,0,1-1.72.95,7.33,7.33,0,0,1,3.93-2.83.5.5,0,0,0-.26-1c-3.63,1-5.79,4.51-6.59,8a12.27,12.27,0,0,0,0,6,7.57,7.57,0,0,0,3.65,4.5.39.39,0,0,0,.4.2c3.82,2,8.34,2.11,12.55,1.78a12.42,12.42,0,0,0,6-1.55,8.33,8.33,0,0,0,3.11-4.5,21.29,21.29,0,0,0,.68-3.17A9.91,9.91,0,0,0,43.46,55.69Z"/><path class="cls-1" d="M28.25,23.27c-.06-.64-1.06-.64-1,0a130.38,130.38,0,0,1,.38,13.55,42.1,42.1,0,0,1-.41,6.45c-.32,1.71-1.58,3.92-3.67,3.41-.62-.16-.89.81-.26,1a4,4,0,0,0,4.34-2.36c1-2,.85-4.54.94-6.74A127.57,127.57,0,0,0,28.25,23.27Z"/><path class="cls-1" d="M37.26,39.49h-.45c0-5.05-.11-10.11-.33-15.16,0-.53,0-1-.07-1.58a.41.41,0,0,0,0-.19l-.15-3.4c-.07-1.46.09-3.19-.48-4.57-.85-2.08-3.54-2.63-5.45-1.74a5.77,5.77,0,0,0-2.71,3.06,6.49,6.49,0,0,0-.46,4.51c.21.61,1.18.35,1-.26a5.54,5.54,0,0,1,.39-3.81,4.85,4.85,0,0,1,2.26-2.6,3.46,3.46,0,0,1,2.87,0c1.22.57,1.45,1.74,1.51,3l.27,5.67-.3.1-.17,0h-.08l-.32,0h-.27L34,22.46l-.16-.05-.11,0-.28-.15a.5.5,0,0,0-.68.17.51.51,0,0,0,0,.45.48.48,0,0,0,.46.63.45.45,0,0,0,.33-.13,3.25,3.25,0,0,0,2,.07c.15,3.55.28,7.09.34,10.63H33.85a.5.5,0,0,0,0,1h2c0,1.49,0,3,0,4.45h-2a.5.5,0,0,0,0,1h2c0,1.65-.07,3.3-.14,4.94,0,.65,1,.65,1,0,.07-1.64.11-3.29.13-4.94h.46a.5.5,0,0,0,0-1Z"/><path class="cls-1" d="M35.3,28.87a.57.57,0,0,0-.3-.23l-1-.35a.5.5,0,0,0-.57.74.62.62,0,0,0,.3.23l1,.34a.45.45,0,0,0,.39-.05.55.55,0,0,0,.23-.29A.53.53,0,0,0,35.3,28.87Z"/><path class="cls-1" d="M45.64,12.41a6,6,0,0,0-2.2-.75,3.06,3.06,0,0,0-2.27.57,2.4,2.4,0,0,0-.87,1.38,2.38,2.38,0,0,0,0,1.92,1.64,1.64,0,0,0,.73.59,4,4,0,0,0,.89.35,4.37,4.37,0,0,0,1.87,0,3.27,3.27,0,0,0,2.7-2.34A1.61,1.61,0,0,0,45.64,12.41Zm-1.77,3.06a3.17,3.17,0,0,1-2.45-.28L41.19,15l0-.09a1.29,1.29,0,0,1,0-.19,2.62,2.62,0,0,1,0-.28.43.43,0,0,0,.15-.37c0-.07,0-.12,0-.18a1.56,1.56,0,0,1,.65-.76.44.44,0,0,0,.24-.36,2.07,2.07,0,0,1,.83-.18,4.28,4.28,0,0,1,1.68.41c.35.16.87.34.87.79C45.53,14.67,44.58,15.26,43.87,15.47Z"/><path class="cls-1" d="M54.2,25.45c-1.49,2.9-5.7,4-8.22,1.75a5.36,5.36,0,0,1,.33-8.4,5.59,5.59,0,0,1,5.18-.63c.6.24.86-.73.27-1a6.47,6.47,0,0,0-8.64,5,6.83,6.83,0,0,0,1.66,5.19,5.93,5.93,0,0,0,5.14,1.95A6.6,6.6,0,0,0,55.07,26C55.36,25.38,54.5,24.87,54.2,25.45Z"/><path class="cls-1" d="M33.77,54.11a.49.49,0,0,0-.51,0,102.13,102.13,0,0,1-13.81,6.58c-.59.23-.34,1.2.27,1a103.15,103.15,0,0,0,13.33-6.28.47.47,0,0,0,.71.3A.91.91,0,0,0,33.77,54.11Z"/><path class="cls-1" d="M40.51,60.75c-.5-.16-1,.24-1.4.47l-1.71,1-6.69,3.87a.5.5,0,0,0,.51.86l4.57-2.64L38.07,63l1.14-.66L39.7,62l.25-.17C40.74,62.47,41.45,61.05,40.51,60.75Z"/><path class="cls-1" d="M13.78,16.15l-1.36-1.36a.5.5,0,0,0-.71.7l1.36,1.36a.5.5,0,1,0,.71-.7Z"/><path class="cls-1" d="M13.2,33.13l-4.42-.72a.52.52,0,0,0-.61.35.49.49,0,0,0,.35.61l4.42.72a.5.5,0,0,0,.61-.35A.49.49,0,0,0,13.2,33.13Z"/><path class="cls-1" d="M14.76,47.5,7.63,50.63c-2.27,1-4.6,2.2-7.15,2.22a.5.5,0,0,0,0,1c2.57,0,4.9-1.14,7.21-2.15l7.57-3.34C15.85,48.11,15.34,47.24,14.76,47.5Z"/><path class="cls-1" d="M8.44,65.15a10.38,10.38,0,0,1-3.87,1.19.51.51,0,0,0-.5.5.5.5,0,0,0,.5.5A11.57,11.57,0,0,0,8.94,66C9.51,65.7,9,64.84,8.44,65.15Z"/><path class="cls-1" d="M61.09,54.79a24.19,24.19,0,0,1-7.7-1.67c-.6-.23-.86.73-.27,1a25.08,25.08,0,0,0,8,1.7C61.73,55.83,61.73,54.83,61.09,54.79Z"/><path class="cls-1" d="M55.77,45.63l-2.72-1a.49.49,0,0,0-.61.35.5.5,0,0,0,.35.61l2.72,1a.5.5,0,0,0,.26-1Z"/><path class="cls-1" d="M59.91,7.44,53.46,9.19a.5.5,0,0,0,.26,1l6.46-1.74A.5.5,0,0,0,59.91,7.44Z"/><path class="cls-1" d="M38.52.06a.52.52,0,0,0-.69.18c-.56,1-1.12,2.05-1.69,3.07a.5.5,0,0,0,.87.51c.56-1,1.12-2,1.69-3.07A.52.52,0,0,0,38.52.06Z"/><path class="cls-1" d="M25.34,6.13a.5.5,0,0,0,0,1A.5.5,0,0,0,25.34,6.13Z"/></g></g></svg>