<svg xmlns="http://www.w3.org/2000/svg" viewBox="0 0 68.14 68.96"><defs><style>.cls-1{fill:#231f20;}</style></defs><g id="Layer_2" data-name="Layer 2"><g id="Layer_3" data-name="Layer 3"><path class="cls-1" d="M47.93,40.06C44,32.66,36.83,26.92,35,18.46a15.89,15.89,0,0,1-.33-3.15.5.5,0,0,0-1,0c.06,8.25,6.11,14.49,10.58,20.82a28.49,28.49,0,0,1,5.09,10.94,21.83,21.83,0,0,1-.88,12.11,6.22,6.22,0,0,1-4.09,3.75,22.44,22.44,0,0,1-5.88.83c-3.92.11-8-.68-11.19-3.11a11.24,11.24,0,0,1-4.68-8.81c0-3.79,2.2-7.14,4-10.32a29.3,29.3,0,0,0,4-11.1,39.15,39.15,0,0,0,.11-5.93,20,20,0,0,1,.34-5.62A8.1,8.1,0,0,1,32.3,16.3c.35-.54-.51-1-.87-.5-2.21,3.33-1.56,7.49-1.53,11.27A25.37,25.37,0,0,1,26.62,39.6c-1.82,3.33-4.18,6.61-4.8,10.45a11.56,11.56,0,0,0,3.08,9.72A16.16,16.16,0,0,0,35,64.61a26,26,0,0,0,6.35-.08,12.38,12.38,0,0,0,5.51-1.66,8.16,8.16,0,0,0,3-4.56,23.63,23.63,0,0,0,1-6.19A24.71,24.71,0,0,0,47.93,40.06Z"/><path class="cls-1" d="M46.42,58.07a.5.5,0,0,0-.91-.12,3.44,3.44,0,0,1-.35.58h0l0,.06-.11.12-.24.24-.12.1,0,0-.05,0-.28.19-.29.14-.07,0h0l-.17.06a.5.5,0,0,0,.27,1,4,4,0,0,0,2.33-2A.5.5,0,0,0,46.42,58.07Z"/><path class="cls-1" d="M44,59.46Z"/><path class="cls-1" d="M25.24,63.26c-1,.65-2.31-.09-3.34-.41A18.61,18.61,0,0,0,18,62.47,8.18,8.18,0,0,1,13,59.94c1.29,0,2.81-.39,2.8-1.69,0-.13,0-.26,0-.4a2.33,2.33,0,0,0,.38.08,3.76,3.76,0,0,0,1.11,0,.5.5,0,0,0,.3-.23.53.53,0,0,0,.05-.39.53.53,0,0,0-.6-.35h0a2.84,2.84,0,0,1-.77,0l-.34-.07-.21-.07-.09,0h0a2.21,2.21,0,0,1,.2-1.4c.57-1,1.62-.5,2.28.12a20.07,20.07,0,0,1,1.89,2.23,18,18,0,0,1,1.74,2.67c.67,1.3,1.45,2.81,3.09,2.89.64,0,.64-1,0-1-.85,0-1.35-.81-1.74-1.47s-.78-1.52-1.25-2.24a28.85,28.85,0,0,0-1.84-2.44A8.78,8.78,0,0,0,18,54.21a2.16,2.16,0,0,0-3.41,1.32,4.14,4.14,0,0,0-.08,1.27,6.68,6.68,0,0,1,.21,1.45c-.08.46-.89.59-1.27.66a3.85,3.85,0,0,1-1.55,0c-.39-.09-.84.36-.57.74a9.34,9.34,0,0,0,6.28,3.82,20.87,20.87,0,0,0,2.24.11,7.61,7.61,0,0,1,2.22.44c1.19.41,2.47.89,3.64.16C26.29,63.78,25.79,62.92,25.24,63.26Z"/><path class="cls-1" d="M33.56,65.15c-.36-.53-1.23,0-.87.5.22.32.75,1,.44,1.38-.06.07-.2.18-.27.17s-.12-.09-.17-.11a.61.61,0,0,0-.33,0l-.52.12c-1.25.29-2.52.52-3.79.7a1.61,1.61,0,0,1,.63-1,5,5,0,0,1,1.83-.75.5.5,0,0,0-.27-1,5.65,5.65,0,0,0-2.39,1.11,2.36,2.36,0,0,0-.74,2.31.5.5,0,0,0,.48.37,46.8,46.8,0,0,0,4.84-.89A1.27,1.27,0,0,0,34,67.52C34.5,66.73,34,65.82,33.56,65.15Z"/><path class="cls-1" d="M59.24,52.79a.47.47,0,0,0-.49-.13,6.33,6.33,0,0,0-3,1.21,5,5,0,0,0-1.4,2.64c-.39,1.62-.53,4.43-2.65,4.73-.54.07-.43.77,0,.93a.54.54,0,0,0,.53.81,4.84,4.84,0,0,0,3-1.6,5.26,5.26,0,0,0,1.26-3.19,2,2,0,0,1,.77-1.63c.47-.35,1-.59,1.47-1A2,2,0,0,0,59.24,52.79Zm-1,1.84a4.93,4.93,0,0,1-1.21.84,3,3,0,0,0-1.57,2.42,4.65,4.65,0,0,1-1,2.78,4.12,4.12,0,0,1-1.14.91,6.52,6.52,0,0,0,1.74-3.71A6.79,6.79,0,0,1,56,55a4,4,0,0,1,2.6-1.32A1.27,1.27,0,0,1,58.24,54.63Z"/><path class="cls-1" d="M61.92,50.37h0Z"/><path class="cls-1" d="M62.84,48.66a1.55,1.55,0,0,0-1.79.29s0,0,0-.06a.5.5,0,0,0-.61-.35.51.51,0,0,0-.35.62,4.5,4.5,0,0,0,.73,1.55,1.68,1.68,0,0,0,1.45.69,1.52,1.52,0,0,0,1.3-1.18A1.4,1.4,0,0,0,62.84,48.66Zm-.79,1.75-.11,0,0,0,0,0h0l0,0a.41.41,0,0,1-.11-.07l0,0a.47.47,0,0,1-.1-.1s-.07-.1-.11-.12a.43.43,0,0,0,0-.07l-.08-.13a.38.38,0,0,0,.29-.14l.09-.1,0,0c-.05.08-.07,0,0,0l.08,0h0l.09,0h.2l.12,0h0l.1.07,0,0h0l0,0,0,0h0l0,0h0a.44.44,0,0,1,0,.1v.12a.36.36,0,0,1,0,.1s0,0,0,.06l-.06.1,0,0h0a.75.75,0,0,1-.09.09l0,0,0,0-.05,0h-.17Z"/><path class="cls-1" d="M62.53,49.68h0l0,0Z"/><path class="cls-1" d="M14.92,52a.5.5,0,0,0-.68-.18,7.17,7.17,0,0,0-2,1.27,6.26,6.26,0,0,1-.82.31,13,13,0,0,0-2.88,1,.52.52,0,0,0-.18.69,3.62,3.62,0,0,0,2.09,1.92.51.51,0,0,0,.62-.35,6.5,6.5,0,0,1,1.77-2.71,8.88,8.88,0,0,0,1.87-1.17.28.28,0,0,0,.08-.11A.51.51,0,0,0,14.92,52Zm-4.59,3.8A2.57,2.57,0,0,1,9.5,55,8.54,8.54,0,0,1,11,54.52,7.19,7.19,0,0,0,10.33,55.77Z"/><path class="cls-1" d="M26.84,16.9c-.17.19-.36.34-.54.51h-.07a.5.5,0,0,0-.35.39,7.49,7.49,0,0,1-1.2.78,3.81,3.81,0,0,0-1.13.63,1.55,1.55,0,0,0-.22,1.43,9.12,9.12,0,0,0,.3,1.47.86.86,0,0,0,1.26.49,4.17,4.17,0,0,0,1.61-1.93,4.77,4.77,0,0,0,.39-2.44,7.79,7.79,0,0,0,.66-.62C28,17.13,27.28,16.42,26.84,16.9Zm-2.09,4.54-.19.17,0,0,0-.06-.24-1.29a.7.7,0,0,1,0-.35c0-.09.18-.14.27-.18.33-.16.66-.3,1-.49.15-.08.28-.19.42-.28A3.82,3.82,0,0,1,24.75,21.44Z"/><path class="cls-1" d="M20.12,58.31a.5.5,0,0,0-.61-.35l-2.3.51a.51.51,0,0,0-.35.62.52.52,0,0,0,.62.35l2.29-.51A.51.51,0,0,0,20.12,58.31Z"/><path class="cls-1" d="M19.36,60.37a.5.5,0,0,0-.62-.35,4.88,4.88,0,0,1-.65.2l-.16,0H17l-.14,0a3.31,3.31,0,0,1-.68-.2.5.5,0,0,0-.27,1A4.2,4.2,0,0,0,19,61,.51.51,0,0,0,19.36,60.37Z"/><path class="cls-1" d="M12.27,9.2,6.86,6.49c-.58-.29-1.08.57-.51.86l5.41,2.71C12.34,10.35,12.84,9.49,12.27,9.2Z"/><path class="cls-1" d="M32.51.15A.49.49,0,0,0,32.15,0a.51.51,0,0,0-.5.5v1a.55.55,0,0,0,.15.36.52.52,0,0,0,.35.14.51.51,0,0,0,.5-.5V.5A.5.5,0,0,0,32.51.15Z"/><path class="cls-1" d="M61.34,3.7a.51.51,0,0,0-.71,0L58.15,5.82a.5.5,0,0,0,0,.71.51.51,0,0,0,.7,0l2.49-2.12A.5.5,0,0,0,61.34,3.7Z"/><path class="cls-1" d="M67.64,29.1a12.43,12.43,0,0,1-3.7-.22.51.51,0,0,0-.61.35.51.51,0,0,0,.35.62,13.18,13.18,0,0,0,4,.25.5.5,0,0,0,0-1Z"/><path class="cls-1" d="M6.36,34.19a.52.52,0,0,0-.62-.35l-5.38.92a.5.5,0,0,0,.27,1L6,34.81A.51.51,0,0,0,6.36,34.19Z"/><path class="cls-1" d="M14.42,20.69a18.69,18.69,0,0,0-4.48-.26.51.51,0,0,0-.5.5.5.5,0,0,0,.5.5,18,18,0,0,1,4.21.22.5.5,0,1,0,.27-1Z"/><path class="cls-1" d="M62,16.14a.5.5,0,0,0-.68-.18l-4.36,2a.5.5,0,0,0,.51.87l4.35-2A.49.49,0,0,0,62,16.14Z"/><path class="cls-1" d="M27.55,8.25l-.12-.09h0l-.06,0-.22-.2a3.78,3.78,0,0,1-.39-.41l-.08-.1h0l0,0-.17-.24c-.11-.17-.2-.34-.29-.51a.5.5,0,1,0-.86.5,5.31,5.31,0,0,0,1.69,2,.53.53,0,0,0,.39.05.5.5,0,0,0,.3-.23A.5.5,0,0,0,27.55,8.25Z"/><path class="cls-1" d="M27.45,8.17Z"/><path class="cls-1" d="M50.79,4.85a.5.5,0,0,0,0,1A.5.5,0,0,0,50.79,4.85Z"/><path class="cls-1" d="M14.73,42.67a.5.5,0,0,0-.68-.18,11.94,11.94,0,0,1-3.47,1.21.5.5,0,0,0-.35.61.51.51,0,0,0,.61.35,12.26,12.26,0,0,0,3.71-1.31A.5.5,0,0,0,14.73,42.67Z"/><path class="cls-1" d="M62.85,42.62l-4.13-2.74a.5.5,0,1,0-.51.86l4.13,2.75a.5.5,0,0,0,.51-.87Z"/><path class="cls-1" d="M15.3,37.53a.5.5,0,0,0,0,1A.5.5,0,0,0,15.3,37.53Z"/><path class="cls-1" d="M58.2,32.94a.5.5,0,0,0,0,1A.5.5,0,0,0,58.2,32.94Z"/></g></g></svg>